<svg width="39" height="38" viewBox="0 0 39 38" fill="none" xmlns="http://www.w3.org/2000/svg">
<path d="M31.5 0C35.366 2.57702e-07 38.5 3.13401 38.5 7V31C38.5 34.866 35.366 38 31.5 38H7.5C3.63401 38 0.5 34.866 0.5 31V7C0.5 3.13401 3.63401 0 7.5 0H31.5ZM23.5332 8.00879C23.5158 8.01705 23.5015 8.03098 23.4922 8.04785C23.2313 8.51179 22.9416 9.11694 22.7393 9.59277C20.4574 9.25108 18.1871 9.25108 15.9521 9.59277C15.7497 9.10639 15.4505 8.51172 15.1885 8.04785C15.1788 8.03125 15.1638 8.01798 15.1465 8.00977C15.1291 8.00156 15.1098 7.9989 15.0908 8.00195C13.0039 8.36204 10.9722 8.99182 9.04785 9.87598C9.03163 9.88312 9.01826 9.89516 9.00879 9.91016C5.1601 15.66 4.10589 21.2685 4.62305 26.8076C4.62623 26.8349 4.63966 26.8599 4.66113 26.877C7.20028 28.7418 9.6602 29.8737 12.0742 30.624C12.093 30.6296 12.1132 30.6291 12.1318 30.623C12.1503 30.6169 12.1669 30.6054 12.1787 30.5898C12.7497 29.81 13.2588 28.9876 13.6953 28.123C13.7012 28.1113 13.7045 28.0981 13.7051 28.085C13.7056 28.0719 13.703 28.0591 13.6982 28.0469C13.6934 28.0345 13.6863 28.0229 13.6768 28.0137C13.6673 28.0044 13.656 27.9967 13.6436 27.9922C12.8362 27.6859 12.0675 27.3127 11.3281 26.8887C11.3147 26.8807 11.3031 26.8698 11.2949 26.8564C11.2868 26.8432 11.2822 26.828 11.2812 26.8125C11.2803 26.7969 11.2825 26.7808 11.2891 26.7666C11.2956 26.7524 11.306 26.7399 11.3184 26.7305C11.4743 26.6139 11.6279 26.4937 11.7783 26.3701C11.7914 26.3594 11.8074 26.3529 11.8242 26.3506C11.8411 26.3483 11.8584 26.3505 11.874 26.3574C16.7327 28.5757 21.9927 28.5757 26.7939 26.3574C26.8095 26.3501 26.8267 26.3476 26.8438 26.3496C26.8608 26.3517 26.8773 26.3584 26.8906 26.3691C27.0413 26.4934 27.1959 26.6137 27.3525 26.7305C27.3649 26.7398 27.3742 26.7526 27.3809 26.7666C27.3875 26.7808 27.3905 26.7969 27.3896 26.8125C27.3888 26.8279 27.3849 26.8432 27.377 26.8564C27.3689 26.8698 27.3571 26.8806 27.3438 26.8887C26.604 27.3206 25.8291 27.6896 25.0273 27.9912C25.015 27.996 25.0035 28.0034 24.9941 28.0127C24.9848 28.0221 24.9774 28.0336 24.9727 28.0459C24.9679 28.0583 24.9661 28.0718 24.9668 28.085C24.9675 28.0981 24.9706 28.1113 24.9766 28.123C25.4206 28.9809 25.9275 29.8052 26.4922 30.5889C26.5037 30.6047 26.5196 30.6167 26.5381 30.623C26.5566 30.6293 26.5769 30.6296 26.5957 30.624C29.0215 29.8737 31.4822 28.7418 34.0215 26.877C34.0322 26.8689 34.0413 26.8583 34.0479 26.8467C34.0544 26.835 34.0583 26.8219 34.0596 26.8086C34.6785 20.4049 33.0225 14.8422 29.6699 9.91113C29.6618 9.89521 29.6484 9.88269 29.6318 9.87598C27.7071 8.9926 25.6756 8.36285 23.5889 8.00195C23.57 7.99851 23.5505 8.00065 23.5332 8.00879ZM14.4209 17.4502C15.9184 17.4504 17.1122 18.8052 17.0889 20.4424C17.0889 22.0916 15.9068 23.4344 14.4209 23.4346C12.958 23.4346 11.752 22.0917 11.752 20.4424C11.7521 18.7932 12.9348 17.4502 14.4209 17.4502ZM24.2852 17.4502C25.7828 17.4502 26.9763 18.8051 26.9531 20.4424C26.9531 22.0917 25.7829 23.4346 24.2852 23.4346C22.8223 23.4346 21.6172 22.0917 21.6172 20.4424C21.6173 18.7932 22.7991 17.4502 24.2852 17.4502Z" fill="currentColor"/>
</svg>
