<svg width="40" height="40" viewBox="0 0 40 40" fill="none" xmlns="http://www.w3.org/2000/svg">
<path fill-rule="evenodd" clip-rule="evenodd" d="M7.90909 1C6.07669 1 4.31933 1.72792 3.02363 3.02363C1.72792 4.31933 1 6.07669 1 7.90909V32.0909C1 33.9233 1.72792 35.6807 3.02363 36.9764C4.31933 38.2721 6.07669 39 7.90909 39H32.0909C33.9233 39 35.6807 38.2721 36.9764 36.9764C38.2721 35.6807 39 33.9233 39 32.0909V7.90909C39 6.07669 38.2721 4.31933 36.9764 3.02363C35.6807 1.72792 33.9233 1 32.0909 1H7.90909ZM7.33218 7.04545C7.1431 7.11572 6.97304 7.22918 6.83555 7.37678C6.69806 7.52438 6.59693 7.70205 6.54023 7.89563C6.48353 8.08922 6.47282 8.29337 6.50896 8.49182C6.54509 8.69028 6.62707 8.87755 6.74836 9.03873L16.4453 21.9069L6.22845 32.8665L6.15245 32.9545H9.68818L18.0309 24.009L24.4425 32.521C24.5913 32.718 24.7933 32.8684 25.0246 32.9545H32.6626C32.8514 32.8839 33.0211 32.7702 33.1583 32.6224C33.2954 32.4747 33.3961 32.2969 33.4525 32.1034C33.5088 31.9098 33.5192 31.7058 33.4829 31.5075C33.4465 31.3093 33.3644 31.1222 33.243 30.9613L23.5461 18.0931L33.8475 7.04545H30.3066L21.9639 15.9927L15.5488 7.48073C15.4003 7.28306 15.1983 7.13203 14.9667 7.04545H7.33218ZM26.1249 30.4465L10.3808 9.55346H13.8682L29.6105 30.4448L26.1249 30.4465Z" fill="currentColor"/>
</svg>
