<svg width="164" height="38" viewBox="0 0 164 38" fill="none" xmlns="http://www.w3.org/2000/svg">
<g clip-path="url(#clip0_2114_358)">
<path d="M22.6669 0.033944C29.5976 -0.330028 35.8142 2.22135 38.7796 8.76987C40.068 11.6144 41.2416 15.134 40.9574 18.2861C39.6322 32.9871 18.1478 43.8355 6.18172 34.5602C3.32002 32.3418 2.62073 30.4102 1.44419 27.1386C0.746084 25.198 0.132058 23.8949 0.0207395 21.7349C-0.578483 10.086 11.9217 0.597744 22.6669 0.033944ZM5.78204 27.9795C15.6965 38.0875 38.014 26.7223 36.6397 12.7611C36.0635 6.90719 31.1407 3.26806 25.6002 2.63765C17.066 1.66706 7.61346 6.80965 4.09451 14.7112C2.11091 19.1651 2.23644 24.3648 5.78204 27.9795Z" fill="url(#paint0_linear_2114_358)"/>
<path d="M24.1991 26.907C24.162 26.966 23.8518 27.0438 23.7552 26.9697L17.0994 22.26L8.44317 26.0345L8.07355 26.0758L8.02433 25.7862L12.2442 18.166L7 12.1275C7.1653 11.9654 7.34175 11.9579 7.55628 11.9392C9.02173 11.8099 10.554 12.0235 12.0093 12.0413C13.3837 12.0582 14.7684 12.0601 16.141 11.9889L21.6174 5.06393C22.0762 4.89619 22.1421 5.06861 22.2387 5.46312C22.7782 7.6596 22.8172 10.1522 23.3754 12.3665L31.9146 13.2989L32 13.5706L23.888 18.7751L24.1991 26.906V26.907Z" fill="url(#paint1_linear_2114_358)"/>
</g>
<path d="M58.1628 28.48C58.628 28.48 59.0933 28.4497 59.5586 28.389C60.0239 28.308 60.4386 28.1766 60.8028 27.9945C61.1669 27.8124 61.4602 27.5595 61.6828 27.2359C61.9255 26.892 62.0469 26.457 62.0469 25.931C62.0469 25.5264 61.9356 25.1825 61.7131 24.8993C61.4906 24.5959 61.2074 24.3228 60.8634 24.08C60.5195 23.8372 60.1352 23.6147 59.7103 23.4124C59.2855 23.2101 58.8607 22.9876 58.4359 22.7448C57.8897 22.4211 57.3738 22.0772 56.8883 21.7131C56.4028 21.349 55.988 20.9444 55.6441 20.4993C55.3002 20.034 55.0271 19.5283 54.8248 18.9821C54.6225 18.4156 54.5214 17.7683 54.5214 17.04C54.5214 16.1094 54.6933 15.2497 55.0372 14.4607C55.4014 13.6515 55.9274 12.9536 56.6152 12.3669C57.3232 11.7802 58.2032 11.3251 59.2552 11.0014C60.3071 10.6575 61.5412 10.4855 62.9572 10.4855C63.6046 10.4855 64.2317 10.5462 64.8386 10.6676C65.4455 10.7687 66.012 10.9002 66.5379 11.0621C67.0639 11.2239 67.5393 11.4161 67.9641 11.6386C68.4092 11.8409 68.7834 12.0432 69.0869 12.2455L67.1145 15.7352C66.6087 15.3508 65.9917 15.0271 65.2634 14.7641C64.5352 14.5011 63.7462 14.3697 62.8966 14.3697C62.4313 14.3697 61.9862 14.4101 61.5614 14.491C61.1366 14.572 60.7623 14.7136 60.4386 14.9159C60.1149 15.0979 59.852 15.3407 59.6497 15.6441C59.4676 15.9476 59.3766 16.3218 59.3766 16.7669C59.3766 17.1715 59.4474 17.5154 59.589 17.7986C59.7508 18.0616 59.9531 18.2943 60.1959 18.4966C60.4386 18.6988 60.7218 18.8809 61.0455 19.0428C61.3692 19.2046 61.7131 19.3766 62.0772 19.5586C62.7044 19.8823 63.3113 20.2262 63.8979 20.5903C64.4846 20.9545 65.0005 21.3793 65.4455 21.8648C65.8906 22.3301 66.2446 22.8662 66.5076 23.4731C66.7706 24.08 66.9021 24.7982 66.9021 25.6276C66.9021 26.7807 66.6897 27.7821 66.2648 28.6317C65.84 29.4814 65.2432 30.1894 64.4745 30.7559C63.7057 31.3223 62.7853 31.737 61.7131 32C60.6611 32.2832 59.4878 32.4248 58.1931 32.4248C57.3434 32.4248 56.5444 32.354 55.7959 32.2124C55.0676 32.0708 54.4 31.909 53.7931 31.7269C53.2064 31.5246 52.6906 31.3122 52.2455 31.0897C51.8207 30.8671 51.4768 30.6648 51.2138 30.4828L53.2166 26.8717C53.4593 27.0336 53.7526 27.2055 54.0966 27.3876C54.4405 27.5697 54.8248 27.7416 55.2497 27.9034C55.6947 28.0653 56.16 28.2069 56.6455 28.3283C57.131 28.4294 57.6368 28.48 58.1628 28.48ZM73.4139 12.0634L78.1173 11.3352L76.9642 16.0386H82.0015L81.0911 19.7407H76.0842L74.7491 25.3241C74.6277 25.7894 74.5468 26.2244 74.5063 26.629C74.4861 27.0336 74.5366 27.3876 74.658 27.691C74.7996 27.9743 75.0323 28.1968 75.3559 28.3586C75.6796 28.5205 76.1247 28.6014 76.6911 28.6014C77.1766 28.6014 77.6419 28.5609 78.087 28.48C78.5523 28.3789 79.0176 28.2474 79.4828 28.0855L79.8166 31.5448C79.2097 31.7674 78.5523 31.9595 77.8442 32.1214C77.1362 32.2832 76.2966 32.3641 75.3256 32.3641C73.9297 32.3641 72.8474 32.1618 72.0787 31.7572C71.31 31.3324 70.7638 30.766 70.4401 30.0579C70.1164 29.3297 69.9748 28.5002 70.0153 27.5697C70.0557 26.6391 70.1973 25.6579 70.4401 24.6262L73.4139 12.0634ZM96.0658 25.1117C95.7826 26.2648 95.7017 27.428 95.8231 28.6014C95.9444 29.7545 96.1771 30.7862 96.521 31.6966L92.4851 32.2731C92.3638 32.0303 92.2525 31.7977 92.1513 31.5752C92.0502 31.3526 91.949 31.0998 91.8479 30.8166C91.2815 31.2818 90.6543 31.6662 89.9665 31.9697C89.2787 32.2731 88.51 32.4248 87.6603 32.4248C86.6488 32.4248 85.7789 32.2529 85.0506 31.909C84.3426 31.5448 83.7559 31.0694 83.2906 30.4828C82.8456 29.8759 82.5219 29.1779 82.3196 28.389C82.1173 27.5798 82.0162 26.72 82.0162 25.8097C82.0162 24.4138 82.2589 23.0989 82.7444 21.8648C83.2502 20.6308 83.938 19.5586 84.8079 18.6483C85.698 17.7177 86.7398 16.9894 87.9334 16.4634C89.127 15.9375 90.4217 15.6745 91.8175 15.6745C91.9996 15.6745 92.3132 15.6846 92.7582 15.7048C93.2235 15.7251 93.7495 15.7756 94.3362 15.8566C94.9228 15.9172 95.5398 16.0285 96.1872 16.1903C96.8346 16.3522 97.4516 16.5747 98.0382 16.8579L96.0658 25.1117ZM92.91 19.5283C92.647 19.4878 92.4042 19.4575 92.1817 19.4372C91.9794 19.417 91.7265 19.4069 91.4231 19.4069C90.7352 19.4069 90.0879 19.5788 89.481 19.9228C88.8943 20.2667 88.3785 20.7218 87.9334 21.2883C87.4883 21.8345 87.1343 22.4717 86.8713 23.2C86.6286 23.9283 86.5072 24.6869 86.5072 25.4759C86.5072 26.4469 86.669 27.2156 86.9927 27.7821C87.3164 28.3485 87.9132 28.6317 88.7831 28.6317C89.2483 28.6317 89.6631 28.5407 90.0272 28.3586C90.4116 28.1766 90.8162 27.8731 91.241 27.4483C91.2815 26.9425 91.3421 26.4166 91.4231 25.8703C91.5242 25.3039 91.6254 24.788 91.7265 24.3228L92.91 19.5283ZM111.144 19.9228C110.739 19.8216 110.335 19.7306 109.93 19.6497C109.546 19.5485 108.969 19.4979 108.2 19.4979C107.917 19.4979 107.604 19.5283 107.26 19.589C106.916 19.6294 106.633 19.68 106.41 19.7407L103.467 32H98.9453L102.587 16.8883C103.457 16.6051 104.428 16.3421 105.5 16.0993C106.592 15.8363 107.816 15.7048 109.171 15.7048C109.677 15.7048 110.234 15.7554 110.84 15.8566C111.468 15.9375 112.014 16.0791 112.479 16.2814L111.144 19.9228ZM112.017 32L117.054 10.971H130.679L129.708 14.8855H120.817L119.755 19.3766H127.614L126.674 23.291H118.814L116.721 32H112.017ZM135.935 32.3034C134.499 32.3034 133.366 32.1214 132.536 31.7572C131.727 31.3729 131.14 30.857 130.776 30.2097C130.432 29.5623 130.26 28.8239 130.26 27.9945C130.281 27.1448 130.402 26.2446 130.625 25.2938L134.478 9.18069L139.182 8.45241L134.964 25.931C134.883 26.2952 134.832 26.629 134.812 26.9324C134.812 27.2359 134.873 27.509 134.994 27.7517C135.116 27.9743 135.318 28.1563 135.601 28.2979C135.905 28.4395 136.319 28.5306 136.845 28.571L135.935 32.3034ZM143.382 32H138.891L142.684 16.0386H147.206L143.382 32ZM145.567 14.0966C144.94 14.0966 144.374 13.9145 143.868 13.5503C143.362 13.166 143.109 12.5894 143.109 11.8207C143.109 11.3959 143.19 11.0014 143.352 10.6372C143.534 10.2529 143.767 9.92919 144.05 9.6662C144.333 9.38299 144.657 9.16046 145.021 8.99862C145.405 8.83678 145.81 8.75586 146.235 8.75586C146.862 8.75586 147.428 8.94804 147.934 9.33241C148.44 9.69655 148.693 10.263 148.693 11.0317C148.693 11.4566 148.602 11.8611 148.42 12.2455C148.258 12.6097 148.035 12.9333 147.752 13.2166C147.469 13.4795 147.135 13.692 146.751 13.8538C146.387 14.0156 145.992 14.0966 145.567 14.0966ZM152.795 28.48C153.139 28.5609 153.564 28.6014 154.07 28.6014C154.859 28.6014 155.577 28.4598 156.224 28.1766C156.872 27.8731 157.418 27.4584 157.863 26.9324C158.328 26.4064 158.682 25.7793 158.925 25.051C159.188 24.3025 159.32 23.4832 159.32 22.5931C159.32 21.7232 159.127 20.9848 158.743 20.3779C158.359 19.771 157.691 19.4676 156.74 19.4676C156.093 19.4676 155.486 19.5283 154.92 19.6497L152.795 28.48ZM163.811 22.2593C163.811 23.7361 163.568 25.0915 163.082 26.3255C162.597 27.5393 161.919 28.5913 161.049 29.4814C160.2 30.3715 159.168 31.0694 157.954 31.5752C156.761 32.0607 155.456 32.3034 154.04 32.3034C153.352 32.3034 152.664 32.2428 151.976 32.1214L150.611 37.6138H146.12L151.157 16.6152C151.966 16.3724 152.887 16.16 153.918 15.9779C154.97 15.7756 156.103 15.6745 157.317 15.6745C158.45 15.6745 159.421 15.8464 160.23 16.1903C161.059 16.5343 161.737 17.0097 162.263 17.6166C162.789 18.2032 163.173 18.9011 163.416 19.7103C163.679 20.4993 163.811 21.349 163.811 22.2593Z" fill="white"/>
<defs>
<linearGradient id="paint0_linear_2114_358" x1="20.5001" y1="0.00012207" x2="20.5001" y2="38.0002" gradientUnits="userSpaceOnUse">
<stop stop-color="#E571FF"/>
<stop offset="1" stop-color="#8400FF"/>
</linearGradient>
<linearGradient id="paint1_linear_2114_358" x1="19.5" y1="5" x2="19.5" y2="27" gradientUnits="userSpaceOnUse">
<stop stop-color="#DC5EF8"/>
<stop offset="1" stop-color="#8400FF"/>
</linearGradient>
<clipPath id="clip0_2114_358">
<rect width="41" height="38" fill="white"/>
</clipPath>
</defs>
</svg>
