<svg width="41" height="38" viewBox="0 0 41 38" fill="none" xmlns="http://www.w3.org/2000/svg">
<g clip-path="url(#clip0_2109_1786)">
<path d="M22.6669 0.033944C29.5976 -0.330028 35.8142 2.22135 38.7796 8.76987C40.068 11.6144 41.2416 15.134 40.9574 18.2861C39.6322 32.9871 18.1478 43.8355 6.18172 34.5602C3.32002 32.3418 2.62073 30.4102 1.44419 27.1386C0.746084 25.198 0.132058 23.8949 0.0207395 21.7349C-0.578483 10.086 11.9217 0.597744 22.6669 0.033944ZM5.78204 27.9795C15.6965 38.0875 38.014 26.7223 36.6397 12.7611C36.0635 6.90719 31.1407 3.26806 25.6002 2.63765C17.066 1.66706 7.61346 6.80965 4.09451 14.7112C2.11091 19.1651 2.23644 24.3648 5.78204 27.9795Z" fill="url(#paint0_linear_2109_1786)"/>
<path d="M24.1991 26.907C24.162 26.966 23.8518 27.0438 23.7552 26.9697L17.0994 22.26L8.44317 26.0345L8.07355 26.0758L8.02433 25.7862L12.2442 18.166L7 12.1275C7.1653 11.9654 7.34175 11.9579 7.55628 11.9392C9.02173 11.8099 10.554 12.0235 12.0093 12.0413C13.3837 12.0582 14.7684 12.0601 16.141 11.9889L21.6174 5.06393C22.0762 4.89619 22.1421 5.06861 22.2387 5.46312C22.7782 7.6596 22.8172 10.1522 23.3754 12.3665L31.9146 13.2989L32 13.5706L23.888 18.7751L24.1991 26.906V26.907Z" fill="url(#paint1_linear_2109_1786)"/>
</g>
<defs>
<linearGradient id="paint0_linear_2109_1786" x1="20.5001" y1="0.00012207" x2="20.5001" y2="38.0002" gradientUnits="userSpaceOnUse">
<stop stop-color="#E571FF"/>
<stop offset="1" stop-color="#8400FF"/>
</linearGradient>
<linearGradient id="paint1_linear_2109_1786" x1="19.5" y1="5" x2="19.5" y2="27" gradientUnits="userSpaceOnUse">
<stop stop-color="#DC5EF8"/>
<stop offset="1" stop-color="#8400FF"/>
</linearGradient>
<clipPath id="clip0_2109_1786">
<rect width="41" height="38" fill="white"/>
</clipPath>
</defs>
</svg>
