<svg width="16" height="53" viewBox="0 0 16 53" fill="none" xmlns="http://www.w3.org/2000/svg">
<mask id="path-1-inside-1_2122_810" fill="white">
<path d="M15.8717 53H5.32226V10.8389H0.0659005V0.28941H15.8717V53Z"/>
</mask>
<path d="M15.8717 53H5.32226V10.8389H0.0659005V0.28941H15.8717V53Z" fill="#E883FF"/>
<path d="M15.8717 53V55.5155H18.3872V53H15.8717ZM5.32226 53H2.80679V55.5155H5.32226V53ZM5.32226 10.8389H7.83772V8.32342H5.32226V10.8389ZM0.0659003 10.8389H-2.44956V13.3543H0.0659003V10.8389ZM0.0659003 0.28941V-2.22605H-2.44956V0.28941H0.0659003ZM15.8717 0.28941H18.3872V-2.22605H15.8717V0.28941ZM15.8717 53V50.4845H5.32226V53V55.5155H15.8717V53ZM5.32226 53H7.83772V10.8389H5.32226H2.80679V53H5.32226ZM5.32226 10.8389V8.32342H0.0659003V10.8389V13.3543H5.32226V10.8389ZM0.0659003 10.8389H2.58136V0.28941H0.0659003H-2.44956V10.8389H0.0659003ZM0.0659003 0.28941V2.80487H15.8717V0.28941V-2.22605H0.0659003V0.28941ZM15.8717 0.28941H13.3563V53H15.8717H18.3872V0.28941H15.8717Z" fill="#DD00FF" mask="url(#path-1-inside-1_2122_810)"/>
</svg>
