<svg width="38" height="53" viewBox="0 0 38 53" fill="none" xmlns="http://www.w3.org/2000/svg">
<mask id="path-1-inside-1_2122_813" fill="white">
<path d="M37.8814 16.0952C37.8814 18.2762 37.4648 20.3346 36.6316 22.2705C35.7985 24.1819 34.659 25.8605 33.2132 27.3063C31.7919 28.7276 30.1255 29.8549 28.2141 30.6881C26.3027 31.5212 24.2565 31.9378 22.0756 31.9378H16.7825C16.0473 31.9378 15.3612 32.0726 14.724 32.3422C14.0869 32.6117 13.5233 32.9915 13.0332 33.4816C12.5676 33.9472 12.2 34.4986 11.9304 35.1357C11.6609 35.7729 11.5261 36.459 11.5261 37.1942V42.4505H36.4478V53H0.976632V37.1942C0.976632 35.0132 1.39322 32.967 2.22639 31.0556C3.05957 29.1197 4.18681 27.4411 5.60811 26.0198C7.05391 24.574 8.73251 23.4468 10.6439 22.6381C12.5553 21.8049 14.6015 21.3883 16.7825 21.3883H22.0756C22.8107 21.3883 23.4969 21.2536 24.134 20.984C24.7711 20.7145 25.3225 20.3469 25.7881 19.8813C26.2782 19.3912 26.658 18.8276 26.9276 18.1904C27.1971 17.5288 27.3319 16.8304 27.3319 16.0952C27.3319 15.3601 27.1971 14.6739 26.9276 14.0368C26.658 13.3997 26.2782 12.8483 25.7881 12.3827C25.3225 11.8926 24.7711 11.5128 24.134 11.2432C23.4969 10.9737 22.8107 10.8389 22.0756 10.8389H3.25561V0.28941H22.0756C24.2565 0.28941 26.3027 0.705998 28.2141 1.53917C30.1255 2.37235 31.7919 3.51184 33.2132 4.95764C34.659 6.37894 35.7985 8.04529 36.6316 9.95669C37.4648 11.8681 37.8814 13.9143 37.8814 16.0952Z"/>
</mask>
<path d="M37.8814 16.0952C37.8814 18.2762 37.4648 20.3346 36.6316 22.2705C35.7985 24.1819 34.659 25.8605 33.2132 27.3063C31.7919 28.7276 30.1255 29.8549 28.2141 30.6881C26.3027 31.5212 24.2565 31.9378 22.0756 31.9378H16.7825C16.0473 31.9378 15.3612 32.0726 14.724 32.3422C14.0869 32.6117 13.5233 32.9915 13.0332 33.4816C12.5676 33.9472 12.2 34.4986 11.9304 35.1357C11.6609 35.7729 11.5261 36.459 11.5261 37.1942V42.4505H36.4478V53H0.976632V37.1942C0.976632 35.0132 1.39322 32.967 2.22639 31.0556C3.05957 29.1197 4.18681 27.4411 5.60811 26.0198C7.05391 24.574 8.73251 23.4468 10.6439 22.6381C12.5553 21.8049 14.6015 21.3883 16.7825 21.3883H22.0756C22.8107 21.3883 23.4969 21.2536 24.134 20.984C24.7711 20.7145 25.3225 20.3469 25.7881 19.8813C26.2782 19.3912 26.658 18.8276 26.9276 18.1904C27.1971 17.5288 27.3319 16.8304 27.3319 16.0952C27.3319 15.3601 27.1971 14.6739 26.9276 14.0368C26.658 13.3997 26.2782 12.8483 25.7881 12.3827C25.3225 11.8926 24.7711 11.5128 24.134 11.2432C23.4969 10.9737 22.8107 10.8389 22.0756 10.8389H3.25561V0.28941H22.0756C24.2565 0.28941 26.3027 0.705998 28.2141 1.53917C30.1255 2.37235 31.7919 3.51184 33.2132 4.95764C34.659 6.37894 35.7985 8.04529 36.6316 9.95669C37.4648 11.8681 37.8814 13.9143 37.8814 16.0952Z" fill="#E883FF"/>
<path d="M36.6316 22.2705L38.9376 23.2757L38.9422 23.265L36.6316 22.2705ZM13.0332 33.4816L14.8119 35.2603L13.0332 33.4816ZM11.5261 42.4505H9.01064V44.966H11.5261V42.4505ZM36.4478 42.4505H38.9633V39.9351H36.4478V42.4505ZM36.4478 53V55.5155H38.9633V53H36.4478ZM0.976632 53H-1.53883V55.5155H0.976632V53ZM2.22639 31.0556L4.53233 32.0608L4.53696 32.0501L2.22639 31.0556ZM5.60811 26.0198L7.38681 27.7985L5.60811 26.0198ZM10.6439 22.6381L11.624 24.9548L11.6366 24.9495L11.6491 24.944L10.6439 22.6381ZM26.9276 18.1904L29.2443 19.1706L29.2508 19.1551L29.2571 19.1395L26.9276 18.1904ZM25.7881 12.3827L23.9644 14.1152L24.0088 14.162L24.0556 14.2064L25.7881 12.3827ZM3.25561 10.8389H0.740147V13.3543H3.25561V10.8389ZM3.25561 0.28941V-2.22605H0.740147V0.28941H3.25561ZM33.2132 4.95764L31.4193 6.72108L31.4344 6.73641L31.4497 6.75148L33.2132 4.95764ZM37.8814 16.0952H35.3659C35.3659 17.9464 35.0143 19.6653 34.3211 21.2761L36.6316 22.2705L38.9422 23.265C39.9153 21.004 40.3969 18.606 40.3969 16.0952H37.8814ZM36.6316 22.2705L34.3257 21.2654C33.6158 22.8941 32.6532 24.3089 31.4345 25.5276L33.2132 27.3063L34.9919 29.085C36.6647 27.4122 37.9811 25.4698 38.9375 23.2757L36.6316 22.2705ZM33.2132 27.3063L31.4345 25.5276C30.2441 26.718 28.8428 27.67 27.209 28.3821L28.2141 30.6881L29.2193 32.994C31.4083 32.0398 33.3397 30.7372 34.9919 29.085L33.2132 27.3063ZM28.2141 30.6881L27.209 28.3821C25.6292 29.0708 23.9269 29.4224 22.0756 29.4224V31.9378V34.4533C24.5862 34.4533 26.9762 33.9717 29.2193 32.994L28.2141 30.6881ZM22.0756 31.9378V29.4224H16.7825V31.9378V34.4533H22.0756V31.9378ZM16.7825 31.9378V29.4224C15.732 29.4224 14.7103 29.6166 13.7439 30.0255L14.724 32.3422L15.7041 34.6588C16.0121 34.5285 16.3626 34.4533 16.7825 34.4533V31.9378ZM14.724 32.3422L13.7439 30.0255C12.8078 30.4215 11.9732 30.9842 11.2545 31.7029L13.0332 33.4816L14.8119 35.2603C15.0733 34.9989 15.3659 34.8019 15.7041 34.6588L14.724 32.3422ZM13.0332 33.4816L11.2545 31.7029C10.5483 32.4091 10.0031 33.2355 9.61378 34.1556L11.9304 35.1357L14.2471 36.1159C14.3969 35.7617 14.5868 35.4854 14.8119 35.2603L13.0332 33.4816ZM11.9304 35.1357L9.61378 34.1556C9.20493 35.122 9.01064 36.1437 9.01064 37.1942H11.5261H14.0416C14.0416 36.7743 14.1168 36.4238 14.2471 36.1159L11.9304 35.1357ZM11.5261 37.1942H9.01064V42.4505H11.5261H14.0416V37.1942H11.5261ZM11.5261 42.4505V44.966H36.4478V42.4505V39.9351H11.5261V42.4505ZM36.4478 42.4505H33.9324V53H36.4478H38.9633V42.4505H36.4478ZM36.4478 53V50.4845H0.976632V53V55.5155H36.4478V53ZM0.976632 53H3.4921V37.1942H0.976632H-1.53883V53H0.976632ZM0.976632 37.1942H3.4921C3.4921 35.3429 3.84369 33.6406 4.53231 32.0608L2.22639 31.0556L-0.079521 30.0505C-1.05725 32.2935 -1.53883 34.6836 -1.53883 37.1942H0.976632ZM2.22639 31.0556L4.53696 32.0501C5.25034 30.3925 6.20172 28.9836 7.38681 27.7985L5.60811 26.0198L3.8294 24.2411C2.17189 25.8986 0.8688 27.847 -0.0841661 30.0612L2.22639 31.0556ZM5.60811 26.0198L7.38681 27.7985C8.60004 26.5853 10.0064 25.6392 11.624 24.9548L10.6439 22.6381L9.66379 20.3215C7.45864 21.2544 5.50778 22.5627 3.8294 24.2411L5.60811 26.0198ZM10.6439 22.6381L11.6491 24.944C13.2288 24.2554 14.9312 23.9038 16.7825 23.9038V21.3883V18.8729C14.2718 18.8729 11.8818 19.3545 9.63877 20.3322L10.6439 22.6381ZM16.7825 21.3883V23.9038H22.0756V21.3883V18.8729H16.7825V21.3883ZM22.0756 21.3883V23.9038C23.126 23.9038 24.1478 23.7095 25.1141 23.3007L24.134 20.984L23.1539 18.6674C22.846 18.7976 22.4954 18.8729 22.0756 18.8729V21.3883ZM24.134 20.984L25.1141 23.3007C26.0343 22.9114 26.8606 22.3661 27.5668 21.66L25.7881 19.8813L24.0094 18.1026C23.7844 18.3276 23.508 18.5175 23.1539 18.6674L24.134 20.984ZM25.7881 19.8813L27.5668 21.66C28.2855 20.9413 28.8482 20.1066 29.2443 19.1706L26.9276 18.1904L24.6109 17.2103C24.4678 17.5485 24.2709 17.8411 24.0094 18.1026L25.7881 19.8813ZM26.9276 18.1904L29.2571 19.1395C29.6531 18.1677 29.8474 17.1462 29.8474 16.0952H27.3319H24.8165C24.8165 16.5146 24.7412 16.8899 24.598 17.2413L26.9276 18.1904ZM27.3319 16.0952H29.8474C29.8474 15.0448 29.6531 14.023 29.2443 13.0567L26.9276 14.0368L24.6109 15.0169C24.7412 15.3248 24.8165 15.6754 24.8165 16.0952H27.3319ZM26.9276 14.0368L29.2443 13.0567C28.8432 12.1088 28.2673 11.2683 27.5206 10.559L25.7881 12.3827L24.0556 14.2064C24.2891 14.4283 24.4728 14.6905 24.6109 15.0169L26.9276 14.0368ZM25.7881 12.3827L27.6118 10.6502C26.9025 9.90353 26.062 9.32756 25.1141 8.92655L24.134 11.2432L23.1539 13.5599C23.4803 13.698 23.7425 13.8817 23.9644 14.1152L25.7881 12.3827ZM24.134 11.2432L25.1141 8.92655C24.1478 8.51771 23.126 8.32342 22.0756 8.32342V10.8389V13.3543C22.4954 13.3543 22.846 13.4296 23.1539 13.5599L24.134 11.2432ZM22.0756 10.8389V8.32342H3.25561V10.8389V13.3543H22.0756V10.8389ZM3.25561 10.8389H5.77107V0.28941H3.25561H0.740147V10.8389H3.25561ZM3.25561 0.28941V2.80487H22.0756V0.28941V-2.22605H3.25561V0.28941ZM22.0756 0.28941V2.80487C23.9269 2.80487 25.6292 3.15647 27.209 3.84509L28.2141 1.53917L29.2193 -0.766743C26.9762 -1.74447 24.5862 -2.22605 22.0756 -2.22605V0.28941ZM28.2141 1.53917L27.209 3.84509C28.8337 4.55332 30.2302 5.51149 31.4193 6.72108L33.2132 4.95764L35.007 3.19421C33.3535 1.51218 31.4173 0.191372 29.2193 -0.766743L28.2141 1.53917ZM33.2132 4.95764L31.4497 6.75148C32.6593 7.94056 33.6175 9.33706 34.3257 10.9618L36.6316 9.95669L38.9375 8.95155C37.9794 6.75352 36.6586 4.81732 34.9766 3.1638L33.2132 4.95764ZM36.6316 9.95669L34.3257 10.9618C35.0143 12.5416 35.3659 14.2439 35.3659 16.0952H37.8814H40.3969C40.3969 13.5846 39.9153 11.1946 38.9375 8.95155L36.6316 9.95669Z" fill="#DD00FF" mask="url(#path-1-inside-1_2122_813)"/>
</svg>
