<svg width="37" height="53" viewBox="0 0 37 53" fill="none" xmlns="http://www.w3.org/2000/svg">
<mask id="path-1-inside-1_2122_816" fill="white">
<path d="M36.9887 37.1942C36.9887 39.3751 36.5721 41.4213 35.7389 43.3327C34.9057 45.2441 33.7662 46.9227 32.3204 48.3685C30.8991 49.7898 29.2328 50.9171 27.3214 51.7502C25.41 52.5834 23.3638 53 21.1828 53H0.0838868V42.4505H21.1828C21.918 42.4505 22.6041 42.3158 23.2413 42.0462C23.8784 41.7766 24.4298 41.4091 24.8954 40.9435C25.3855 40.4534 25.7653 39.8897 26.0348 39.2526C26.3044 38.6155 26.4392 37.9293 26.4392 37.1942C26.4392 36.459 26.3044 35.7729 26.0348 35.1357C25.7653 34.4986 25.3855 33.9472 24.8954 33.4816C24.4298 32.9915 23.8784 32.6117 23.2413 32.3422C22.6041 32.0726 21.918 31.9378 21.1828 31.9378H6.81055V21.3883H21.1828C21.918 21.3883 22.6041 21.2536 23.2413 20.984C23.8784 20.7145 24.4298 20.3469 24.8954 19.8813C25.3855 19.3912 25.7653 18.8276 26.0348 18.1904C26.3044 17.5288 26.4392 16.8304 26.4392 16.0952C26.4392 15.3601 26.3044 14.6739 26.0348 14.0368C25.7653 13.3997 25.3855 12.8483 24.8954 12.3827C24.4298 11.8926 23.8784 11.5128 23.2413 11.2432C22.6041 10.9737 21.918 10.8389 21.1828 10.8389H0.0838868V0.28941H21.1828C23.3638 0.28941 25.41 0.705998 27.3214 1.53917C29.2328 2.37235 30.8991 3.51184 32.3204 4.95764C33.7662 6.37894 34.9057 8.04529 35.7389 9.95669C36.5721 11.8681 36.9887 13.9143 36.9887 16.0952C36.9887 18.0311 36.6333 19.918 35.9227 21.7559C35.212 23.5693 34.2073 25.1989 32.9085 26.6447C34.2073 28.0905 35.212 29.7324 35.9227 31.5702C36.6333 33.3836 36.9887 35.2583 36.9887 37.1942Z"/>
</mask>
<path d="M36.9887 37.1942C36.9887 39.3751 36.5721 41.4213 35.7389 43.3327C34.9057 45.2441 33.7662 46.9227 32.3204 48.3685C30.8991 49.7898 29.2328 50.9171 27.3214 51.7502C25.41 52.5834 23.3638 53 21.1828 53H0.0838868V42.4505H21.1828C21.918 42.4505 22.6041 42.3158 23.2413 42.0462C23.8784 41.7766 24.4298 41.4091 24.8954 40.9435C25.3855 40.4534 25.7653 39.8897 26.0348 39.2526C26.3044 38.6155 26.4392 37.9293 26.4392 37.1942C26.4392 36.459 26.3044 35.7729 26.0348 35.1357C25.7653 34.4986 25.3855 33.9472 24.8954 33.4816C24.4298 32.9915 23.8784 32.6117 23.2413 32.3422C22.6041 32.0726 21.918 31.9378 21.1828 31.9378H6.81055V21.3883H21.1828C21.918 21.3883 22.6041 21.2536 23.2413 20.984C23.8784 20.7145 24.4298 20.3469 24.8954 19.8813C25.3855 19.3912 25.7653 18.8276 26.0348 18.1904C26.3044 17.5288 26.4392 16.8304 26.4392 16.0952C26.4392 15.3601 26.3044 14.6739 26.0348 14.0368C25.7653 13.3997 25.3855 12.8483 24.8954 12.3827C24.4298 11.8926 23.8784 11.5128 23.2413 11.2432C22.6041 10.9737 21.918 10.8389 21.1828 10.8389H0.0838868V0.28941H21.1828C23.3638 0.28941 25.41 0.705998 27.3214 1.53917C29.2328 2.37235 30.8991 3.51184 32.3204 4.95764C33.7662 6.37894 34.9057 8.04529 35.7389 9.95669C36.5721 11.8681 36.9887 13.9143 36.9887 16.0952C36.9887 18.0311 36.6333 19.918 35.9227 21.7559C35.212 23.5693 34.2073 25.1989 32.9085 26.6447C34.2073 28.0905 35.212 29.7324 35.9227 31.5702C36.6333 33.3836 36.9887 35.2583 36.9887 37.1942Z" fill="#E883FF"/>
<path d="M32.3204 48.3685L30.5417 46.5898L32.3204 48.3685ZM0.0838866 53H-2.43158V55.5155H0.0838866V53ZM0.0838866 42.4505V39.9351H-2.43158V42.4505H0.0838866ZM24.8954 40.9435L23.1167 39.1648L24.8954 40.9435ZM24.8954 33.4816L23.0716 35.2142L23.1161 35.2609L23.1628 35.3054L24.8954 33.4816ZM6.81055 31.9378H4.29509V34.4533H6.81055V31.9378ZM6.81055 21.3883V18.8729H4.29509V21.3883H6.81055ZM26.0348 18.1904L28.3515 19.1706L28.3581 19.1551L28.3644 19.1395L26.0348 18.1904ZM24.8954 12.3827L23.0716 14.1152L23.1161 14.162L23.1628 14.2064L24.8954 12.3827ZM0.0838866 10.8389H-2.43158V13.3543H0.0838866V10.8389ZM0.0838866 0.28941V-2.22605H-2.43158V0.28941H0.0838866ZM32.3204 4.95764L30.5266 6.72108L30.5417 6.73641L30.557 6.75148L32.3204 4.95764ZM35.9227 21.7559L38.2647 22.6738L38.2689 22.6631L35.9227 21.7559ZM32.9085 26.6447L31.0372 24.9637L29.5272 26.6447L31.0372 28.3257L32.9085 26.6447ZM35.9227 31.5702L33.5765 32.4774L33.5806 32.4881L35.9227 31.5702ZM36.9887 37.1942H34.4732C34.4732 39.0455 34.1216 40.7478 33.433 42.3276L35.7389 43.3327L38.0448 44.3379C39.0225 42.0948 39.5041 39.7048 39.5041 37.1942H36.9887ZM35.7389 43.3327L33.433 42.3276C32.723 43.9562 31.7605 45.3711 30.5417 46.5898L32.3204 48.3685L34.0991 50.1472C35.772 48.4744 37.0884 46.532 38.0448 44.3379L35.7389 43.3327ZM32.3204 48.3685L30.5417 46.5898C29.3513 47.7802 27.95 48.7322 26.3162 49.4443L27.3214 51.7502L28.3265 54.0562C30.5155 53.102 32.4469 51.7994 34.0991 50.1472L32.3204 48.3685ZM27.3214 51.7502L26.3162 49.4443C24.7364 50.1329 23.0341 50.4845 21.1828 50.4845V53V55.5155C23.6934 55.5155 26.0835 55.0339 28.3265 54.0562L27.3214 51.7502ZM21.1828 53V50.4845H0.0838866V53V55.5155H21.1828V53ZM0.0838866 53H2.59935V42.4505H0.0838866H-2.43158V53H0.0838866ZM0.0838866 42.4505V44.966H21.1828V42.4505V39.9351H0.0838866V42.4505ZM21.1828 42.4505V44.966C22.2333 44.966 23.255 44.7717 24.2214 44.3629L23.2413 42.0462L22.2611 39.7295C21.9532 39.8598 21.6027 39.9351 21.1828 39.9351V42.4505ZM23.2413 42.0462L24.2214 44.3629C25.1415 43.9736 25.9679 43.4283 26.6741 42.7222L24.8954 40.9435L23.1167 39.1648C22.8916 39.3898 22.6153 39.5797 22.2611 39.7295L23.2413 42.0462ZM24.8954 40.9435L26.6741 42.7222C27.3928 42.0034 27.9555 41.1688 28.3515 40.2327L26.0348 39.2526L23.7182 38.2725C23.5751 38.6107 23.3781 38.9033 23.1167 39.1648L24.8954 40.9435ZM26.0348 39.2526L28.3515 40.2327C28.7604 39.2664 28.9546 38.2446 28.9546 37.1942H26.4392H23.9237C23.9237 37.614 23.8485 37.9646 23.7182 38.2725L26.0348 39.2526ZM26.4392 37.1942H28.9546C28.9546 36.1437 28.7604 35.122 28.3515 34.1556L26.0348 35.1357L23.7182 36.1159C23.8485 36.4238 23.9237 36.7743 23.9237 37.1942H26.4392ZM26.0348 35.1357L28.3515 34.1556C27.9505 33.2078 27.3745 32.3673 26.6279 31.6579L24.8954 33.4816L23.1628 35.3054C23.3964 35.5272 23.5801 35.7894 23.7182 36.1159L26.0348 35.1357ZM24.8954 33.4816L26.7191 31.7491C26.0097 31.0025 25.1692 30.4265 24.2214 30.0255L23.2413 32.3422L22.2611 34.6588C22.5876 34.7969 22.8498 34.9806 23.0716 35.2142L24.8954 33.4816ZM23.2413 32.3422L24.2214 30.0255C23.255 29.6166 22.2333 29.4224 21.1828 29.4224V31.9378V34.4533C21.6027 34.4533 21.9532 34.5285 22.2611 34.6588L23.2413 32.3422ZM21.1828 31.9378V29.4224H6.81055V31.9378V34.4533H21.1828V31.9378ZM6.81055 31.9378H9.32602V21.3883H6.81055H4.29509V31.9378H6.81055ZM6.81055 21.3883V23.9038H21.1828V21.3883V18.8729H6.81055V21.3883ZM21.1828 21.3883V23.9038C22.2333 23.9038 23.255 23.7095 24.2214 23.3007L23.2413 20.984L22.2611 18.6674C21.9532 18.7976 21.6027 18.8729 21.1828 18.8729V21.3883ZM23.2413 20.984L24.2214 23.3007C25.1415 22.9114 25.9679 22.3661 26.6741 21.66L24.8954 19.8813L23.1167 18.1026C22.8916 18.3276 22.6153 18.5175 22.2611 18.6674L23.2413 20.984ZM24.8954 19.8813L26.6741 21.66C27.3928 20.9413 27.9555 20.1066 28.3515 19.1706L26.0348 18.1904L23.7182 17.2103C23.5751 17.5485 23.3781 17.8411 23.1167 18.1026L24.8954 19.8813ZM26.0348 18.1904L28.3644 19.1395C28.7603 18.1677 28.9546 17.1462 28.9546 16.0952H26.4392H23.9237C23.9237 16.5146 23.8485 16.8899 23.7053 17.2413L26.0348 18.1904ZM26.4392 16.0952H28.9546C28.9546 15.0448 28.7604 14.023 28.3515 13.0567L26.0348 14.0368L23.7182 15.0169C23.8485 15.3248 23.9237 15.6754 23.9237 16.0952H26.4392ZM26.0348 14.0368L28.3515 13.0567C27.9505 12.1088 27.3745 11.2683 26.6279 10.559L24.8954 12.3827L23.1628 14.2064C23.3964 14.4283 23.5801 14.6905 23.7182 15.0169L26.0348 14.0368ZM24.8954 12.3827L26.7191 10.6502C26.0097 9.90353 25.1692 9.32756 24.2214 8.92656L23.2413 11.2432L22.2611 13.5599C22.5876 13.698 22.8498 13.8817 23.0716 14.1152L24.8954 12.3827ZM23.2413 11.2432L24.2214 8.92656C23.255 8.51771 22.2333 8.32342 21.1828 8.32342V10.8389V13.3543C21.6027 13.3543 21.9532 13.4296 22.2611 13.5599L23.2413 11.2432ZM21.1828 10.8389V8.32342H0.0838866V10.8389V13.3543H21.1828V10.8389ZM0.0838866 10.8389H2.59935V0.28941H0.0838866H-2.43158V10.8389H0.0838866ZM0.0838866 0.28941V2.80487H21.1828V0.28941V-2.22605H0.0838866V0.28941ZM21.1828 0.28941V2.80487C23.0341 2.80487 24.7364 3.15647 26.3162 3.84509L27.3214 1.53917L28.3265 -0.766743C26.0835 -1.74447 23.6934 -2.22605 21.1828 -2.22605V0.28941ZM27.3214 1.53917L26.3162 3.84509C27.941 4.55332 29.3375 5.51149 30.5266 6.72108L32.3204 4.95764L34.1143 3.19421C32.4607 1.51218 30.5245 0.191372 28.3265 -0.766743L27.3214 1.53917ZM32.3204 4.95764L30.557 6.75148C31.7666 7.94056 32.7247 9.33706 33.433 10.9618L35.7389 9.95669L38.0448 8.95155C37.0867 6.75352 35.7659 4.81732 34.0839 3.1638L32.3204 4.95764ZM35.7389 9.95669L33.433 10.9618C34.1216 12.5416 34.4732 14.2439 34.4732 16.0952H36.9887H39.5041C39.5041 13.5846 39.0225 11.1946 38.0448 8.95155L35.7389 9.95669ZM36.9887 16.0952H34.4732C34.4732 17.7153 34.1773 19.2949 33.5765 20.8487L35.9227 21.7559L38.2689 22.6631C39.0894 20.5411 39.5041 18.347 39.5041 16.0952H36.9887ZM35.9227 21.7559L33.5806 20.8381C32.9797 22.3716 32.1342 23.7425 31.0372 24.9637L32.9085 26.6447L34.7799 28.3257C36.2804 26.6553 37.4444 24.7671 38.2647 22.6738L35.9227 21.7559ZM32.9085 26.6447L31.0372 28.3257C32.1292 29.5413 32.9743 30.9201 33.5765 32.4774L35.9227 31.5702L38.2689 30.6631C37.4497 28.5446 36.2854 26.6397 34.7799 24.9637L32.9085 26.6447ZM35.9227 31.5702L33.5806 32.4881C34.1774 34.0108 34.4732 35.5743 34.4732 37.1942H36.9887H39.5041C39.5041 34.9422 39.0893 32.7564 38.2647 30.6524L35.9227 31.5702Z" fill="#DD00FF" mask="url(#path-1-inside-1_2122_816)"/>
</svg>
