<svg width="158" height="63" viewBox="0 0 158 63" fill="none" xmlns="http://www.w3.org/2000/svg">
<mask id="path-1-inside-1_2122_603" fill="white">
<path d="M43.5915 43.0775C43.5915 46.0145 43.0741 48.6578 42.0391 51.0074C41.0042 53.357 39.6196 55.343 37.8854 56.9654C36.1511 58.5877 34.1372 59.8325 31.8435 60.6996C29.5778 61.5667 27.2002 62.0002 24.7108 62.0002H0.459468V49.9585H24.7108C25.5219 49.9585 26.3331 49.8326 27.1443 49.5809C27.9834 49.3291 28.7247 48.9236 29.368 48.3641C30.0393 47.8047 30.5708 47.0914 30.9624 46.2243C31.382 45.3572 31.5918 44.3083 31.5918 43.0775C31.5918 41.9587 31.382 40.9796 30.9624 40.1405C30.5708 39.2734 30.0393 38.5601 29.368 38.0007C28.7247 37.4133 27.9834 36.9797 27.1443 36.7C26.3331 36.3923 25.5219 36.2385 24.7108 36.2385H0.459468L3.98388 1.83351H41.1161V13.8753H14.8089L13.718 24.1967H24.7108C27.2002 24.1967 29.5778 24.6303 31.8435 25.4974C34.1372 26.3645 36.1511 27.6233 37.8854 29.2736C39.6196 30.8959 41.0042 32.8819 42.0391 35.2315C43.0741 37.5531 43.5915 40.1685 43.5915 43.0775ZM86.8075 31.9169C86.8075 25.2317 85.6887 20.2667 83.451 17.022C81.2412 13.7774 78.1504 12.155 74.1784 12.155C70.2344 12.155 67.1715 13.7634 64.9898 16.9801C62.808 20.1968 61.7171 25.1757 61.7171 31.9169C61.7171 38.6021 62.808 43.567 64.9898 46.8117C67.1715 50.0564 70.2344 51.6788 74.1784 51.6788C76.1644 51.6788 77.9406 51.2872 79.507 50.504C81.0734 49.6928 82.388 48.476 83.451 46.8537C84.5418 45.2313 85.367 43.1894 85.9264 40.7279C86.5138 38.2384 86.8075 35.3014 86.8075 31.9169ZM98.2619 31.9169C98.2619 37.6231 97.6325 42.4482 96.3738 46.3921C95.1151 50.3361 93.3948 53.5249 91.2131 55.9584C89.0313 58.3919 86.4719 60.1541 83.5349 61.245C80.6258 62.3079 77.507 62.8394 74.1784 62.8394C70.8498 62.8394 67.717 62.2939 64.78 61.2031C61.8709 60.0842 59.3255 58.308 57.1437 55.8745C54.9899 53.413 53.2837 50.2242 52.025 46.3082C50.7662 42.3642 50.1369 37.5671 50.1369 31.9169C50.1369 26.2107 50.7662 21.3996 52.025 17.4836C53.2837 13.5396 54.9899 10.3508 57.1437 7.91732C59.3255 5.4838 61.8709 3.72159 64.78 2.6307C67.717 1.53981 70.8498 0.994368 74.1784 0.994368C77.507 0.994368 80.6258 1.5538 83.5349 2.67266C86.4719 3.76355 89.0313 5.53974 91.2131 8.00123C93.3948 10.4627 95.1151 13.6515 96.3738 17.5675C97.6325 21.4835 98.2619 26.2666 98.2619 31.9169ZM121.171 16.0151C121.171 13.5256 120.807 11.6935 120.08 10.5187C119.38 9.31589 118.359 8.71451 117.017 8.71451C115.73 8.71451 114.737 9.31589 114.038 10.5187C113.339 11.6935 112.989 13.5256 112.989 16.0151C112.989 18.4766 113.339 20.3087 114.038 21.5115C114.737 22.7142 115.73 23.3156 117.017 23.3156C118.359 23.3156 119.38 22.7142 120.08 21.5115C120.807 20.3087 121.171 18.4766 121.171 16.0151ZM129.142 16.0151C129.142 18.8122 128.821 21.1898 128.177 23.1478C127.562 25.0778 126.709 26.6442 125.618 27.847C124.527 29.0498 123.24 29.9169 121.758 30.4484C120.303 30.9798 118.723 31.2456 117.017 31.2456C115.338 31.2456 113.758 30.9658 112.276 30.4064C110.821 29.847 109.548 28.9659 108.457 27.7631C107.367 26.5324 106.499 24.952 105.856 23.0219C105.241 21.0919 104.933 18.7563 104.933 16.0151C104.933 13.2179 105.241 10.8543 105.856 8.92429C106.499 6.99426 107.367 5.42785 108.457 4.22508C109.548 3.0223 110.821 2.15519 112.276 1.62373C113.758 1.09227 115.338 0.826539 117.017 0.826539C118.723 0.826539 120.303 1.10625 121.758 1.66568C123.24 2.19714 124.527 3.06426 125.618 4.26704C126.709 5.46981 127.562 7.03622 128.177 8.96625C128.821 10.8963 129.142 13.2459 129.142 16.0151ZM119.45 62.0002H110.346L143.408 1.83351H152.513L119.45 62.0002ZM149.618 47.6509C149.618 45.1334 149.254 43.2873 148.527 42.1125C147.827 40.9377 146.806 40.3503 145.464 40.3503C144.177 40.3503 143.184 40.9377 142.485 42.1125C141.786 43.2873 141.436 45.1334 141.436 47.6509C141.436 50.0844 141.786 51.9025 142.485 53.1053C143.184 54.2801 144.177 54.8675 145.464 54.8675C146.806 54.8675 147.827 54.2801 148.527 53.1053C149.254 51.9025 149.618 50.0844 149.618 47.6509ZM157.589 47.6509C157.589 50.448 157.268 52.8116 156.624 54.7416C156.009 56.6717 155.156 58.2381 154.065 59.4409C152.974 60.6436 151.687 61.5107 150.205 62.0422C148.75 62.5737 147.17 62.8394 145.464 62.8394C143.786 62.8394 142.205 62.5597 140.723 62.0002C139.268 61.4688 137.995 60.6017 136.905 59.3989C135.814 58.1681 134.947 56.5878 134.303 54.6577C133.688 52.7277 133.38 50.3921 133.38 47.6509C133.38 44.8537 133.688 42.4901 134.303 40.5601C134.947 38.63 135.814 37.0636 136.905 35.8609C137.995 34.6581 139.268 33.791 140.723 33.2595C142.205 32.7001 143.786 32.4204 145.464 32.4204C147.17 32.4204 148.75 32.7001 150.205 33.2595C151.687 33.791 152.974 34.6721 154.065 35.9028C155.156 37.1056 156.009 38.672 156.624 40.602C157.268 42.5321 157.589 44.8817 157.589 47.6509Z"/>
</mask>
<path d="M43.5915 43.0775C43.5915 46.0145 43.0741 48.6578 42.0391 51.0074C41.0042 53.357 39.6196 55.343 37.8854 56.9654C36.1511 58.5877 34.1372 59.8325 31.8435 60.6996C29.5778 61.5667 27.2002 62.0002 24.7108 62.0002H0.459468V49.9585H24.7108C25.5219 49.9585 26.3331 49.8326 27.1443 49.5809C27.9834 49.3291 28.7247 48.9236 29.368 48.3641C30.0393 47.8047 30.5708 47.0914 30.9624 46.2243C31.382 45.3572 31.5918 44.3083 31.5918 43.0775C31.5918 41.9587 31.382 40.9796 30.9624 40.1405C30.5708 39.2734 30.0393 38.5601 29.368 38.0007C28.7247 37.4133 27.9834 36.9797 27.1443 36.7C26.3331 36.3923 25.5219 36.2385 24.7108 36.2385H0.459468L3.98388 1.83351H41.1161V13.8753H14.8089L13.718 24.1967H24.7108C27.2002 24.1967 29.5778 24.6303 31.8435 25.4974C34.1372 26.3645 36.1511 27.6233 37.8854 29.2736C39.6196 30.8959 41.0042 32.8819 42.0391 35.2315C43.0741 37.5531 43.5915 40.1685 43.5915 43.0775ZM86.8075 31.9169C86.8075 25.2317 85.6887 20.2667 83.451 17.022C81.2412 13.7774 78.1504 12.155 74.1784 12.155C70.2344 12.155 67.1715 13.7634 64.9898 16.9801C62.808 20.1968 61.7171 25.1757 61.7171 31.9169C61.7171 38.6021 62.808 43.567 64.9898 46.8117C67.1715 50.0564 70.2344 51.6788 74.1784 51.6788C76.1644 51.6788 77.9406 51.2872 79.507 50.504C81.0734 49.6928 82.388 48.476 83.451 46.8537C84.5418 45.2313 85.367 43.1894 85.9264 40.7279C86.5138 38.2384 86.8075 35.3014 86.8075 31.9169ZM98.2619 31.9169C98.2619 37.6231 97.6325 42.4482 96.3738 46.3921C95.1151 50.3361 93.3948 53.5249 91.2131 55.9584C89.0313 58.3919 86.4719 60.1541 83.5349 61.245C80.6258 62.3079 77.507 62.8394 74.1784 62.8394C70.8498 62.8394 67.717 62.2939 64.78 61.2031C61.8709 60.0842 59.3255 58.308 57.1437 55.8745C54.9899 53.413 53.2837 50.2242 52.025 46.3082C50.7662 42.3642 50.1369 37.5671 50.1369 31.9169C50.1369 26.2107 50.7662 21.3996 52.025 17.4836C53.2837 13.5396 54.9899 10.3508 57.1437 7.91732C59.3255 5.4838 61.8709 3.72159 64.78 2.6307C67.717 1.53981 70.8498 0.994368 74.1784 0.994368C77.507 0.994368 80.6258 1.5538 83.5349 2.67266C86.4719 3.76355 89.0313 5.53974 91.2131 8.00123C93.3948 10.4627 95.1151 13.6515 96.3738 17.5675C97.6325 21.4835 98.2619 26.2666 98.2619 31.9169ZM121.171 16.0151C121.171 13.5256 120.807 11.6935 120.08 10.5187C119.38 9.31589 118.359 8.71451 117.017 8.71451C115.73 8.71451 114.737 9.31589 114.038 10.5187C113.339 11.6935 112.989 13.5256 112.989 16.0151C112.989 18.4766 113.339 20.3087 114.038 21.5115C114.737 22.7142 115.73 23.3156 117.017 23.3156C118.359 23.3156 119.38 22.7142 120.08 21.5115C120.807 20.3087 121.171 18.4766 121.171 16.0151ZM129.142 16.0151C129.142 18.8122 128.821 21.1898 128.177 23.1478C127.562 25.0778 126.709 26.6442 125.618 27.847C124.527 29.0498 123.24 29.9169 121.758 30.4484C120.303 30.9798 118.723 31.2456 117.017 31.2456C115.338 31.2456 113.758 30.9658 112.276 30.4064C110.821 29.847 109.548 28.9659 108.457 27.7631C107.367 26.5324 106.499 24.952 105.856 23.0219C105.241 21.0919 104.933 18.7563 104.933 16.0151C104.933 13.2179 105.241 10.8543 105.856 8.92429C106.499 6.99426 107.367 5.42785 108.457 4.22508C109.548 3.0223 110.821 2.15519 112.276 1.62373C113.758 1.09227 115.338 0.826539 117.017 0.826539C118.723 0.826539 120.303 1.10625 121.758 1.66568C123.24 2.19714 124.527 3.06426 125.618 4.26704C126.709 5.46981 127.562 7.03622 128.177 8.96625C128.821 10.8963 129.142 13.2459 129.142 16.0151ZM119.45 62.0002H110.346L143.408 1.83351H152.513L119.45 62.0002ZM149.618 47.6509C149.618 45.1334 149.254 43.2873 148.527 42.1125C147.827 40.9377 146.806 40.3503 145.464 40.3503C144.177 40.3503 143.184 40.9377 142.485 42.1125C141.786 43.2873 141.436 45.1334 141.436 47.6509C141.436 50.0844 141.786 51.9025 142.485 53.1053C143.184 54.2801 144.177 54.8675 145.464 54.8675C146.806 54.8675 147.827 54.2801 148.527 53.1053C149.254 51.9025 149.618 50.0844 149.618 47.6509ZM157.589 47.6509C157.589 50.448 157.268 52.8116 156.624 54.7416C156.009 56.6717 155.156 58.2381 154.065 59.4409C152.974 60.6436 151.687 61.5107 150.205 62.0422C148.75 62.5737 147.17 62.8394 145.464 62.8394C143.786 62.8394 142.205 62.5597 140.723 62.0002C139.268 61.4688 137.995 60.6017 136.905 59.3989C135.814 58.1681 134.947 56.5878 134.303 54.6577C133.688 52.7277 133.38 50.3921 133.38 47.6509C133.38 44.8537 133.688 42.4901 134.303 40.5601C134.947 38.63 135.814 37.0636 136.905 35.8609C137.995 34.6581 139.268 33.791 140.723 33.2595C142.205 32.7001 143.786 32.4204 145.464 32.4204C147.17 32.4204 148.75 32.7001 150.205 33.2595C151.687 33.791 152.974 34.6721 154.065 35.9028C155.156 37.1056 156.009 38.672 156.624 40.602C157.268 42.5321 157.589 44.8817 157.589 47.6509Z" fill="#E883FF"/>
<path d="M37.8854 56.9654L39.8469 59.0622L37.8854 56.9654ZM31.8435 60.6996L30.8281 58.0138L30.8172 58.018L31.8435 60.6996ZM0.459468 62.0002H-2.41182V64.8715H0.459468V62.0002ZM0.459468 49.9585V47.0872H-2.41182V49.9585H0.459468ZM27.1443 49.5809L26.3192 46.8307L26.3062 46.8346L26.2932 46.8386L27.1443 49.5809ZM29.368 48.3641L27.5299 46.1583L27.5067 46.1777L27.484 46.1974L29.368 48.3641ZM30.9624 46.2243L28.3778 44.9737L28.3612 45.0079L28.3456 45.0425L30.9624 46.2243ZM30.9624 40.1405L28.3456 41.3223L28.3689 41.3739L28.3942 41.4246L30.9624 40.1405ZM29.368 38.0007L27.432 40.1211L27.48 40.1649L27.5299 40.2065L29.368 38.0007ZM27.1443 36.7L26.126 39.3847L26.1807 39.4054L26.2363 39.424L27.1443 36.7ZM0.459468 36.2385L-2.39687 35.9459L-2.72098 39.1098H0.459468V36.2385ZM3.98388 1.83351V-1.03777H1.3917L1.12754 1.54091L3.98388 1.83351ZM41.1161 1.83351H43.9874V-1.03777H41.1161V1.83351ZM41.1161 13.8753V16.7465H43.9874V13.8753H41.1161ZM14.8089 13.8753V11.004H12.225L11.9535 13.5735L14.8089 13.8753ZM13.718 24.1967L10.8626 23.895L10.5272 27.068H13.718V24.1967ZM31.8435 25.4974L30.8172 28.179L30.8282 28.1832L31.8435 25.4974ZM37.8854 29.2736L35.906 31.3536L35.9149 31.362L35.9238 31.3704L37.8854 29.2736ZM42.0391 35.2315L39.4114 36.3889L39.4166 36.4006L42.0391 35.2315ZM43.5915 43.0775H40.7203C40.7203 45.6731 40.2642 47.914 39.4115 49.85L42.0391 51.0074L44.6668 52.1649C45.8839 49.4016 46.4628 46.3559 46.4628 43.0775H43.5915ZM42.0391 51.0074L39.4115 49.85C38.52 51.8738 37.3525 53.532 35.9238 54.8686L37.8854 56.9654L39.8469 59.0622C41.8867 57.154 43.4883 54.8403 44.6668 52.1649L42.0391 51.0074ZM37.8854 56.9654L35.9238 54.8686C34.4724 56.2263 32.7826 57.2749 30.8282 58.0138L31.8435 60.6996L32.8589 63.3853C35.4917 62.39 37.8298 60.9492 39.8469 59.0622L37.8854 56.9654ZM31.8435 60.6996L30.8172 58.018C28.8878 58.7564 26.8588 59.129 24.7108 59.129V62.0002V64.8715C27.5417 64.8715 30.2678 64.377 32.8698 63.3812L31.8435 60.6996ZM24.7108 62.0002V59.129H0.459468V62.0002V64.8715H24.7108V62.0002ZM0.459468 62.0002H3.33076V49.9585H0.459468H-2.41182V62.0002H0.459468ZM0.459468 49.9585V52.8298H24.7108V49.9585V47.0872H0.459468V49.9585ZM24.7108 49.9585V52.8298C25.8238 52.8298 26.9216 52.6564 27.9953 52.3232L27.1443 49.5809L26.2932 46.8386C25.7446 47.0089 25.2201 47.0872 24.7108 47.0872V49.9585ZM27.1443 49.5809L27.9694 52.3311C29.1878 51.9655 30.2926 51.3652 31.2521 50.5308L29.368 48.3641L27.484 46.1974C27.1568 46.4819 26.779 46.6928 26.3192 46.8307L27.1443 49.5809ZM29.368 48.3641L31.2062 50.5699C32.24 49.7084 33.025 48.6333 33.5792 47.4061L30.9624 46.2243L28.3456 45.0425C28.1166 45.5495 27.8387 45.901 27.5299 46.1583L29.368 48.3641ZM30.9624 46.2243L33.547 47.4749C34.2001 46.1252 34.4631 44.625 34.4631 43.0775H31.5918H28.7205C28.7205 43.9915 28.5638 44.5892 28.3778 44.9737L30.9624 46.2243ZM31.5918 43.0775H34.4631C34.4631 41.598 34.1843 40.164 33.5306 38.8564L30.9624 40.1405L28.3942 41.4246C28.5796 41.7953 28.7205 42.3193 28.7205 43.0775H31.5918ZM30.9624 40.1405L33.5792 38.9587C33.025 37.7315 32.24 36.6564 31.2062 35.7949L29.368 38.0007L27.5299 40.2065C27.8387 40.4638 28.1166 40.8153 28.3456 41.3223L30.9624 40.1405ZM29.368 38.0007L31.3041 35.8803C30.3594 35.0177 29.2665 34.3808 28.0523 33.9761L27.1443 36.7L26.2363 39.424C26.7004 39.5786 27.09 39.8088 27.432 40.1211L29.368 38.0007ZM27.1443 36.7L28.1626 34.0154C27.0489 33.5929 25.8934 33.3672 24.7108 33.3672V36.2385V39.1098C25.1504 39.1098 25.6173 39.1917 26.126 39.3847L27.1443 36.7ZM24.7108 36.2385V33.3672H0.459468V36.2385V39.1098H24.7108V36.2385ZM0.459468 36.2385L3.31581 36.5311L6.84022 2.12611L3.98388 1.83351L1.12754 1.54091L-2.39687 35.9459L0.459468 36.2385ZM3.98388 1.83351V4.7048H41.1161V1.83351V-1.03777H3.98388V1.83351ZM41.1161 1.83351H38.2448V13.8753H41.1161H43.9874V1.83351H41.1161ZM41.1161 13.8753V11.004H14.8089V13.8753V16.7465H41.1161V13.8753ZM14.8089 13.8753L11.9535 13.5735L10.8626 23.895L13.718 24.1967L16.5733 24.4985L17.6642 14.177L14.8089 13.8753ZM13.718 24.1967V27.068H24.7108V24.1967V21.3255H13.718V24.1967ZM24.7108 24.1967V27.068C26.8588 27.068 28.8878 27.4406 30.8172 28.179L31.8435 25.4974L32.8698 22.8158C30.2678 21.82 27.5417 21.3255 24.7108 21.3255V24.1967ZM31.8435 25.4974L30.8282 28.1832C32.7722 28.9181 34.4563 29.974 35.906 31.3536L37.8854 29.2736L39.8647 27.1936C37.846 25.2725 35.5022 23.8109 32.8589 22.8116L31.8435 25.4974ZM37.8854 29.2736L35.9238 31.3704C37.3525 32.7069 38.52 34.3651 39.4115 36.3889L42.0391 35.2315L44.6668 34.0741C43.4883 31.3987 41.8867 29.0849 39.8469 27.1768L37.8854 29.2736ZM42.0391 35.2315L39.4166 36.4006C40.2655 38.3048 40.7203 40.5133 40.7203 43.0775H43.5915H46.4628C46.4628 39.8236 45.8827 36.8015 44.6616 34.0624L42.0391 35.2315ZM83.451 17.022L81.0778 18.6383L81.0825 18.6452L81.0873 18.6522L83.451 17.022ZM64.9898 16.9801L67.366 18.5918L64.9898 16.9801ZM79.507 50.504L80.7911 53.0721L80.8093 53.063L80.8273 53.0536L79.507 50.504ZM83.451 46.8537L81.0682 45.2515L81.0587 45.2658L81.0492 45.2801L83.451 46.8537ZM85.9264 40.7279L83.1319 40.0685L83.1292 40.08L83.1265 40.0916L85.9264 40.7279ZM83.5349 61.245L84.5203 63.9419L84.5275 63.9393L84.5346 63.9366L83.5349 61.245ZM64.78 61.2031L63.7492 63.883L63.7647 63.8889L63.7802 63.8947L64.78 61.2031ZM57.1437 55.8745L54.9829 57.7652L54.9943 57.7783L55.0059 57.7912L57.1437 55.8745ZM52.025 46.3082L49.2896 47.1812L49.2914 47.1869L52.025 46.3082ZM52.025 17.4836L54.7585 18.3622L54.7603 18.3566L52.025 17.4836ZM57.1437 7.91732L55.0059 6.0006L54.9997 6.00746L54.9936 6.01435L57.1437 7.91732ZM64.78 2.6307L63.7802 -0.0609283L63.7718 -0.0577679L64.78 2.6307ZM83.5349 2.67266L82.5041 5.35256L82.5196 5.35851L82.5351 5.36427L83.5349 2.67266ZM86.8075 31.9169H89.6788C89.6788 25.0122 88.5419 19.3464 85.8146 15.3919L83.451 17.022L81.0873 18.6522C82.8355 21.1871 83.9362 25.4512 83.9362 31.9169H86.8075ZM83.451 17.022L85.8242 15.4058C83.0721 11.3649 79.0869 9.28371 74.1784 9.28371V12.155V15.0263C77.2138 15.0263 79.4103 16.1898 81.0778 18.6383L83.451 17.022ZM74.1784 12.155V9.28371C69.2993 9.28371 65.339 11.35 62.6135 15.3684L64.9898 16.9801L67.366 18.5918C69.0041 16.1767 71.1695 15.0263 74.1784 15.0263V12.155ZM64.9898 16.9801L62.6135 15.3684C59.9491 19.2966 58.8458 24.9744 58.8458 31.9169H61.7171H64.5884C64.5884 25.3771 65.6669 21.097 67.366 18.5918L64.9898 16.9801ZM61.7171 31.9169H58.8458C58.8458 38.8125 59.9522 44.4657 62.607 48.4139L64.9898 46.8117L67.3725 45.2095C65.6637 42.6683 64.5884 38.3917 64.5884 31.9169H61.7171ZM64.9898 46.8117L62.607 48.4139C65.3278 52.4602 69.2884 54.55 74.1784 54.55V51.6788V48.8075C71.1804 48.8075 69.0152 47.6526 67.3725 45.2095L64.9898 46.8117ZM74.1784 51.6788V54.55C76.55 54.55 78.7754 54.0799 80.7911 53.0721L79.507 50.504L78.2229 47.9358C77.1057 48.4944 75.7788 48.8075 74.1784 48.8075V51.6788ZM79.507 50.504L80.8273 53.0536C82.8748 51.9934 84.5468 50.4204 85.8527 48.4272L83.451 46.8537L81.0492 45.2801C80.2293 46.5317 79.272 47.3922 78.1866 47.9543L79.507 50.504ZM83.451 46.8537L85.8337 48.4558C87.1701 46.4683 88.1102 44.075 88.7263 41.3642L85.9264 40.7279L83.1265 40.0916C82.6238 42.3038 81.9136 43.9943 81.0682 45.2515L83.451 46.8537ZM85.9264 40.7279L88.721 41.3873C89.3727 38.6252 89.6788 35.4567 89.6788 31.9169H86.8075H83.9362C83.9362 35.1461 83.655 37.8516 83.1319 40.0685L85.9264 40.7279ZM98.2619 31.9169H95.3906C95.3906 37.4304 94.7802 41.9415 93.6384 45.5191L96.3738 46.3921L99.1092 47.2651C100.485 42.9548 101.133 37.8158 101.133 31.9169H98.2619ZM96.3738 46.3921L93.6384 45.5191C92.4712 49.1764 90.9244 51.9791 89.0752 54.0417L91.2131 55.9584L93.3509 57.8751C95.8653 55.0706 97.7589 51.4958 99.1092 47.2651L96.3738 46.3921ZM91.2131 55.9584L89.0752 54.0417C87.1904 56.1439 85.0164 57.6318 82.5351 58.5534L83.5349 61.245L84.5346 63.9366C87.9273 62.6765 90.8721 60.6399 93.3509 57.8751L91.2131 55.9584ZM83.5349 61.245L82.5495 58.5481C79.979 59.4873 77.1961 59.9681 74.1784 59.9681V62.8394V65.7107C77.8179 65.7107 81.2727 65.1285 84.5203 63.9419L83.5349 61.245ZM74.1784 62.8394V59.9681C71.1696 59.9681 68.3773 59.4762 65.7797 58.5114L64.78 61.2031L63.7802 63.8947C67.0567 65.1116 70.53 65.7107 74.1784 65.7107V62.8394ZM64.78 61.2031L65.8107 58.5232C63.3467 57.5755 61.1752 56.0698 59.2816 53.9578L57.1437 55.8745L55.0059 57.7912C57.4759 60.5462 60.3952 62.5929 63.7492 63.883L64.78 61.2031ZM57.1437 55.8745L59.3046 53.9837C57.466 51.8825 55.9272 49.0655 54.7585 45.4296L52.025 46.3082L49.2914 47.1869C50.6402 51.383 52.5139 54.9435 54.9829 57.7652L57.1437 55.8745ZM52.025 46.3082L54.7603 45.4352C53.6178 41.8553 53.0082 37.3711 53.0082 31.9169H50.1369H47.2656C47.2656 37.7632 47.9147 42.8732 49.2896 47.1812L52.025 46.3082ZM50.1369 31.9169H53.0082C53.0082 26.4024 53.6188 21.9081 54.7585 18.3622L52.025 17.4836L49.2914 16.6049C47.9137 20.8911 47.2656 26.0189 47.2656 31.9169H50.1369ZM52.025 17.4836L54.7603 18.3566C55.9297 14.6925 57.4665 11.885 59.2939 9.82029L57.1437 7.91732L54.9936 6.01435C52.5134 8.81669 50.6377 12.3867 49.2896 16.6106L52.025 17.4836ZM57.1437 7.91732L59.2816 9.83403C61.1711 7.72656 63.335 6.2391 65.7881 5.31917L64.78 2.6307L63.7718 -0.0577679C60.4069 1.20408 57.48 3.24103 55.0059 6.0006L57.1437 7.91732ZM64.78 2.6307L65.7797 5.32232C68.3773 4.35751 71.1696 3.86565 74.1784 3.86565V0.994368V-1.87692C70.53 -1.87692 67.0567 -1.27789 63.7802 -0.060915L64.78 2.6307ZM74.1784 0.994368V3.86565C77.1787 3.86565 79.9458 4.3686 82.5041 5.35256L83.5349 2.67266L84.5656 -0.00724411C81.3058 -1.261 77.8353 -1.87692 74.1784 -1.87692V0.994368ZM83.5349 2.67266L82.5351 5.36427C85.0081 6.28282 87.179 7.77879 89.0643 9.90578L91.2131 8.00123L93.3618 6.09669C90.8835 3.30069 87.9356 1.24427 84.5346 -0.018959L83.5349 2.67266ZM91.2131 8.00123L89.0643 9.90578C90.9249 12.0049 92.4737 14.817 93.6403 18.4461L96.3738 17.5675L99.1073 16.6889C97.7564 12.486 95.8648 8.92059 93.3618 6.09669L91.2131 8.00123ZM96.3738 17.5675L93.6403 18.4461C94.7807 21.9943 95.3906 26.4618 95.3906 31.9169H98.2619H101.133C101.133 26.0715 100.484 20.9727 99.1073 16.6889L96.3738 17.5675ZM120.08 10.5187L117.597 11.9618L117.617 11.9962L117.638 12.03L120.08 10.5187ZM114.038 10.5187L116.505 11.9873L116.513 11.9746L116.52 11.9618L114.038 10.5187ZM120.08 21.5115L117.623 20.0258L117.61 20.047L117.597 20.0683L120.08 21.5115ZM128.177 23.1478L125.45 22.2515L125.446 22.2635L125.442 22.2756L128.177 23.1478ZM121.758 30.4484L120.789 27.7455L120.781 27.7485L120.773 27.7515L121.758 30.4484ZM112.276 30.4064L111.245 33.0863L111.253 33.0896L111.262 33.0928L112.276 30.4064ZM108.457 27.7631L106.309 29.6677L106.32 29.6799L106.331 29.6921L108.457 27.7631ZM105.856 23.0219L103.121 23.8942L103.126 23.9121L103.132 23.9299L105.856 23.0219ZM105.856 8.92429L103.132 8.01631L103.126 8.03415L103.121 8.05207L105.856 8.92429ZM112.276 1.62373L111.307 -1.07913L111.298 -1.07618L111.29 -1.07317L112.276 1.62373ZM121.758 1.66568L120.727 4.34559L120.758 4.35742L120.789 4.36854L121.758 1.66568ZM128.177 8.96625L125.442 9.83847L125.448 9.85639L125.453 9.87423L128.177 8.96625ZM119.45 62.0002V64.8715H121.149L121.967 63.383L119.45 62.0002ZM110.346 62.0002L107.829 60.6175L105.492 64.8715H110.346V62.0002ZM143.408 1.83351V-1.03777H141.709L140.892 0.450729L143.408 1.83351ZM152.513 1.83351L155.029 3.2163L157.367 -1.03777H152.513V1.83351ZM148.527 42.1125L146.059 43.5811L146.072 43.6026L146.085 43.6238L148.527 42.1125ZM142.485 53.1053L140.003 54.5485L140.01 54.5612L140.018 54.5739L142.485 53.1053ZM148.527 53.1053L146.07 51.6196L146.064 51.6281L146.059 51.6367L148.527 53.1053ZM156.624 54.7416L153.9 53.8337L153.895 53.8515L153.889 53.8694L156.624 54.7416ZM150.205 62.0422L149.236 59.3393L149.228 59.3423L149.22 59.3453L150.205 62.0422ZM140.723 62.0002L141.736 59.3139L141.722 59.3085L141.708 59.3033L140.723 62.0002ZM136.905 59.3989L134.756 61.3034L134.767 61.3157L134.778 61.3279L136.905 59.3989ZM134.303 54.6577L131.568 55.5299L131.573 55.5479L131.579 55.5657L134.303 54.6577ZM134.303 40.5601L131.579 39.6521L131.573 39.6699L131.568 39.6879L134.303 40.5601ZM140.723 33.2595L141.708 35.9564L141.722 35.9512L141.736 35.9459L140.723 33.2595ZM150.205 33.2595L149.174 35.9394L149.205 35.9512L149.236 35.9624L150.205 33.2595ZM154.065 35.9028L151.916 37.8074L151.927 37.8196L151.938 37.8318L154.065 35.9028ZM156.624 40.602L153.889 41.4743L153.895 41.4922L153.9 41.51L156.624 40.602ZM121.171 16.0151H124.042C124.042 13.3607 123.675 10.8715 122.521 9.00735L120.08 10.5187L117.638 12.03C117.939 12.5154 118.299 13.6905 118.299 16.0151H121.171ZM120.08 10.5187L122.562 9.0755C121.372 7.02803 119.427 5.84322 117.017 5.84322V8.71451V11.5858C117.245 11.5858 117.32 11.6321 117.332 11.6395C117.35 11.6498 117.452 11.7117 117.597 11.9618L120.08 10.5187ZM117.017 8.71451V5.84322C114.61 5.84322 112.718 7.07604 111.556 9.0755L114.038 10.5187L116.52 11.9618C116.676 11.6938 116.783 11.6282 116.794 11.6215C116.804 11.6157 116.816 11.6097 116.839 11.6036C116.864 11.5969 116.92 11.5858 117.017 11.5858V8.71451ZM114.038 10.5187L111.571 9.05005C110.468 10.9018 110.118 13.3715 110.118 16.0151H112.989H115.86C115.86 13.6797 116.209 12.4851 116.505 11.9873L114.038 10.5187ZM112.989 16.0151H110.118C110.118 18.6464 110.473 21.0931 111.556 22.9546L114.038 21.5115L116.52 20.0683C116.204 19.5243 115.86 18.3067 115.86 16.0151H112.989ZM114.038 21.5115L111.556 22.9546C112.718 24.9541 114.61 26.1869 117.017 26.1869V23.3156V20.4444C116.92 20.4444 116.864 20.4332 116.839 20.4266C116.816 20.4204 116.804 20.4144 116.794 20.4086C116.783 20.4019 116.676 20.3363 116.52 20.0683L114.038 21.5115ZM117.017 23.3156V26.1869C119.427 26.1869 121.372 25.0021 122.562 22.9546L120.08 21.5115L117.597 20.0683C117.452 20.3184 117.35 20.3803 117.332 20.3906C117.32 20.398 117.245 20.4444 117.017 20.4444V23.3156ZM120.08 21.5115L122.537 22.9971C123.67 21.1232 124.042 18.6574 124.042 16.0151H121.171H118.299C118.299 18.2957 117.944 19.4942 117.623 20.0258L120.08 21.5115ZM129.142 16.0151H126.271C126.271 18.6089 125.971 20.6653 125.45 22.2515L128.177 23.1478L130.905 24.0441C131.671 21.7143 132.014 19.0156 132.014 16.0151H129.142ZM128.177 23.1478L125.442 22.2756C124.921 23.9081 124.246 25.0855 123.491 25.918L125.618 27.847L127.745 29.776C129.171 28.203 130.203 26.2476 130.913 24.02L128.177 23.1478ZM125.618 27.847L123.491 25.918C122.707 26.783 121.814 27.3781 120.789 27.7455L121.758 30.4484L122.727 33.1512C124.667 32.4557 126.348 31.3166 127.745 29.776L125.618 27.847ZM121.758 30.4484L120.773 27.7515C119.664 28.1564 118.421 28.3743 117.017 28.3743V31.2456V34.1168C119.025 34.1168 120.943 33.8033 122.743 33.1453L121.758 30.4484ZM117.017 31.2456V28.3743C115.664 28.3743 114.429 28.1501 113.289 27.72L112.276 30.4064L111.262 33.0928C113.087 33.7816 115.013 34.1168 117.017 34.1168V31.2456ZM112.276 30.4064L113.306 27.7265C112.289 27.3351 111.387 26.7187 110.584 25.8341L108.457 27.7631L106.331 29.6921C107.71 31.213 109.354 32.3589 111.245 33.0863L112.276 30.4064ZM108.457 27.7631L110.606 25.8586C109.826 24.9778 109.129 23.761 108.58 22.114L105.856 23.0219L103.132 23.9299C103.87 26.143 104.908 28.0869 106.309 29.6677L108.457 27.7631ZM105.856 23.0219L108.592 22.1497C108.092 20.5814 107.804 18.5575 107.804 16.0151H104.933H102.062C102.062 18.9551 102.39 21.6024 103.121 23.8942L105.856 23.0219ZM104.933 16.0151H107.804C107.804 13.4098 108.093 11.3601 108.592 9.79651L105.856 8.92429L103.121 8.05207C102.388 10.3486 102.062 13.026 102.062 16.0151H104.933ZM105.856 8.92429L108.58 9.83227C109.128 8.18774 109.82 6.99702 110.584 6.15405L108.457 4.22508L106.331 2.2961C104.913 3.85869 103.871 5.80078 103.132 8.01631L105.856 8.92429ZM108.457 4.22508L110.584 6.15405C111.378 5.27867 112.265 4.68456 113.261 4.32063L112.276 1.62373L111.29 -1.07317C109.377 -0.374189 107.718 0.765934 106.331 2.2961L108.457 4.22508ZM112.276 1.62373L113.245 4.32658C114.396 3.91371 115.647 3.69783 117.017 3.69783V0.826538V-2.04475C115.03 -2.04475 113.12 -1.72917 111.307 -1.07913L112.276 1.62373ZM117.017 0.826538V3.69783C118.404 3.69783 119.631 3.92415 120.727 4.34559L121.758 1.66568L122.789 -1.01422C120.975 -1.71165 119.042 -2.04475 117.017 -2.04475V0.826538ZM121.758 1.66568L120.789 4.36854C121.814 4.73591 122.707 5.33105 123.491 6.19601L125.618 4.26703L127.745 2.33806C126.348 0.797476 124.667 -0.341629 122.727 -1.03717L121.758 1.66568ZM125.618 4.26703L123.491 6.19601C124.246 7.02857 124.921 8.20597 125.442 9.83847L128.177 8.96625L130.913 8.09403C130.203 5.86646 129.171 3.91105 127.745 2.33806L125.618 4.26703ZM128.177 8.96625L125.453 9.87423C125.971 11.4272 126.271 13.4509 126.271 16.0151H129.142H132.014C132.014 13.0409 131.67 10.3654 130.901 8.05827L128.177 8.96625ZM119.45 62.0002V59.129H110.346V62.0002V64.8715H119.45V62.0002ZM110.346 62.0002L112.862 63.383L145.924 3.2163L143.408 1.83351L140.892 0.450729L107.829 60.6175L110.346 62.0002ZM143.408 1.83351V4.7048H152.513V1.83351V-1.03777H143.408V1.83351ZM152.513 1.83351L149.996 0.450729L116.934 60.6175L119.45 62.0002L121.967 63.383L155.029 3.2163L152.513 1.83351ZM149.618 47.6509H152.489C152.489 44.976 152.124 42.4688 150.968 40.6012L148.527 42.1125L146.085 43.6238C146.384 44.1058 146.746 45.2909 146.746 47.6509H149.618ZM148.527 42.1125L150.994 40.6439C149.789 38.6189 147.841 37.479 145.464 37.479V40.3503V43.2216C145.704 43.2216 145.788 43.2699 145.805 43.2796C145.824 43.2907 145.921 43.3483 146.059 43.5811L148.527 42.1125ZM145.464 40.3503V37.479C143.09 37.479 141.195 38.6656 140.018 40.6439L142.485 42.1125L144.952 43.5811C145.101 43.3304 145.204 43.2694 145.216 43.2621C145.22 43.2596 145.274 43.2216 145.464 43.2216V40.3503ZM142.485 42.1125L140.018 40.6439C138.913 42.499 138.565 44.9865 138.565 47.6509H141.436H144.307C144.307 45.2804 144.658 44.0756 144.952 43.5811L142.485 42.1125ZM141.436 47.6509H138.565C138.565 50.2613 138.922 52.6905 140.003 54.5485L142.485 53.1053L144.967 51.6621C144.649 51.1146 144.307 49.9074 144.307 47.6509H141.436ZM142.485 53.1053L140.018 54.5739C141.195 56.5522 143.09 57.7388 145.464 57.7388V54.8675V51.9962C145.274 51.9962 145.22 51.9582 145.216 51.9557C145.204 51.9484 145.101 51.8874 144.952 51.6367L142.485 53.1053ZM145.464 54.8675V57.7388C147.841 57.7388 149.789 56.5989 150.994 54.5739L148.527 53.1053L146.059 51.6367C145.921 51.8695 145.824 51.9271 145.805 51.9382C145.788 51.9479 145.704 51.9962 145.464 51.9962V54.8675ZM148.527 53.1053L150.984 54.591C152.115 52.7207 152.489 50.2726 152.489 47.6509H149.618H146.746C146.746 49.8961 146.393 51.0844 146.07 51.6196L148.527 53.1053ZM157.589 47.6509H154.718C154.718 50.2466 154.417 52.2832 153.9 53.8337L156.624 54.7416L159.348 55.6496C160.118 53.34 160.461 50.6495 160.461 47.6509H157.589ZM156.624 54.7416L153.889 53.8694C153.368 55.5019 152.693 56.6793 151.938 57.5119L154.065 59.4408L156.192 61.3698C157.619 59.7968 158.65 57.8414 159.36 55.6139L156.624 54.7416ZM154.065 59.4408L151.938 57.5119C151.154 58.3768 150.261 58.972 149.236 59.3393L150.205 62.0422L151.174 64.7451C153.114 64.0495 154.795 62.9104 156.192 61.3698L154.065 59.4408ZM150.205 62.0422L149.22 59.3453C148.111 59.7502 146.868 59.9681 145.464 59.9681V62.8394V65.7107C147.472 65.7107 149.39 65.3971 151.19 64.7391L150.205 62.0422ZM145.464 62.8394V59.9681C144.111 59.9681 142.876 59.7439 141.736 59.3139L140.723 62.0002L139.709 64.6866C141.534 65.3754 143.46 65.7107 145.464 65.7107V62.8394ZM140.723 62.0002L141.708 59.3033C140.712 58.9394 139.825 58.3453 139.031 57.4699L136.905 59.3989L134.778 61.3279C136.166 62.858 137.824 63.9982 139.737 64.6971L140.723 62.0002ZM136.905 59.3989L139.053 57.4943C138.273 56.6136 137.576 55.3967 137.027 53.7497L134.303 54.6577L131.579 55.5657C132.317 57.7788 133.355 59.7227 134.756 61.3034L136.905 59.3989ZM134.303 54.6577L137.039 53.7855C136.539 52.2172 136.251 50.1933 136.251 47.6509H133.38H130.509C130.509 50.5908 130.837 53.2382 131.568 55.5299L134.303 54.6577ZM133.38 47.6509H136.251C136.251 45.0456 136.54 42.9958 137.039 41.4323L134.303 40.5601L131.568 39.6879C130.835 41.9844 130.509 44.6618 130.509 47.6509H133.38ZM134.303 40.5601L137.027 41.4681C137.575 39.8235 138.267 38.6328 139.031 37.7898L136.905 35.8609L134.778 33.9319C133.36 35.4945 132.318 37.4366 131.579 39.6521L134.303 40.5601ZM136.905 35.8609L139.031 37.7898C139.825 36.9145 140.712 36.3203 141.708 35.9564L140.723 33.2595L139.737 30.5626C137.824 31.2616 136.166 32.4017 134.778 33.9319L136.905 35.8609ZM140.723 33.2595L141.736 35.9459C142.876 35.5158 144.111 35.2917 145.464 35.2917V32.4204V29.5491C143.46 29.5491 141.534 29.8843 139.709 30.5731L140.723 33.2595ZM145.464 32.4204V35.2917C146.851 35.2917 148.079 35.518 149.174 35.9394L150.205 33.2595L151.236 30.5796C149.422 29.8822 147.489 29.5491 145.464 29.5491V32.4204ZM150.205 33.2595L149.236 35.9624C150.244 36.3237 151.131 36.921 151.916 37.8074L154.065 35.9028L156.214 33.9983C154.818 32.4231 153.131 31.2582 151.174 30.5567L150.205 33.2595ZM154.065 35.9028L151.938 37.8318C152.693 38.6644 153.368 39.8418 153.889 41.4743L156.624 40.602L159.36 39.7298C158.65 37.5022 157.619 35.5468 156.192 33.9738L154.065 35.9028ZM156.624 40.602L153.9 41.51C154.418 43.063 154.718 45.0867 154.718 47.6509H157.589H160.461C160.461 44.6767 160.117 42.0012 159.348 39.6941L156.624 40.602Z" fill="#DD00FF" mask="url(#path-1-inside-1_2122_603)"/>
</svg>
