<svg width="185" height="96" viewBox="0 0 185 96" fill="none" xmlns="http://www.w3.org/2000/svg">
<mask id="path-1-inside-1_2122_945" fill="white">
<path d="M67.7074 44H59.0918V13.1524C59.0918 12.5499 58.9713 11.9875 58.7303 11.4654C58.5093 10.9432 58.1981 10.4913 57.7964 10.1098C57.4148 9.7081 56.9629 9.39681 56.4408 9.1759C55.9186 8.95498 55.3563 8.84453 54.7538 8.84453C54.1513 8.84453 53.589 8.95498 53.0668 9.1759C52.5447 9.39681 52.0828 9.7081 51.6811 10.1098C51.2995 10.4913 50.9983 10.9432 50.7774 11.4654C50.5564 11.9875 50.446 12.5499 50.446 13.1524V44H41.8002V13.1524C41.8002 12.5499 41.6897 11.9875 41.4688 11.4654C41.2479 10.9432 40.9366 10.4913 40.535 10.1098C40.1534 9.7081 39.7015 9.39681 39.1794 9.1759C38.6572 8.95498 38.0949 8.84453 37.4924 8.84453C36.8899 8.84453 36.3276 8.95498 35.8054 9.1759C35.2832 9.39681 34.8213 9.7081 34.4197 10.1098C34.0381 10.4913 33.7368 10.9432 33.5159 11.4654C33.295 11.9875 33.1846 12.5499 33.1846 13.1524V44H24.5388V13.1524C24.5388 11.365 24.8701 9.68802 25.5329 8.12153C26.2157 6.53497 27.1395 5.15928 28.3044 3.99446C29.4893 2.80955 30.865 1.88573 32.4314 1.22299C34.018 0.540162 35.705 0.198749 37.4924 0.198749C39.099 0.198749 40.6454 0.489954 42.1316 1.07236C43.6177 1.63469 44.9533 2.4581 46.1382 3.54259C47.3231 2.4581 48.6485 1.63469 50.1146 1.07236C51.6008 0.489954 53.1472 0.198749 54.7538 0.198749C56.5412 0.198749 58.2181 0.540162 59.7846 1.22299C61.3712 1.88573 62.7469 2.80955 63.9117 3.99446C65.0966 5.15928 66.0204 6.53497 66.6832 8.12153C67.366 9.68802 67.7074 11.365 67.7074 13.1524V44ZM105.393 27.5821C105.393 29.992 104.962 32.2413 104.098 34.33C103.234 36.3985 102.06 38.196 100.573 39.7223C99.0873 41.2285 97.34 42.4235 95.3317 43.3071C93.3435 44.1707 91.2046 44.6025 88.9152 44.6025C86.6458 44.6025 84.5069 44.1707 82.4986 43.3071C80.5104 42.4235 78.7632 41.2285 77.2569 39.7223C75.7708 38.196 74.5959 36.3985 73.7323 34.33C72.8688 32.2413 72.437 29.992 72.437 27.5821C72.437 25.1319 72.8688 22.8625 73.7323 20.7739C74.5959 18.6852 75.7708 16.8878 77.2569 15.3816C78.7632 13.8553 80.5104 12.6603 82.4986 11.7967C84.5069 10.9332 86.6458 10.5014 88.9152 10.5014C91.2046 10.5014 93.3435 10.9131 95.3317 11.7365C97.34 12.5398 99.0873 13.6946 100.573 15.2008C102.06 16.687 103.234 18.4844 104.098 20.5931C104.962 22.6818 105.393 25.0114 105.393 27.5821ZM97.1091 27.5821C97.1091 26.2566 96.8882 25.0616 96.4463 23.9972C96.0246 22.9127 95.4422 21.9889 94.6991 21.2258C93.956 20.4425 93.0824 19.8501 92.0783 19.4484C91.0942 19.0267 90.0398 18.8158 88.9152 18.8158C87.7905 18.8158 86.7261 19.0267 85.722 19.4484C84.7379 19.8501 83.8743 20.4425 83.1312 21.2258C82.4082 21.9889 81.8359 22.9127 81.4141 23.9972C80.9924 25.0616 80.7815 26.2566 80.7815 27.5821C80.7815 28.8272 80.9924 29.982 81.4141 31.0464C81.8359 32.1108 82.4082 33.0346 83.1312 33.8179C83.8743 34.6011 84.7379 35.2237 85.722 35.6856C86.7261 36.1274 87.7905 36.3483 88.9152 36.3483C90.0398 36.3483 91.0942 36.1375 92.0783 35.7157C93.0824 35.294 93.956 34.7015 94.6991 33.9384C95.4422 33.1752 96.0246 32.2514 96.4463 31.1669C96.8882 30.0824 97.1091 28.8875 97.1091 27.5821ZM118.166 44H109.942V11.7365H111.93L114.642 15.5623C115.967 14.3573 117.473 13.4335 119.16 12.7909C120.847 12.1281 122.595 11.7967 124.402 11.7967H131.662V19.9906H124.402C123.538 19.9906 122.725 20.1513 121.962 20.4726C121.199 20.794 120.536 21.2358 119.974 21.7981C119.411 22.3605 118.97 23.0232 118.648 23.7864C118.327 24.5495 118.166 25.3629 118.166 26.2265V44ZM147.719 36.1073C148.04 36.2078 148.361 36.278 148.682 36.3182C149.004 36.3383 149.325 36.3483 149.646 36.3483C150.45 36.3483 151.223 36.2379 151.966 36.017C152.709 35.7961 153.402 35.4848 154.045 35.0831C154.707 34.6614 155.29 34.1593 155.792 33.5769C156.314 32.9744 156.736 32.3116 157.057 31.5886L163.082 37.6437C162.319 38.7282 161.435 39.7022 160.431 40.5658C159.447 41.4294 158.373 42.1624 157.208 42.7649C156.063 43.3674 154.848 43.8193 153.563 44.1205C152.297 44.4418 150.992 44.6025 149.646 44.6025C147.377 44.6025 145.238 44.1807 143.23 43.3373C141.242 42.4938 139.494 41.3189 137.988 39.8127C136.502 38.3064 135.327 36.519 134.464 34.4505C133.6 32.3618 133.168 30.0724 133.168 27.5821C133.168 25.0315 133.6 22.7019 134.464 20.5931C135.327 18.4844 136.502 16.687 137.988 15.2008C139.494 13.7147 141.242 12.5599 143.23 11.7365C145.238 10.9131 147.377 10.5014 149.646 10.5014C150.992 10.5014 152.307 10.662 153.593 10.9834C154.878 11.3047 156.093 11.7666 157.238 12.3691C158.403 12.9716 159.487 13.7147 160.491 14.5983C161.496 15.4619 162.379 16.4359 163.142 17.5204L147.719 36.1073ZM151.936 19.1472C151.554 19.0066 151.173 18.9162 150.791 18.876C150.43 18.8359 150.048 18.8158 149.646 18.8158C148.522 18.8158 147.457 19.0267 146.453 19.4484C145.469 19.8501 144.606 20.4325 143.863 21.1956C143.14 21.9588 142.567 22.8826 142.145 23.9671C141.724 25.0315 141.513 26.2365 141.513 27.5821C141.513 27.8833 141.523 28.2247 141.543 28.6063C141.583 28.9879 141.633 29.3795 141.694 29.7812C141.774 30.1627 141.864 30.5343 141.965 30.8958C142.065 31.2573 142.196 31.5786 142.356 31.8598L151.936 19.1472ZM25.1413 66.5821C25.1413 65.4574 24.9204 64.3729 24.4785 63.3286C24.0568 62.2642 23.4744 61.3303 22.7313 60.527C21.9882 59.7036 21.1146 59.0509 20.1104 58.5689C19.1264 58.0668 18.072 57.8158 16.9474 57.8158C15.8227 57.8158 14.7583 58.0066 13.7541 58.3882C12.7701 58.7697 11.9065 59.3321 11.1634 60.0751C10.4404 60.8182 9.86807 61.742 9.44632 62.8466C9.02458 63.9311 8.8137 65.1762 8.8137 66.5821C8.8137 67.9276 9.02458 69.1427 9.44632 70.2271C9.86807 71.2916 10.4404 72.2053 11.1634 72.9685C11.9065 73.7316 12.7701 74.3241 13.7541 74.7458C14.7583 75.1475 15.8227 75.3483 16.9474 75.3483C18.072 75.3483 19.1264 75.1073 20.1104 74.6253C21.1146 74.1233 21.9882 73.4706 22.7313 72.6672C23.4744 71.8438 24.0568 70.91 24.4785 69.8656C24.9204 68.8012 25.1413 67.7067 25.1413 66.5821ZM33.4255 78.9332C33.4255 81.2026 32.9938 83.3314 32.1302 85.3196C31.2666 87.3078 30.0817 89.045 28.5755 90.5312C27.0893 92.0173 25.3421 93.1922 23.3338 94.0557C21.3456 94.9193 19.2168 95.3511 16.9474 95.3511L12.8203 95.2909V87.0668L16.8871 87.1271C18.1724 87.1271 19.267 86.9564 20.1707 86.615C21.0744 86.2936 21.8376 85.8418 22.4602 85.2593C23.0827 84.697 23.5748 84.0443 23.9363 83.3012C24.3179 82.5582 24.6191 81.7749 24.84 80.9515C24.5187 81.4737 24.0568 81.9055 23.4543 82.2469C22.8518 82.5682 22.179 82.8293 21.4359 83.0301C20.7129 83.251 19.9498 83.4017 19.1465 83.482C18.3632 83.5623 17.6302 83.6025 16.9474 83.6025C14.678 83.6025 12.5391 83.2109 10.5308 82.4276C8.54258 81.6444 6.79535 80.5298 5.28912 79.0838C3.80297 77.6177 2.62811 75.8303 1.76453 73.7216C0.90096 71.6129 0.469173 69.233 0.469173 66.5821C0.469173 64.152 0.90096 61.8927 1.76453 59.804C2.62811 57.7154 3.80297 55.9079 5.28912 54.3816C6.79535 52.8553 8.54258 51.6603 10.5308 50.7967C12.5391 49.9332 14.678 49.5014 16.9474 49.5014C17.9917 49.5014 19.026 49.6319 20.0502 49.893C21.0744 50.1541 22.0686 50.5156 23.0325 50.9775C23.9965 51.4394 24.9103 51.9816 25.7739 52.6042C26.6575 53.2268 27.4809 53.8996 28.2441 54.6226L31.4373 50.7967H33.4255V78.9332ZM70.9609 83H68.9726L65.7794 78.5717C64.9962 79.2746 64.1627 79.9373 63.2791 80.5599C62.4155 81.1624 61.5017 81.6946 60.5377 82.1565C59.5738 82.5983 58.5796 82.9498 57.5554 83.2109C56.5512 83.472 55.527 83.6025 54.4827 83.6025C52.2133 83.6025 50.0744 83.2209 48.0661 82.4578C46.0779 81.6946 44.3307 80.59 42.8244 79.144C41.3383 77.678 40.1634 75.8906 39.2999 73.7819C38.4363 71.6731 38.0045 69.2732 38.0045 66.5821C38.0045 64.0717 38.4363 61.7722 39.2999 59.6835C40.1634 57.5748 41.3383 55.7673 42.8244 54.2611C44.3307 52.7548 46.0779 51.59 48.0661 50.7666C50.0744 49.9231 52.2133 49.5014 54.4827 49.5014C55.527 49.5014 56.5613 49.6319 57.5855 49.893C58.6098 50.1541 59.6039 50.5156 60.5679 50.9775C61.5319 51.4394 62.4456 51.9816 63.3092 52.6042C64.1929 53.2268 65.0163 53.8996 65.7794 54.6226L68.9726 50.7967H70.9609V83ZM62.6766 66.5821C62.6766 65.4574 62.4557 64.3729 62.0138 63.3286C61.5921 62.2642 61.0097 61.3303 60.2666 60.527C59.5235 59.7036 58.6499 59.0509 57.6458 58.5689C56.6617 58.0668 55.6073 57.8158 54.4827 57.8158C53.358 57.8158 52.2936 58.0066 51.2895 58.3882C50.3054 58.7697 49.4418 59.3321 48.6988 60.0751C47.9758 60.8182 47.4034 61.742 46.9816 62.8466C46.5599 63.9311 46.349 65.1762 46.349 66.5821C46.349 67.9879 46.5599 69.2431 46.9816 70.3476C47.4034 71.4321 47.9758 72.3459 48.6988 73.089C49.4418 73.8321 50.3054 74.3944 51.2895 74.776C52.2936 75.1575 53.358 75.3483 54.4827 75.3483C55.6073 75.3483 56.6617 75.1073 57.6458 74.6253C58.6499 74.1233 59.5235 73.4706 60.2666 72.6672C61.0097 71.8438 61.5921 70.91 62.0138 69.8656C62.4557 68.8012 62.6766 67.7067 62.6766 66.5821ZM118.287 83H110.093V62.5152C110.093 61.9529 109.982 61.4207 109.761 60.9186C109.561 60.4165 109.269 59.9747 108.888 59.5931C108.506 59.2116 108.064 58.9204 107.562 58.7195C107.06 58.4986 106.528 58.3882 105.966 58.3882C105.403 58.3882 104.871 58.4986 104.369 58.7195C103.887 58.9204 103.455 59.2116 103.074 59.5931C102.712 59.9747 102.421 60.4165 102.2 60.9186C101.999 61.4207 101.899 61.9529 101.899 62.5152V83H93.6749V62.5152C93.6749 61.9529 93.5644 61.4207 93.3435 60.9186C93.1427 60.4165 92.8515 59.9747 92.4699 59.5931C92.0883 59.2116 91.6465 58.9204 91.1444 58.7195C90.6423 58.4986 90.1101 58.3882 89.5478 58.3882C88.9855 58.3882 88.4533 58.4986 87.9512 58.7195C87.4692 58.9204 87.0374 59.2116 86.6558 59.5931C86.2943 59.9747 86.0031 60.4165 85.7822 60.9186C85.5814 61.4207 85.481 61.9529 85.481 62.5152V83H77.2569V50.7365H79.2452L81.4744 53.2067C82.6191 52.2427 83.8743 51.4997 85.24 50.9775C86.6257 50.4352 88.0616 50.1641 89.5478 50.1641C91.054 50.1641 92.5201 50.4453 93.946 51.0076C95.392 51.5699 96.6572 52.544 97.7417 53.9297C98.2438 53.2469 98.8161 52.6645 99.4588 52.1825C100.101 51.7005 100.774 51.3089 101.477 51.0076C102.2 50.7064 102.943 50.4955 103.706 50.375C104.47 50.2344 105.223 50.1641 105.966 50.1641C107.673 50.1641 109.269 50.4855 110.756 51.1281C112.262 51.7708 113.567 52.6544 114.672 53.7791C115.796 54.8837 116.68 56.1891 117.323 57.6953C117.965 59.2015 118.287 60.8082 118.287 62.5152V83ZM137.145 75.1073C137.466 75.2078 137.787 75.278 138.109 75.3182C138.43 75.3383 138.751 75.3483 139.073 75.3483C139.876 75.3483 140.649 75.2379 141.392 75.017C142.135 74.7961 142.828 74.4848 143.471 74.0831C144.134 73.6614 144.716 73.1593 145.218 72.5769C145.74 71.9744 146.162 71.3116 146.483 70.5886L152.508 76.6437C151.745 77.7282 150.862 78.7022 149.857 79.5658C148.873 80.4294 147.799 81.1624 146.634 81.7649C145.489 82.3674 144.274 82.8193 142.989 83.1205C141.724 83.4418 140.418 83.6025 139.073 83.6025C136.803 83.6025 134.664 83.1807 132.656 82.3373C130.668 81.4938 128.921 80.3189 127.414 78.8127C125.928 77.3064 124.753 75.519 123.89 73.4505C123.026 71.3618 122.595 69.0724 122.595 66.5821C122.595 64.0315 123.026 61.7019 123.89 59.5931C124.753 57.4844 125.928 55.687 127.414 54.2008C128.921 52.7147 130.668 51.5599 132.656 50.7365C134.664 49.9131 136.803 49.5014 139.073 49.5014C140.418 49.5014 141.734 49.662 143.019 49.9834C144.304 50.3047 145.519 50.7666 146.664 51.3691C147.829 51.9716 148.913 52.7147 149.918 53.5983C150.922 54.4619 151.805 55.4359 152.569 56.5204L137.145 75.1073ZM141.362 58.1472C140.981 58.0066 140.599 57.9162 140.217 57.876C139.856 57.8359 139.474 57.8158 139.073 57.8158C137.948 57.8158 136.884 58.0267 135.88 58.4484C134.895 58.8501 134.032 59.4325 133.289 60.1956C132.566 60.9588 131.993 61.8826 131.572 62.9671C131.15 64.0315 130.939 65.2365 130.939 66.5821C130.939 66.8833 130.949 67.2247 130.969 67.6063C131.009 67.9879 131.06 68.3795 131.12 68.7812C131.2 69.1627 131.291 69.5343 131.391 69.8958C131.491 70.2573 131.622 70.5786 131.783 70.8598L141.362 58.1472ZM174.439 83H155.641V74.8061H174.439C175.001 74.8061 175.483 74.6053 175.885 74.2036C176.287 73.8019 176.488 73.3199 176.488 72.7576C176.488 72.1752 176.287 71.7936 175.885 71.6129C175.483 71.4321 175.001 71.3418 174.439 71.3418H165.884C164.458 71.3418 163.122 71.0706 161.877 70.5284C160.632 69.9861 159.547 69.2531 158.624 68.3293C157.7 67.3854 156.967 66.2909 156.425 65.0457C155.902 63.8006 155.641 62.465 155.641 61.0391C155.641 59.6132 155.902 58.2777 156.425 57.0325C156.967 55.7874 157.7 54.7029 158.624 53.7791C159.547 52.8553 160.632 52.1323 161.877 51.6101C163.122 51.0679 164.458 50.7967 165.884 50.7967H182.543V58.9906H165.884C165.321 58.9906 164.839 59.1915 164.438 59.5931C164.036 59.9948 163.835 60.4768 163.835 61.0391C163.835 61.6215 164.036 62.1236 164.438 62.5454C164.839 62.947 165.321 63.1479 165.884 63.1479H174.439C175.845 63.1479 177.17 63.3888 178.416 63.8708C179.661 64.3328 180.745 64.9855 181.669 65.8289C182.593 66.6724 183.326 67.6866 183.868 68.8715C184.41 70.0564 184.681 71.3518 184.681 72.7576C184.681 74.1835 184.41 75.519 183.868 76.7642C183.326 77.9893 182.593 79.0738 181.669 80.0177C180.745 80.9415 179.661 81.6745 178.416 82.2168C177.17 82.7389 175.845 83 174.439 83Z"/>
</mask>
<path d="M67.7074 44H59.0918V13.1524C59.0918 12.5499 58.9713 11.9875 58.7303 11.4654C58.5093 10.9432 58.1981 10.4913 57.7964 10.1098C57.4148 9.7081 56.9629 9.39681 56.4408 9.1759C55.9186 8.95498 55.3563 8.84453 54.7538 8.84453C54.1513 8.84453 53.589 8.95498 53.0668 9.1759C52.5447 9.39681 52.0828 9.7081 51.6811 10.1098C51.2995 10.4913 50.9983 10.9432 50.7774 11.4654C50.5564 11.9875 50.446 12.5499 50.446 13.1524V44H41.8002V13.1524C41.8002 12.5499 41.6897 11.9875 41.4688 11.4654C41.2479 10.9432 40.9366 10.4913 40.535 10.1098C40.1534 9.7081 39.7015 9.39681 39.1794 9.1759C38.6572 8.95498 38.0949 8.84453 37.4924 8.84453C36.8899 8.84453 36.3276 8.95498 35.8054 9.1759C35.2832 9.39681 34.8213 9.7081 34.4197 10.1098C34.0381 10.4913 33.7368 10.9432 33.5159 11.4654C33.295 11.9875 33.1846 12.5499 33.1846 13.1524V44H24.5388V13.1524C24.5388 11.365 24.8701 9.68802 25.5329 8.12153C26.2157 6.53497 27.1395 5.15928 28.3044 3.99446C29.4893 2.80955 30.865 1.88573 32.4314 1.22299C34.018 0.540162 35.705 0.198749 37.4924 0.198749C39.099 0.198749 40.6454 0.489954 42.1316 1.07236C43.6177 1.63469 44.9533 2.4581 46.1382 3.54259C47.3231 2.4581 48.6485 1.63469 50.1146 1.07236C51.6008 0.489954 53.1472 0.198749 54.7538 0.198749C56.5412 0.198749 58.2181 0.540162 59.7846 1.22299C61.3712 1.88573 62.7469 2.80955 63.9117 3.99446C65.0966 5.15928 66.0204 6.53497 66.6832 8.12153C67.366 9.68802 67.7074 11.365 67.7074 13.1524V44ZM105.393 27.5821C105.393 29.992 104.962 32.2413 104.098 34.33C103.234 36.3985 102.06 38.196 100.573 39.7223C99.0873 41.2285 97.34 42.4235 95.3317 43.3071C93.3435 44.1707 91.2046 44.6025 88.9152 44.6025C86.6458 44.6025 84.5069 44.1707 82.4986 43.3071C80.5104 42.4235 78.7632 41.2285 77.2569 39.7223C75.7708 38.196 74.5959 36.3985 73.7323 34.33C72.8688 32.2413 72.437 29.992 72.437 27.5821C72.437 25.1319 72.8688 22.8625 73.7323 20.7739C74.5959 18.6852 75.7708 16.8878 77.2569 15.3816C78.7632 13.8553 80.5104 12.6603 82.4986 11.7967C84.5069 10.9332 86.6458 10.5014 88.9152 10.5014C91.2046 10.5014 93.3435 10.9131 95.3317 11.7365C97.34 12.5398 99.0873 13.6946 100.573 15.2008C102.06 16.687 103.234 18.4844 104.098 20.5931C104.962 22.6818 105.393 25.0114 105.393 27.5821ZM97.1091 27.5821C97.1091 26.2566 96.8882 25.0616 96.4463 23.9972C96.0246 22.9127 95.4422 21.9889 94.6991 21.2258C93.956 20.4425 93.0824 19.8501 92.0783 19.4484C91.0942 19.0267 90.0398 18.8158 88.9152 18.8158C87.7905 18.8158 86.7261 19.0267 85.722 19.4484C84.7379 19.8501 83.8743 20.4425 83.1312 21.2258C82.4082 21.9889 81.8359 22.9127 81.4141 23.9972C80.9924 25.0616 80.7815 26.2566 80.7815 27.5821C80.7815 28.8272 80.9924 29.982 81.4141 31.0464C81.8359 32.1108 82.4082 33.0346 83.1312 33.8179C83.8743 34.6011 84.7379 35.2237 85.722 35.6856C86.7261 36.1274 87.7905 36.3483 88.9152 36.3483C90.0398 36.3483 91.0942 36.1375 92.0783 35.7157C93.0824 35.294 93.956 34.7015 94.6991 33.9384C95.4422 33.1752 96.0246 32.2514 96.4463 31.1669C96.8882 30.0824 97.1091 28.8875 97.1091 27.5821ZM118.166 44H109.942V11.7365H111.93L114.642 15.5623C115.967 14.3573 117.473 13.4335 119.16 12.7909C120.847 12.1281 122.595 11.7967 124.402 11.7967H131.662V19.9906H124.402C123.538 19.9906 122.725 20.1513 121.962 20.4726C121.199 20.794 120.536 21.2358 119.974 21.7981C119.411 22.3605 118.97 23.0232 118.648 23.7864C118.327 24.5495 118.166 25.3629 118.166 26.2265V44ZM147.719 36.1073C148.04 36.2078 148.361 36.278 148.682 36.3182C149.004 36.3383 149.325 36.3483 149.646 36.3483C150.45 36.3483 151.223 36.2379 151.966 36.017C152.709 35.7961 153.402 35.4848 154.045 35.0831C154.707 34.6614 155.29 34.1593 155.792 33.5769C156.314 32.9744 156.736 32.3116 157.057 31.5886L163.082 37.6437C162.319 38.7282 161.435 39.7022 160.431 40.5658C159.447 41.4294 158.373 42.1624 157.208 42.7649C156.063 43.3674 154.848 43.8193 153.563 44.1205C152.297 44.4418 150.992 44.6025 149.646 44.6025C147.377 44.6025 145.238 44.1807 143.23 43.3373C141.242 42.4938 139.494 41.3189 137.988 39.8127C136.502 38.3064 135.327 36.519 134.464 34.4505C133.6 32.3618 133.168 30.0724 133.168 27.5821C133.168 25.0315 133.6 22.7019 134.464 20.5931C135.327 18.4844 136.502 16.687 137.988 15.2008C139.494 13.7147 141.242 12.5599 143.23 11.7365C145.238 10.9131 147.377 10.5014 149.646 10.5014C150.992 10.5014 152.307 10.662 153.593 10.9834C154.878 11.3047 156.093 11.7666 157.238 12.3691C158.403 12.9716 159.487 13.7147 160.491 14.5983C161.496 15.4619 162.379 16.4359 163.142 17.5204L147.719 36.1073ZM151.936 19.1472C151.554 19.0066 151.173 18.9162 150.791 18.876C150.43 18.8359 150.048 18.8158 149.646 18.8158C148.522 18.8158 147.457 19.0267 146.453 19.4484C145.469 19.8501 144.606 20.4325 143.863 21.1956C143.14 21.9588 142.567 22.8826 142.145 23.9671C141.724 25.0315 141.513 26.2365 141.513 27.5821C141.513 27.8833 141.523 28.2247 141.543 28.6063C141.583 28.9879 141.633 29.3795 141.694 29.7812C141.774 30.1627 141.864 30.5343 141.965 30.8958C142.065 31.2573 142.196 31.5786 142.356 31.8598L151.936 19.1472ZM25.1413 66.5821C25.1413 65.4574 24.9204 64.3729 24.4785 63.3286C24.0568 62.2642 23.4744 61.3303 22.7313 60.527C21.9882 59.7036 21.1146 59.0509 20.1104 58.5689C19.1264 58.0668 18.072 57.8158 16.9474 57.8158C15.8227 57.8158 14.7583 58.0066 13.7541 58.3882C12.7701 58.7697 11.9065 59.3321 11.1634 60.0751C10.4404 60.8182 9.86807 61.742 9.44632 62.8466C9.02458 63.9311 8.8137 65.1762 8.8137 66.5821C8.8137 67.9276 9.02458 69.1427 9.44632 70.2271C9.86807 71.2916 10.4404 72.2053 11.1634 72.9685C11.9065 73.7316 12.7701 74.3241 13.7541 74.7458C14.7583 75.1475 15.8227 75.3483 16.9474 75.3483C18.072 75.3483 19.1264 75.1073 20.1104 74.6253C21.1146 74.1233 21.9882 73.4706 22.7313 72.6672C23.4744 71.8438 24.0568 70.91 24.4785 69.8656C24.9204 68.8012 25.1413 67.7067 25.1413 66.5821ZM33.4255 78.9332C33.4255 81.2026 32.9938 83.3314 32.1302 85.3196C31.2666 87.3078 30.0817 89.045 28.5755 90.5312C27.0893 92.0173 25.3421 93.1922 23.3338 94.0557C21.3456 94.9193 19.2168 95.3511 16.9474 95.3511L12.8203 95.2909V87.0668L16.8871 87.1271C18.1724 87.1271 19.267 86.9564 20.1707 86.615C21.0744 86.2936 21.8376 85.8418 22.4602 85.2593C23.0827 84.697 23.5748 84.0443 23.9363 83.3012C24.3179 82.5582 24.6191 81.7749 24.84 80.9515C24.5187 81.4737 24.0568 81.9055 23.4543 82.2469C22.8518 82.5682 22.179 82.8293 21.4359 83.0301C20.7129 83.251 19.9498 83.4017 19.1465 83.482C18.3632 83.5623 17.6302 83.6025 16.9474 83.6025C14.678 83.6025 12.5391 83.2109 10.5308 82.4276C8.54258 81.6444 6.79535 80.5298 5.28912 79.0838C3.80297 77.6177 2.62811 75.8303 1.76453 73.7216C0.90096 71.6129 0.469173 69.233 0.469173 66.5821C0.469173 64.152 0.90096 61.8927 1.76453 59.804C2.62811 57.7154 3.80297 55.9079 5.28912 54.3816C6.79535 52.8553 8.54258 51.6603 10.5308 50.7967C12.5391 49.9332 14.678 49.5014 16.9474 49.5014C17.9917 49.5014 19.026 49.6319 20.0502 49.893C21.0744 50.1541 22.0686 50.5156 23.0325 50.9775C23.9965 51.4394 24.9103 51.9816 25.7739 52.6042C26.6575 53.2268 27.4809 53.8996 28.2441 54.6226L31.4373 50.7967H33.4255V78.9332ZM70.9609 83H68.9726L65.7794 78.5717C64.9962 79.2746 64.1627 79.9373 63.2791 80.5599C62.4155 81.1624 61.5017 81.6946 60.5377 82.1565C59.5738 82.5983 58.5796 82.9498 57.5554 83.2109C56.5512 83.472 55.527 83.6025 54.4827 83.6025C52.2133 83.6025 50.0744 83.2209 48.0661 82.4578C46.0779 81.6946 44.3307 80.59 42.8244 79.144C41.3383 77.678 40.1634 75.8906 39.2999 73.7819C38.4363 71.6731 38.0045 69.2732 38.0045 66.5821C38.0045 64.0717 38.4363 61.7722 39.2999 59.6835C40.1634 57.5748 41.3383 55.7673 42.8244 54.2611C44.3307 52.7548 46.0779 51.59 48.0661 50.7666C50.0744 49.9231 52.2133 49.5014 54.4827 49.5014C55.527 49.5014 56.5613 49.6319 57.5855 49.893C58.6098 50.1541 59.6039 50.5156 60.5679 50.9775C61.5319 51.4394 62.4456 51.9816 63.3092 52.6042C64.1929 53.2268 65.0163 53.8996 65.7794 54.6226L68.9726 50.7967H70.9609V83ZM62.6766 66.5821C62.6766 65.4574 62.4557 64.3729 62.0138 63.3286C61.5921 62.2642 61.0097 61.3303 60.2666 60.527C59.5235 59.7036 58.6499 59.0509 57.6458 58.5689C56.6617 58.0668 55.6073 57.8158 54.4827 57.8158C53.358 57.8158 52.2936 58.0066 51.2895 58.3882C50.3054 58.7697 49.4418 59.3321 48.6988 60.0751C47.9758 60.8182 47.4034 61.742 46.9816 62.8466C46.5599 63.9311 46.349 65.1762 46.349 66.5821C46.349 67.9879 46.5599 69.2431 46.9816 70.3476C47.4034 71.4321 47.9758 72.3459 48.6988 73.089C49.4418 73.8321 50.3054 74.3944 51.2895 74.776C52.2936 75.1575 53.358 75.3483 54.4827 75.3483C55.6073 75.3483 56.6617 75.1073 57.6458 74.6253C58.6499 74.1233 59.5235 73.4706 60.2666 72.6672C61.0097 71.8438 61.5921 70.91 62.0138 69.8656C62.4557 68.8012 62.6766 67.7067 62.6766 66.5821ZM118.287 83H110.093V62.5152C110.093 61.9529 109.982 61.4207 109.761 60.9186C109.561 60.4165 109.269 59.9747 108.888 59.5931C108.506 59.2116 108.064 58.9204 107.562 58.7195C107.06 58.4986 106.528 58.3882 105.966 58.3882C105.403 58.3882 104.871 58.4986 104.369 58.7195C103.887 58.9204 103.455 59.2116 103.074 59.5931C102.712 59.9747 102.421 60.4165 102.2 60.9186C101.999 61.4207 101.899 61.9529 101.899 62.5152V83H93.6749V62.5152C93.6749 61.9529 93.5644 61.4207 93.3435 60.9186C93.1427 60.4165 92.8515 59.9747 92.4699 59.5931C92.0883 59.2116 91.6465 58.9204 91.1444 58.7195C90.6423 58.4986 90.1101 58.3882 89.5478 58.3882C88.9855 58.3882 88.4533 58.4986 87.9512 58.7195C87.4692 58.9204 87.0374 59.2116 86.6558 59.5931C86.2943 59.9747 86.0031 60.4165 85.7822 60.9186C85.5814 61.4207 85.481 61.9529 85.481 62.5152V83H77.2569V50.7365H79.2452L81.4744 53.2067C82.6191 52.2427 83.8743 51.4997 85.24 50.9775C86.6257 50.4352 88.0616 50.1641 89.5478 50.1641C91.054 50.1641 92.5201 50.4453 93.946 51.0076C95.392 51.5699 96.6572 52.544 97.7417 53.9297C98.2438 53.2469 98.8161 52.6645 99.4588 52.1825C100.101 51.7005 100.774 51.3089 101.477 51.0076C102.2 50.7064 102.943 50.4955 103.706 50.375C104.47 50.2344 105.223 50.1641 105.966 50.1641C107.673 50.1641 109.269 50.4855 110.756 51.1281C112.262 51.7708 113.567 52.6544 114.672 53.7791C115.796 54.8837 116.68 56.1891 117.323 57.6953C117.965 59.2015 118.287 60.8082 118.287 62.5152V83ZM137.145 75.1073C137.466 75.2078 137.787 75.278 138.109 75.3182C138.43 75.3383 138.751 75.3483 139.073 75.3483C139.876 75.3483 140.649 75.2379 141.392 75.017C142.135 74.7961 142.828 74.4848 143.471 74.0831C144.134 73.6614 144.716 73.1593 145.218 72.5769C145.74 71.9744 146.162 71.3116 146.483 70.5886L152.508 76.6437C151.745 77.7282 150.862 78.7022 149.857 79.5658C148.873 80.4294 147.799 81.1624 146.634 81.7649C145.489 82.3674 144.274 82.8193 142.989 83.1205C141.724 83.4418 140.418 83.6025 139.073 83.6025C136.803 83.6025 134.664 83.1807 132.656 82.3373C130.668 81.4938 128.921 80.3189 127.414 78.8127C125.928 77.3064 124.753 75.519 123.89 73.4505C123.026 71.3618 122.595 69.0724 122.595 66.5821C122.595 64.0315 123.026 61.7019 123.89 59.5931C124.753 57.4844 125.928 55.687 127.414 54.2008C128.921 52.7147 130.668 51.5599 132.656 50.7365C134.664 49.9131 136.803 49.5014 139.073 49.5014C140.418 49.5014 141.734 49.662 143.019 49.9834C144.304 50.3047 145.519 50.7666 146.664 51.3691C147.829 51.9716 148.913 52.7147 149.918 53.5983C150.922 54.4619 151.805 55.4359 152.569 56.5204L137.145 75.1073ZM141.362 58.1472C140.981 58.0066 140.599 57.9162 140.217 57.876C139.856 57.8359 139.474 57.8158 139.073 57.8158C137.948 57.8158 136.884 58.0267 135.88 58.4484C134.895 58.8501 134.032 59.4325 133.289 60.1956C132.566 60.9588 131.993 61.8826 131.572 62.9671C131.15 64.0315 130.939 65.2365 130.939 66.5821C130.939 66.8833 130.949 67.2247 130.969 67.6063C131.009 67.9879 131.06 68.3795 131.12 68.7812C131.2 69.1627 131.291 69.5343 131.391 69.8958C131.491 70.2573 131.622 70.5786 131.783 70.8598L141.362 58.1472ZM174.439 83H155.641V74.8061H174.439C175.001 74.8061 175.483 74.6053 175.885 74.2036C176.287 73.8019 176.488 73.3199 176.488 72.7576C176.488 72.1752 176.287 71.7936 175.885 71.6129C175.483 71.4321 175.001 71.3418 174.439 71.3418H165.884C164.458 71.3418 163.122 71.0706 161.877 70.5284C160.632 69.9861 159.547 69.2531 158.624 68.3293C157.7 67.3854 156.967 66.2909 156.425 65.0457C155.902 63.8006 155.641 62.465 155.641 61.0391C155.641 59.6132 155.902 58.2777 156.425 57.0325C156.967 55.7874 157.7 54.7029 158.624 53.7791C159.547 52.8553 160.632 52.1323 161.877 51.6101C163.122 51.0679 164.458 50.7967 165.884 50.7967H182.543V58.9906H165.884C165.321 58.9906 164.839 59.1915 164.438 59.5931C164.036 59.9948 163.835 60.4768 163.835 61.0391C163.835 61.6215 164.036 62.1236 164.438 62.5454C164.839 62.947 165.321 63.1479 165.884 63.1479H174.439C175.845 63.1479 177.17 63.3888 178.416 63.8708C179.661 64.3328 180.745 64.9855 181.669 65.8289C182.593 66.6724 183.326 67.6866 183.868 68.8715C184.41 70.0564 184.681 71.3518 184.681 72.7576C184.681 74.1835 184.41 75.519 183.868 76.7642C183.326 77.9893 182.593 79.0738 181.669 80.0177C180.745 80.9415 179.661 81.6745 178.416 82.2168C177.17 82.7389 175.845 83 174.439 83Z" fill="#E883FF"/>
<path d="M67.7074 44V46.0615H69.7689V44H67.7074ZM59.0918 44H57.0302V46.0615H59.0918V44ZM58.7303 11.4654L56.8316 12.2686L56.8446 12.2992L56.8585 12.3293L58.7303 11.4654ZM57.7964 10.1098L56.3018 11.5296L56.3382 11.568L56.3765 11.6044L57.7964 10.1098ZM51.6811 10.1098L50.2234 8.65203L51.6811 10.1098ZM50.446 44V46.0615H52.5075V44H50.446ZM41.8002 44H39.7387V46.0615H41.8002V44ZM40.535 10.1098L39.0404 11.5296L39.0768 11.568L39.1151 11.6044L40.535 10.1098ZM35.8054 9.1759L35.0021 7.27729L35.8054 9.1759ZM34.4197 10.1098L32.9619 8.65203L34.4197 10.1098ZM33.1846 44V46.0615H35.2461V44H33.1846ZM24.5388 44H22.4772V46.0615H24.5388V44ZM25.5329 8.12153L23.6392 7.30655L23.6343 7.31828L25.5329 8.12153ZM28.3044 3.99446L26.8466 2.53673L28.3044 3.99446ZM32.4314 1.22299L33.2347 3.12163L33.2464 3.1166L32.4314 1.22299ZM42.1316 1.07236L41.3794 2.99177L41.3907 2.9962L41.402 3.00049L42.1316 1.07236ZM46.1382 3.54259L44.7463 5.06333L46.1382 6.33724L47.53 5.06333L46.1382 3.54259ZM50.1146 1.07236L50.8529 2.99717L50.8599 2.9945L50.8668 2.99177L50.1146 1.07236ZM59.7846 1.22299L58.9609 3.11279L58.9754 3.11912L58.99 3.12523L59.7846 1.22299ZM63.9117 3.99446L62.4416 5.43967L62.4539 5.45224L62.4665 5.46459L63.9117 3.99446ZM66.6832 8.12153L64.7809 8.91614L64.787 8.93077L64.7934 8.94529L66.6832 8.12153ZM67.7074 44V41.9385H59.0918V44V46.0615H67.7074V44ZM59.0918 44H61.1533V13.1524H59.0918H57.0302V44H59.0918ZM59.0918 13.1524H61.1533C61.1533 12.2661 60.974 11.4074 60.6021 10.6015L58.7303 11.4654L56.8585 12.3293C56.9685 12.5677 57.0302 12.8336 57.0302 13.1524H59.0918ZM58.7303 11.4654L60.6289 10.6621C60.3002 9.88532 59.8282 9.19647 59.2163 8.61515L57.7964 10.1098L56.3765 11.6044C56.5679 11.7862 56.7185 12.0011 56.8316 12.2686L58.7303 11.4654ZM57.7964 10.1098L59.291 8.68988C58.7097 8.07796 58.0208 7.60593 57.244 7.27729L56.4408 9.1759L55.6375 11.0745C55.9051 11.1877 56.1199 11.3382 56.3018 11.5296L57.7964 10.1098ZM56.4408 9.1759L57.244 7.27729C56.4521 6.94222 55.6147 6.78299 54.7538 6.78299V8.84453V10.9061C55.0979 10.9061 55.3852 10.9677 55.6375 11.0745L56.4408 9.1759ZM54.7538 8.84453V6.78299C53.8929 6.78299 53.0555 6.94222 52.2636 7.27729L53.0668 9.1759L53.8701 11.0745C54.1224 10.9677 54.4097 10.9061 54.7538 10.9061V8.84453ZM53.0668 9.1759L52.2636 7.27729C51.4964 7.60185 50.8124 8.063 50.2234 8.65203L51.6811 10.1098L53.1388 11.5675C53.3531 11.3532 53.5929 11.1918 53.8701 11.0745L53.0668 9.1759ZM51.6811 10.1098L50.2234 8.65203C49.6446 9.23076 49.1978 9.90802 48.8787 10.6621L50.7774 11.4654L52.676 12.2686C52.7987 11.9784 52.9544 11.7519 53.1388 11.5675L51.6811 10.1098ZM50.7774 11.4654L48.8787 10.6621C48.5437 11.4541 48.3844 12.2914 48.3844 13.1524H50.446H52.5075C52.5075 12.8083 52.5692 12.521 52.676 12.2686L50.7774 11.4654ZM50.446 13.1524H48.3844V44H50.446H52.5075V13.1524H50.446ZM50.446 44V41.9385H41.8002V44V46.0615H50.446V44ZM41.8002 44H43.8617V13.1524H41.8002H39.7387V44H41.8002ZM41.8002 13.1524H43.8617C43.8617 12.2914 43.7025 11.4541 43.3674 10.6621L41.4688 11.4654L39.5702 12.2686C39.677 12.521 39.7387 12.8083 39.7387 13.1524H41.8002ZM41.4688 11.4654L43.3674 10.6621C43.0388 9.88532 42.5668 9.19647 41.9549 8.61515L40.535 10.1098L39.1151 11.6044C39.3065 11.7862 39.457 12.0011 39.5702 12.2686L41.4688 11.4654ZM40.535 10.1098L42.0296 8.68988C41.4483 8.07796 40.7594 7.60593 39.9826 7.27729L39.1794 9.1759L38.3761 11.0745C38.6436 11.1877 38.8585 11.3382 39.0404 11.5296L40.535 10.1098ZM39.1794 9.1759L39.9826 7.27729C39.1906 6.94222 38.3533 6.78299 37.4924 6.78299V8.84453V10.9061C37.8365 10.9061 38.1238 10.9677 38.3761 11.0745L39.1794 9.1759ZM37.4924 8.84453V6.78299C36.6315 6.78299 35.7941 6.94222 35.0021 7.27729L35.8054 9.1759L36.6087 11.0745C36.861 10.9677 37.1483 10.9061 37.4924 10.9061V8.84453ZM35.8054 9.1759L35.0021 7.27729C34.235 7.60185 33.551 8.063 32.9619 8.65203L34.4197 10.1098L35.8774 11.5675C36.0917 11.3532 36.3315 11.1918 36.6087 11.0745L35.8054 9.1759ZM34.4197 10.1098L32.9619 8.65203C32.3832 9.23076 31.9364 9.90802 31.6173 10.6621L33.5159 11.4654L35.4145 12.2686C35.5373 11.9784 35.693 11.7519 35.8774 11.5675L34.4197 10.1098ZM33.5159 11.4654L31.6173 10.6621C31.2822 11.4541 31.123 12.2914 31.123 13.1524H33.1846H35.2461C35.2461 12.8083 35.3078 12.521 35.4145 12.2686L33.5159 11.4654ZM33.1846 13.1524H31.123V44H33.1846H35.2461V13.1524H33.1846ZM33.1846 44V41.9385H24.5388V44V46.0615H33.1846V44ZM24.5388 44H26.6003V13.1524H24.5388H22.4772V44H24.5388ZM24.5388 13.1524H26.6003C26.6003 11.6266 26.8817 10.2243 27.4315 8.92479L25.5329 8.12153L23.6343 7.31828C22.8586 9.15174 22.4772 11.1033 22.4772 13.1524H24.5388ZM25.5329 8.12153L27.4265 8.93651C28.0112 7.57805 28.7909 6.42341 29.7621 5.45218L28.3044 3.99446L26.8466 2.53673C25.4882 3.89514 24.4203 5.49189 23.6393 7.30656L25.5329 8.12153ZM28.3044 3.99446L29.7621 5.45218C30.7564 4.45788 31.909 3.68249 33.2347 3.1216L32.4314 1.22299L31.6282 -0.675622C29.821 0.088973 28.2221 1.16122 26.8466 2.53673L28.3044 3.99446ZM32.4314 1.22299L33.2464 3.1166C34.5665 2.54844 35.9753 2.26029 37.4924 2.26029V0.198749V-1.86279C35.4347 -1.86279 33.4695 -1.46811 31.6165 -0.670624L32.4314 1.22299ZM37.4924 0.198749V2.26029C38.8433 2.26029 40.1345 2.50391 41.3794 2.99177L42.1316 1.07236L42.8838 -0.847046C41.1564 -1.52401 39.3547 -1.86279 37.4924 -1.86279V0.198749ZM42.1316 1.07236L41.402 3.00049C42.6408 3.46924 43.7522 4.15345 44.7463 5.06333L46.1382 3.54259L47.53 2.02184C46.1543 0.762749 44.5946 -0.199856 42.8611 -0.855765L42.1316 1.07236ZM46.1382 3.54259L47.53 5.06333C48.5288 4.14921 49.6337 3.46481 50.8529 2.99717L50.1146 1.07236L49.3763 -0.852443C47.6634 -0.195433 46.1173 0.766989 44.7463 2.02184L46.1382 3.54259ZM50.1146 1.07236L50.8668 2.99177C52.1117 2.50391 53.4028 2.26029 54.7538 2.26029V0.198749V-1.86279C52.8915 -1.86279 51.0898 -1.52401 49.3624 -0.847046L50.1146 1.07236ZM54.7538 0.198749V2.26029C56.271 2.26029 57.6662 2.54843 58.9609 3.11279L59.7846 1.22299L60.6084 -0.666817C58.7701 -1.46811 56.8114 -1.86279 54.7538 -1.86279V0.198749ZM59.7846 1.22299L58.99 3.12523C60.3322 3.6859 61.476 4.45743 62.4416 5.43967L63.9117 3.99446L65.3818 2.54924C64.0178 1.16168 62.4102 0.0855556 60.5792 -0.679258L59.7846 1.22299ZM63.9117 3.99446L62.4665 5.46459C63.4487 6.43019 64.2203 7.57393 64.7809 8.91614L66.6832 8.12153L68.5854 7.32692C67.8206 5.49601 66.7445 3.88836 65.3569 2.52432L63.9117 3.99446ZM66.6832 8.12153L64.7934 8.94529C65.3577 10.24 65.6459 11.6351 65.6459 13.1524H67.7074H69.7689C69.7689 11.0948 69.3743 9.13604 68.573 7.29777L66.6832 8.12153ZM67.7074 13.1524H65.6459V44H67.7074H69.7689V13.1524H67.7074ZM104.098 34.33L106 35.1242L106.003 35.1177L104.098 34.33ZM100.573 39.7223L102.041 41.1702L102.05 41.1605L100.573 39.7223ZM95.3317 43.3071L96.153 45.198L96.162 45.1941L95.3317 43.3071ZM82.4986 43.3071L81.6613 45.191L81.6728 45.1961L81.6843 45.201L82.4986 43.3071ZM77.2569 39.7223L75.7799 41.1605L75.7895 41.1703L75.7992 41.18L77.2569 39.7223ZM73.7323 34.33L71.8272 35.1177L71.8299 35.1242L73.7323 34.33ZM77.2569 15.3816L75.7896 13.9335L75.7895 13.9337L77.2569 15.3816ZM82.4986 11.7967L81.6842 9.90286L81.6773 9.90586L82.4986 11.7967ZM95.3317 11.7365L94.5429 13.6412L94.5545 13.6459L94.5661 13.6506L95.3317 11.7365ZM100.573 15.2008L99.1059 16.6488L99.1157 16.6586L100.573 15.2008ZM104.098 20.5931L102.19 21.3744L102.193 21.3808L104.098 20.5931ZM96.4463 23.9972L94.525 24.7444L94.5334 24.7661L94.5423 24.7876L96.4463 23.9972ZM94.6991 21.2258L93.2035 22.6446L93.2127 22.6543L93.2221 22.6639L94.6991 21.2258ZM92.0783 19.4484L91.2662 21.3433L91.2893 21.3532L91.3126 21.3625L92.0783 19.4484ZM85.722 19.4484L86.501 21.3571L86.5107 21.3531L86.5203 21.3491L85.722 19.4484ZM83.1312 21.2258L81.6357 19.8069L81.6347 19.8079L83.1312 21.2258ZM81.4141 23.9972L83.3307 24.7566L83.3355 24.7444L81.4141 23.9972ZM83.1312 33.8179L81.6164 35.2162L81.626 35.2265L81.6357 35.2367L83.1312 33.8179ZM85.722 35.6856L84.846 37.5518L84.8687 37.5624L84.8917 37.5726L85.722 35.6856ZM92.0783 35.7157L91.28 33.815L91.2731 33.8179L91.2662 33.8209L92.0783 35.7157ZM96.4463 31.1669L94.5372 30.3891L94.5309 30.4043L94.525 30.4197L96.4463 31.1669ZM105.393 27.5821H103.332C103.332 29.7399 102.946 31.7197 102.193 33.5423L104.098 34.33L106.003 35.1177C106.977 32.763 107.455 30.2442 107.455 27.5821H105.393ZM104.098 34.33L102.196 33.5358C101.427 35.3775 100.392 36.9534 99.0964 38.2841L100.573 39.7223L102.05 41.1605C103.727 39.4386 105.042 37.4196 106 35.1242L104.098 34.33ZM100.573 39.7223L99.1059 38.2744C97.8093 39.5885 96.2805 40.6374 94.5015 41.4202L95.3317 43.3071L96.162 45.1941C98.3996 44.2096 100.365 42.8685 102.041 41.1702L100.573 39.7223ZM95.3317 43.3071L94.5104 41.4163C92.7958 42.161 90.9382 42.541 88.9152 42.541V44.6025V46.664C91.4711 46.664 93.8912 46.1804 96.153 45.198L95.3317 43.3071ZM88.9152 44.6025V42.541C86.9149 42.541 85.0542 42.162 83.313 41.4133L82.4986 43.3071L81.6843 45.201C83.9596 46.1794 86.3767 46.664 88.9152 46.664V44.6025ZM82.4986 43.3071L83.3359 41.4233C81.5738 40.6401 80.0381 39.588 78.7147 38.2646L77.2569 39.7223L75.7992 41.18C77.4882 42.869 79.447 44.2068 81.6613 45.191L82.4986 43.3071ZM77.2569 39.7223L78.734 38.2841C77.4382 36.9534 76.4036 35.3775 75.6348 33.5358L73.7323 34.33L71.8299 35.1242C72.7882 37.4196 74.1033 39.4386 75.7799 41.1605L77.2569 39.7223ZM73.7323 34.33L75.6375 33.5423C74.8839 31.7197 74.4985 29.7399 74.4985 27.5821H72.437H70.3754C70.3754 30.2442 70.8537 32.763 71.8272 35.1177L73.7323 34.33ZM72.437 27.5821H74.4985C74.4985 25.3793 74.8856 23.3801 75.6375 21.5616L73.7323 20.7739L71.8272 19.9862C70.852 22.3449 70.3754 24.8845 70.3754 27.5821H72.437ZM73.7323 20.7739L75.6375 21.5616C76.4062 19.7023 77.4379 18.1334 78.7244 16.8295L77.2569 15.3816L75.7895 13.9337C74.1036 15.6423 72.7856 17.6682 71.8272 19.9862L73.7323 20.7739ZM77.2569 15.3816L78.7243 16.8296C80.0434 15.4929 81.5707 14.4474 83.3199 13.6876L82.4986 11.7967L81.6773 9.90586C79.4501 10.8732 77.4829 12.2176 75.7896 13.9335L77.2569 15.3816ZM82.4986 11.7967L83.313 13.6906C85.0542 12.9419 86.9149 12.5629 88.9152 12.5629V10.5014V8.43984C86.3767 8.43984 83.9596 8.92445 81.6843 9.90287L82.4986 11.7967ZM88.9152 10.5014V12.5629C90.9515 12.5629 92.8205 12.9278 94.5429 13.6412L95.3317 11.7365L96.1205 9.83183C93.8665 8.89835 91.4578 8.43984 88.9152 8.43984V10.5014ZM95.3317 11.7365L94.5661 13.6506C96.3169 14.3509 97.8236 15.3491 99.1059 16.6487L100.573 15.2008L102.041 13.7529C100.351 12.0401 98.3632 10.7287 96.0974 9.8224L95.3317 11.7365ZM100.573 15.2008L99.1157 16.6586C100.393 17.9355 101.422 19.4973 102.19 21.3744L104.098 20.5931L106.006 19.8119C105.047 17.4715 103.726 15.4384 102.031 13.7431L100.573 15.2008ZM104.098 20.5931L102.193 21.3808C102.94 23.1877 103.332 25.2448 103.332 27.5821H105.393H107.455C107.455 24.7781 106.983 22.1759 106.003 19.8054L104.098 20.5931ZM97.1091 27.5821H99.1706C99.1706 26.0257 98.9106 24.5566 98.3504 23.2069L96.4463 23.9972L94.5423 24.7876C94.8657 25.5667 95.0475 26.4875 95.0475 27.5821H97.1091ZM96.4463 23.9972L98.3677 23.25C97.855 21.9317 97.1294 20.7666 96.1761 19.7876L94.6991 21.2258L93.2221 22.6639C93.755 23.2113 94.1942 23.8937 94.525 24.7444L96.4463 23.9972ZM94.6991 21.2258L96.1947 19.8069C95.2465 18.8075 94.1237 18.0463 92.8439 17.5343L92.0783 19.4484L91.3126 21.3625C92.0411 21.6539 92.6656 22.0776 93.2035 22.6446L94.6991 21.2258ZM92.0783 19.4484L92.8903 17.5536C91.6368 17.0163 90.3047 16.7542 88.9152 16.7542V18.8158V20.8773C89.775 20.8773 90.5516 21.037 91.2662 21.3433L92.0783 19.4484ZM88.9152 18.8158V16.7542C87.5255 16.7542 86.1889 17.0163 84.9237 17.5477L85.722 19.4484L86.5203 21.3491C87.2634 21.037 88.0555 20.8773 88.9152 20.8773V18.8158ZM85.722 19.4484L84.9429 17.5397C83.6836 18.0537 82.5768 18.8148 81.6357 19.8069L83.1312 21.2258L84.6268 22.6446C85.1718 22.0702 85.7922 21.6464 86.501 21.3571L85.722 19.4484ZM83.1312 21.2258L81.6347 19.8079C80.7093 20.7847 80.001 21.9432 79.4928 23.25L81.4141 23.9972L83.3355 24.7444C83.6708 23.8822 84.1072 23.1931 84.6278 22.6436L83.1312 21.2258ZM81.4141 23.9972L79.4976 23.2378C78.9662 24.5789 78.72 26.037 78.72 27.5821H80.7815H82.8431C82.8431 26.4761 83.0186 25.5443 83.3307 24.7566L81.4141 23.9972ZM80.7815 27.5821H78.72C78.72 29.0644 78.972 30.4793 79.4976 31.8058L81.4141 31.0464L83.3307 30.287C83.0128 29.4847 82.8431 28.5901 82.8431 27.5821H80.7815ZM81.4141 31.0464L79.4976 31.8058C80.0058 33.0885 80.7089 34.2331 81.6164 35.2162L83.1312 33.8179L84.6461 32.4196C84.1076 31.8362 83.666 31.1331 83.3307 30.287L81.4141 31.0464ZM83.1312 33.8179L81.6357 35.2367C82.5568 36.2077 83.631 36.9815 84.846 37.5518L85.722 35.6856L86.5979 33.8194C85.8448 33.4659 85.1918 32.9945 84.6268 32.399L83.1312 33.8179ZM85.722 35.6856L84.8917 37.5726C86.1642 38.1324 87.512 38.4099 88.9152 38.4099V36.3483V34.2868C88.069 34.2868 87.288 34.1224 86.5522 33.7986L85.722 35.6856ZM88.9152 36.3483V38.4099C90.3047 38.4099 91.6368 38.1478 92.8903 37.6106L92.0783 35.7157L91.2662 33.8209C90.5516 34.1271 89.775 34.2868 88.9152 34.2868V36.3483ZM92.0783 35.7157L92.8766 37.6164C94.1298 37.0901 95.2357 36.3424 96.1761 35.3765L94.6991 33.9384L93.2221 32.5002C92.6763 33.0607 92.035 33.4979 91.28 33.815L92.0783 35.7157ZM94.6991 33.9384L96.1761 35.3765C97.1294 34.3975 97.855 33.2324 98.3677 31.9141L96.4463 31.1669L94.525 30.4197C94.1942 31.2704 93.755 31.9529 93.2221 32.5002L94.6991 33.9384ZM96.4463 31.1669L98.3555 31.9447C98.9089 30.5864 99.1706 29.1236 99.1706 27.5821H97.1091H95.0475C95.0475 28.6514 94.8674 29.5784 94.5372 30.3891L96.4463 31.1669ZM118.166 44V46.0615H120.228V44H118.166ZM109.942 44H107.881V46.0615H109.942V44ZM109.942 11.7365V9.67495H107.881V11.7365H109.942ZM111.93 11.7365L113.612 10.5445L112.996 9.67495H111.93V11.7365ZM114.642 15.5623L112.96 16.7543L114.306 18.6538L116.028 17.0877L114.642 15.5623ZM119.16 12.7909L119.894 14.7173L119.904 14.7135L119.914 14.7096L119.16 12.7909ZM131.662 11.7967H133.724V9.7352H131.662V11.7967ZM131.662 19.9906V22.0522H133.724V19.9906H131.662ZM121.962 20.4726L121.162 18.5727L121.962 20.4726ZM118.166 44V41.9385H109.942V44V46.0615H118.166V44ZM109.942 44H112.004V11.7365H109.942H107.881V44H109.942ZM109.942 11.7365V13.798H111.93V11.7365V9.67495H109.942V11.7365ZM111.93 11.7365L110.248 12.9285L112.96 16.7543L114.642 15.5623L116.324 14.3704L113.612 10.5445L111.93 11.7365ZM114.642 15.5623L116.028 17.0877C117.162 16.0574 118.446 15.269 119.894 14.7173L119.16 12.7909L118.426 10.8644C116.501 11.598 114.773 12.6572 113.255 14.0369L114.642 15.5623ZM119.16 12.7909L119.914 14.7096C121.362 14.141 122.853 13.8583 124.402 13.8583V11.7967V9.7352C122.336 9.7352 120.333 10.1153 118.407 10.8721L119.16 12.7909ZM124.402 11.7967V13.8583H131.662V11.7967V9.7352H124.402V11.7967ZM131.662 11.7967H129.601V19.9906H131.662H133.724V11.7967H131.662ZM131.662 19.9906V17.9291H124.402V19.9906V22.0522H131.662V19.9906ZM124.402 19.9906V17.9291C123.276 17.9291 122.189 18.1401 121.162 18.5727L121.962 20.4726L122.762 22.3726C123.261 22.1625 123.801 22.0522 124.402 22.0522V19.9906ZM121.962 20.4726L121.162 18.5727C120.163 18.9931 119.275 19.5817 118.516 20.3404L119.974 21.7981L121.431 23.2559C121.797 22.8899 122.234 22.5948 122.762 22.3726L121.962 20.4726ZM119.974 21.7981L118.516 20.3404C117.757 21.0991 117.169 21.9877 116.748 22.9864L118.648 23.7864L120.548 24.5863C120.77 24.0587 121.065 23.6218 121.431 23.2559L119.974 21.7981ZM118.648 23.7864L116.748 22.9864C116.316 24.0136 116.105 25.1001 116.105 26.2265H118.166H120.228C120.228 25.6256 120.338 25.0854 120.548 24.5863L118.648 23.7864ZM118.166 26.2265H116.105V44H118.166H120.228V26.2265H118.166ZM147.719 36.1073L146.132 34.7909L144.168 37.1577L147.104 38.075L147.719 36.1073ZM148.682 36.3182L148.427 38.3638L148.49 38.3718L148.554 38.3757L148.682 36.3182ZM154.045 35.0831L155.137 36.8313L155.144 36.8268L155.151 36.8223L154.045 35.0831ZM155.792 33.5769L154.234 32.2267L154.23 32.2308L155.792 33.5769ZM157.057 31.5886L158.519 30.1346L156.396 28.0011L155.173 30.7514L157.057 31.5886ZM163.082 37.6437L164.768 38.8301L165.763 37.4156L164.543 36.1896L163.082 37.6437ZM160.431 40.5658L159.087 39.0028L159.079 39.0095L159.071 39.0163L160.431 40.5658ZM157.208 42.7649L156.261 40.9338L156.254 40.9372L156.248 40.9406L157.208 42.7649ZM153.563 44.1205L153.092 42.1133L153.074 42.1177L153.055 42.1224L153.563 44.1205ZM143.23 43.3373L142.425 45.2351L142.432 45.238L143.23 43.3373ZM137.988 39.8127L136.521 41.2606L136.531 41.2704L137.988 39.8127ZM134.464 34.4505L132.559 35.2382L132.561 35.2447L134.464 34.4505ZM137.988 15.2008L136.54 13.7333L136.531 13.7431L137.988 15.2008ZM143.23 11.7365L142.448 9.82904L142.441 9.83183L143.23 11.7365ZM157.238 12.3691L156.278 14.1934L156.284 14.1968L156.291 14.2002L157.238 12.3691ZM160.491 14.5983L159.129 16.146L159.138 16.1537L159.147 16.1614L160.491 14.5983ZM163.142 17.5204L164.729 18.8369L165.736 17.6235L164.828 16.334L163.142 17.5204ZM151.936 19.1472L153.582 20.3878L155.252 18.1719L152.649 17.2127L151.936 19.1472ZM150.791 18.876L150.564 20.925L150.575 20.9262L150.791 18.876ZM146.453 19.4484L147.232 21.3571L147.242 21.3531L147.252 21.3491L146.453 19.4484ZM143.863 21.1956L142.386 19.7575L142.376 19.7676L142.366 19.7778L143.863 21.1956ZM142.145 23.9671L144.062 24.7265L144.067 24.7143L142.145 23.9671ZM141.543 28.6063L139.484 28.7147L139.487 28.7685L139.493 28.8221L141.543 28.6063ZM141.694 29.7812L139.655 30.087L139.664 30.1467L139.676 30.2059L141.694 29.7812ZM142.356 31.8598L140.566 32.8826L142.119 35.6L144.003 33.1004L142.356 31.8598ZM147.719 36.1073L147.104 38.075C147.537 38.2106 147.979 38.3078 148.427 38.3638L148.682 36.3182L148.938 34.2726C148.743 34.2482 148.542 34.2049 148.333 34.1396L147.719 36.1073ZM148.682 36.3182L148.554 38.3757C148.918 38.3985 149.282 38.4099 149.646 38.4099V36.3483V34.2868C149.368 34.2868 149.09 34.2781 148.811 34.2607L148.682 36.3182ZM149.646 36.3483V38.4099C150.641 38.4099 151.613 38.2727 152.554 37.993L151.966 36.017L151.379 34.0409C150.833 34.2031 150.258 34.2868 149.646 34.2868V36.3483ZM151.966 36.017L152.554 37.993C153.47 37.7205 154.334 37.3335 155.137 36.8313L154.045 35.0831L152.952 33.3349C152.47 33.636 151.948 33.8717 151.379 34.0409L151.966 36.017ZM154.045 35.0831L155.151 36.8223C155.98 36.2948 156.717 35.6612 157.353 34.9229L155.792 33.5769L154.23 32.2308C153.863 32.6574 153.434 33.0279 152.938 33.3439L154.045 35.0831ZM155.792 33.5769L157.35 34.927C158.004 34.1718 158.536 33.3365 158.941 32.4259L157.057 31.5886L155.173 30.7514C154.935 31.2868 154.624 31.7769 154.234 32.2267L155.792 33.5769ZM157.057 31.5886L155.596 33.0427L161.621 39.0978L163.082 37.6437L164.543 36.1896L158.519 30.1346L157.057 31.5886ZM163.082 37.6437L161.396 36.4573C160.731 37.4028 159.962 38.2503 159.087 39.0028L160.431 40.5658L161.775 42.1288C162.909 41.1541 163.907 40.0536 164.768 38.8301L163.082 37.6437ZM160.431 40.5658L159.071 39.0163C158.213 39.7694 157.277 40.408 156.261 40.9338L157.208 42.7649L158.155 44.596C159.468 43.9168 160.681 43.0893 161.791 42.1153L160.431 40.5658ZM157.208 42.7649L156.248 40.9406C155.261 41.4599 154.211 41.8512 153.092 42.1133L153.563 44.1205L154.033 46.1276C155.485 45.7873 156.865 45.2748 158.168 44.5892L157.208 42.7649ZM153.563 44.1205L153.055 42.1224C151.961 42.4003 150.826 42.541 149.646 42.541V44.6025V46.664C151.158 46.664 152.634 46.4833 154.07 46.1186L153.563 44.1205ZM149.646 44.6025V42.541C147.64 42.541 145.773 42.1695 144.028 41.4366L143.23 43.3373L142.432 45.238C144.703 46.192 147.115 46.664 149.646 46.664V44.6025ZM143.23 43.3373L144.035 41.4394C142.287 40.6979 140.762 39.6713 139.446 38.3549L137.988 39.8127L136.531 41.2704C138.227 42.9665 140.196 44.2896 142.425 45.2351L143.23 43.3373ZM137.988 39.8127L139.456 38.3648C138.166 37.0575 137.134 35.4957 136.366 33.6563L134.464 34.4505L132.561 35.2447C133.52 37.5424 134.838 39.5553 136.521 41.2606L137.988 39.8127ZM134.464 34.4505L136.369 33.6628C135.619 31.8482 135.23 29.8297 135.23 27.5821H133.168H131.107C131.107 30.315 131.582 32.8754 132.559 35.2382L134.464 34.4505ZM133.168 27.5821H135.23C135.23 25.2675 135.621 23.2073 136.371 21.3744L134.464 20.5931L132.556 19.8119C131.579 22.1965 131.107 24.7955 131.107 27.5821H133.168ZM134.464 20.5931L136.371 21.3744C137.14 19.4973 138.169 17.9355 139.446 16.6586L137.988 15.2008L136.531 13.7431C134.835 15.4384 133.514 17.4715 132.556 19.8119L134.464 20.5931ZM137.988 15.2008L139.436 16.6683C140.75 15.3723 142.272 14.3645 144.019 13.6412L143.23 11.7365L142.441 9.83183C140.211 10.7553 138.239 12.0571 136.54 13.7333L137.988 15.2008ZM143.23 11.7365L144.012 13.6439C145.761 12.9269 147.633 12.5629 149.646 12.5629V10.5014V8.43984C147.121 8.43984 144.716 8.89928 142.448 9.82905L143.23 11.7365ZM149.646 10.5014V12.5629C150.826 12.5629 151.974 12.7036 153.093 12.9834L153.593 10.9834L154.093 8.98339C152.641 8.62054 151.158 8.43984 149.646 8.43984V10.5014ZM153.593 10.9834L153.093 12.9834C154.222 13.2657 155.282 13.6695 156.278 14.1934L157.238 12.3691L158.198 10.5448C156.904 9.86374 155.534 9.34371 154.093 8.98339L153.593 10.9834ZM157.238 12.3691L156.291 14.2002C157.303 14.7239 158.249 15.3711 159.129 16.146L160.491 14.5983L161.853 13.0507C160.725 12.0582 159.502 11.2193 158.185 10.538L157.238 12.3691ZM160.491 14.5983L159.147 16.1614C160.022 16.9138 160.791 17.7613 161.456 18.7068L163.142 17.5204L164.828 16.334C163.967 15.1105 162.969 14.01 161.836 13.0353L160.491 14.5983ZM163.142 17.5204L161.556 16.204L146.132 34.7909L147.719 36.1073L149.305 37.4238L164.729 18.8369L163.142 17.5204ZM151.936 19.1472L152.649 17.2127C152.116 17.0166 151.568 16.8849 151.007 16.8258L150.791 18.876L150.575 20.9262C150.777 20.9475 150.992 20.9965 151.223 21.0816L151.936 19.1472ZM150.791 18.876L151.019 16.8271C150.574 16.7777 150.116 16.7542 149.646 16.7542V18.8158V20.8773C149.98 20.8773 150.285 20.894 150.564 20.925L150.791 18.876ZM149.646 18.8158V16.7542C148.257 16.7542 146.92 17.0163 145.655 17.5477L146.453 19.4484L147.252 21.3491C147.995 21.037 148.787 20.8773 149.646 20.8773V18.8158ZM146.453 19.4484L145.674 17.5397C144.427 18.0488 143.326 18.7916 142.386 19.7575L143.863 21.1956L145.34 22.6338C145.885 22.0734 146.511 21.6513 147.232 21.3571L146.453 19.4484ZM143.863 21.1956L142.366 19.7778C141.441 20.7546 140.732 21.9131 140.224 23.2199L142.145 23.9671L144.067 24.7143C144.402 23.8521 144.839 23.163 145.359 22.6134L143.863 21.1956ZM142.145 23.9671L140.229 23.2077C139.696 24.5522 139.451 26.0213 139.451 27.5821H141.513H143.574C143.574 26.4517 143.751 25.5108 144.062 24.7265L142.145 23.9671ZM141.513 27.5821H139.451C139.451 27.9275 139.463 28.306 139.484 28.7147L141.543 28.6063L143.602 28.4979C143.583 28.1434 143.574 27.8391 143.574 27.5821H141.513ZM141.543 28.6063L139.493 28.8221C139.536 29.2355 139.59 29.6571 139.655 30.087L141.694 29.7812L143.732 29.4754C143.676 29.1019 143.63 28.7403 143.593 28.3905L141.543 28.6063ZM141.694 29.7812L139.676 30.2059C139.765 30.6284 139.866 31.0424 139.978 31.4475L141.965 30.8958L143.951 30.344C143.863 30.0261 143.783 29.697 143.711 29.3565L141.694 29.7812ZM141.965 30.8958L139.978 31.4475C140.117 31.9482 140.309 32.4319 140.566 32.8826L142.356 31.8598L144.146 30.837C144.082 30.7253 144.013 30.5663 143.951 30.344L141.965 30.8958ZM142.356 31.8598L144.003 33.1004L153.582 20.3878L151.936 19.1472L150.29 17.9065L140.71 30.6191L142.356 31.8598ZM24.4785 63.3286L22.562 64.088L22.5707 64.11L22.5799 64.1319L24.4785 63.3286ZM22.7313 60.527L21.2008 61.9082L21.2093 61.9176L21.2179 61.9269L22.7313 60.527ZM20.1104 58.5689L19.1735 60.4052L19.1958 60.4166L19.2184 60.4274L20.1104 58.5689ZM13.7541 58.3882L13.0218 56.461L13.0088 56.4661L13.7541 58.3882ZM11.1634 60.0751L9.7057 58.6174L9.69571 58.6274L9.68587 58.6375L11.1634 60.0751ZM9.44632 62.8466L11.3677 63.5938L11.3722 63.582L9.44632 62.8466ZM9.44632 70.2271L7.52492 70.9744L7.52975 70.9865L9.44632 70.2271ZM11.1634 72.9685L9.66685 74.3863L9.67655 74.3965L9.68639 74.4067L11.1634 72.9685ZM13.7541 74.7458L12.9421 76.6407L12.9652 76.6506L12.9885 76.6599L13.7541 74.7458ZM20.1104 74.6253L21.0173 76.4767L21.0248 76.473L21.0324 76.4692L20.1104 74.6253ZM22.7313 72.6672L24.2447 74.0671L24.2533 74.0578L24.2618 74.0484L22.7313 72.6672ZM24.4785 69.8656L22.5745 69.0753L22.5707 69.0845L22.567 69.0937L24.4785 69.8656ZM28.5755 90.5312L27.1275 89.0637L27.1178 89.0734L28.5755 90.5312ZM23.3338 94.0557L22.5194 92.1619L22.5125 92.1649L23.3338 94.0557ZM16.9474 95.3511L16.9173 97.4124L16.9323 97.4127H16.9474V95.3511ZM12.8203 95.2909H10.7587V97.3225L12.7902 97.3522L12.8203 95.2909ZM12.8203 87.0668L12.8508 85.0055L10.7587 84.9745V87.0668H12.8203ZM16.8871 87.1271L16.8566 89.1884L16.8718 89.1886H16.8871V87.1271ZM20.1707 86.615L19.4801 84.6725L19.461 84.6793L19.4422 84.6864L20.1707 86.615ZM22.4602 85.2593L21.0784 83.7295L21.065 83.7416L21.0518 83.7539L22.4602 85.2593ZM23.9363 83.3012L22.1024 82.3595L22.0922 82.3793L22.0825 82.3994L23.9363 83.3012ZM24.84 80.9515L26.8311 81.4857L23.0843 79.8711L24.84 80.9515ZM23.4543 82.2469L24.4244 84.0659L24.4477 84.0535L24.4706 84.0405L23.4543 82.2469ZM21.4359 83.0301L20.8981 81.04L20.8656 81.0488L20.8335 81.0586L21.4359 83.0301ZM19.1465 83.482L18.9413 81.4307L18.9361 81.4312L19.1465 83.482ZM10.5308 82.4276L9.7752 84.3457L9.78176 84.3483L10.5308 82.4276ZM5.28912 79.0838L3.84134 80.5514L3.85132 80.5612L3.86144 80.571L5.28912 79.0838ZM5.28912 54.3816L3.82174 52.9335L3.81209 52.9434L5.28912 54.3816ZM10.5308 50.7967L9.71644 48.9029L9.70952 48.9059L10.5308 50.7967ZM25.7739 52.6042L24.5683 54.2765L24.5774 54.283L24.5865 54.2895L25.7739 52.6042ZM28.2441 54.6226L26.8263 56.1192L28.42 57.629L29.8268 55.9436L28.2441 54.6226ZM31.4373 50.7967V48.7352H30.4727L29.8546 49.4757L31.4373 50.7967ZM33.4255 50.7967H35.4871V48.7352H33.4255V50.7967ZM25.1413 66.5821H27.2028C27.2028 65.1791 26.9256 63.8217 26.3771 62.5253L24.4785 63.3286L22.5799 64.1319C22.9151 64.9242 23.0797 65.7357 23.0797 66.5821H25.1413ZM24.4785 63.3286L26.3951 62.5692C25.884 61.2794 25.1684 60.1258 24.2447 59.1271L22.7313 60.527L21.2179 61.9269C21.7803 62.5349 22.2295 63.249 22.562 64.088L24.4785 63.3286ZM22.7313 60.527L24.2618 59.1458C23.3382 58.1224 22.2475 57.3079 21.0025 56.7104L20.1104 58.5689L19.2184 60.4274C19.9817 60.7939 20.6382 61.2848 21.2008 61.9082L22.7313 60.527ZM20.1104 58.5689L21.0474 56.7326C19.7678 56.0797 18.3916 55.7542 16.9474 55.7542V57.8158V59.8773C17.7524 59.8773 18.485 60.0539 19.1735 60.4052L20.1104 58.5689ZM16.9474 57.8158V55.7542C15.5844 55.7542 14.2708 55.9865 13.0219 56.4611L13.7541 58.3882L14.4864 60.3152C15.2458 60.0267 16.061 59.8773 16.9474 59.8773V57.8158ZM13.7541 58.3882L13.0088 56.4661C11.7588 56.9508 10.6523 57.6708 9.7057 58.6174L11.1634 60.0751L12.6212 61.5329C13.1607 60.9933 13.7813 60.5887 14.4995 60.3103L13.7541 58.3882ZM11.1634 60.0751L9.68587 58.6375C8.74156 59.6081 8.02824 60.7812 7.52039 62.1113L9.44632 62.8466L11.3722 63.582C11.7079 62.7029 12.1393 62.0284 12.641 61.5128L11.1634 60.0751ZM9.44632 62.8466L7.52496 62.0994C6.99349 63.466 6.75216 64.9724 6.75216 66.5821H8.8137H10.8752C10.8752 65.3801 11.0557 64.3962 11.3677 63.5938L9.44632 62.8466ZM8.8137 66.5821H6.75216C6.75216 68.1438 6.99728 69.6175 7.52496 70.9743L9.44632 70.2271L11.3677 69.4799C11.0519 68.6679 10.8752 67.7114 10.8752 66.5821H8.8137ZM9.44632 70.2271L7.52975 70.9865C8.0396 72.2733 8.74768 73.4161 9.66685 74.3863L11.1634 72.9685L12.66 71.5507C12.1332 70.9946 11.6965 70.3098 11.3629 69.4678L9.44632 70.2271ZM11.1634 72.9685L9.68639 74.4067C10.6199 75.3654 11.7098 76.1126 12.9421 76.6407L13.7541 74.7458L14.5662 72.851C13.8304 72.5356 13.1931 72.0979 12.6405 71.5303L11.1634 72.9685ZM13.7541 74.7458L12.9885 76.6599C14.2459 77.1629 15.5711 77.4099 16.9474 77.4099V75.3483V73.2868C16.0743 73.2868 15.2707 73.1321 14.5198 72.8318L13.7541 74.7458ZM16.9474 75.3483V77.4099C18.3778 77.4099 19.7433 77.1007 21.0173 76.4767L20.1104 74.6253L19.2036 72.774C18.5095 73.114 17.7662 73.2868 16.9474 73.2868V75.3483ZM20.1104 74.6253L21.0324 76.4692C22.253 75.8589 23.3284 75.0576 24.2447 74.0671L22.7313 72.6672L21.2179 71.2674C20.648 71.8835 19.9762 72.3876 19.1885 72.7814L20.1104 74.6253ZM22.7313 72.6672L24.2618 74.0484C25.1691 73.043 25.8794 71.9022 26.3901 70.6376L24.4785 69.8656L22.567 69.0937C22.2342 69.9177 21.7797 70.6447 21.2008 71.2861L22.7313 72.6672ZM24.4785 69.8656L26.3825 70.656C26.9257 69.3474 27.2028 67.9847 27.2028 66.5821H25.1413H23.0797C23.0797 67.4287 22.915 68.2551 22.5745 69.0753L24.4785 69.8656ZM33.4255 78.9332H31.364C31.364 80.9335 30.985 82.7814 30.2393 84.4983L32.1302 85.3196L34.0211 86.1409C35.0025 83.8814 35.4871 81.4716 35.4871 78.9332H33.4255ZM32.1302 85.3196L30.2393 84.4983C29.4781 86.2508 28.4416 87.7672 27.1276 89.0637L28.5755 90.5312L30.0234 91.9986C31.7219 90.3228 33.0551 88.3648 34.0211 86.1409L32.1302 85.3196ZM28.5755 90.5312L27.1178 89.0734C25.8239 90.3673 24.2974 91.3974 22.5194 92.1619L23.3338 94.0557L24.1482 95.9496C26.3868 94.987 28.3548 93.6673 30.0332 91.9889L28.5755 90.5312ZM23.3338 94.0557L22.5125 92.1649C20.7956 92.9106 18.9477 93.2896 16.9474 93.2896V95.3511V97.4127C19.4858 97.4127 21.8955 96.928 24.1551 95.9466L23.3338 94.0557ZM16.9474 95.3511L16.9775 93.2898L12.8504 93.2295L12.8203 95.2909L12.7902 97.3522L16.9173 97.4124L16.9474 95.3511ZM12.8203 95.2909H14.8818V87.0668H12.8203H10.7587V95.2909H12.8203ZM12.8203 87.0668L12.7897 89.1281L16.8566 89.1884L16.8871 87.1271L16.9176 85.0658L12.8508 85.0055L12.8203 87.0668ZM16.8871 87.1271V89.1886C18.3439 89.1886 19.6998 88.9966 20.8992 88.5435L20.1707 86.615L19.4422 84.6864C18.8341 84.9162 18.001 85.0655 16.8871 85.0655V87.1271ZM20.1707 86.615L20.8613 88.5574C21.9984 88.1531 23.0149 87.5634 23.8685 86.7648L22.4602 85.2593L21.0518 83.7539C20.6603 84.1201 20.1505 84.4342 19.4801 84.6725L20.1707 86.615ZM22.4602 85.2593L23.842 86.7892C24.6576 86.0525 25.3112 85.1875 25.7901 84.2031L23.9363 83.3012L22.0825 82.3994C21.8384 82.9011 21.5079 83.3415 21.0784 83.7295L22.4602 85.2593ZM23.9363 83.3012L25.7702 84.243C26.2198 83.3673 26.5732 82.4472 26.8311 81.4857L24.84 80.9515L22.8489 80.4173C22.665 81.1026 22.4159 81.749 22.1024 82.3595L23.9363 83.3012ZM24.84 80.9515L23.0843 79.8711C22.9679 80.0603 22.7775 80.2608 22.4379 80.4533L23.4543 82.2469L24.4706 84.0405C25.336 83.5501 26.0695 82.8871 26.5957 82.032L24.84 80.9515ZM23.4543 82.2469L22.4841 80.4279C22.0349 80.6675 21.5097 80.8747 20.8981 81.04L21.4359 83.0301L21.9738 85.0203C22.8483 84.7839 23.6687 84.4689 24.4244 84.0659L23.4543 82.2469ZM21.4359 83.0301L20.8335 81.0586C20.2484 81.2373 19.619 81.3629 18.9413 81.4307L19.1465 83.482L19.3516 85.5333C20.2806 85.4404 21.1774 85.2647 22.0384 85.0017L21.4359 83.0301ZM19.1465 83.482L18.9361 81.4312C18.2125 81.5054 17.5503 81.541 16.9474 81.541V83.6025V85.664C17.7101 85.664 18.514 85.6192 19.3568 85.5328L19.1465 83.482ZM16.9474 83.6025V81.541C14.9205 81.541 13.037 81.1923 11.2799 80.507L10.5308 82.4276L9.78176 84.3483C12.0413 85.2295 14.4354 85.664 16.9474 85.664V83.6025ZM10.5308 82.4276L11.2864 80.5096C9.54215 79.8224 8.02463 78.8521 6.7168 77.5966L5.28912 79.0838L3.86144 80.571C5.56607 82.2074 7.54301 83.4664 9.7752 84.3457L10.5308 82.4276ZM5.28912 79.0838L6.7369 77.6162C5.46631 76.3628 4.44015 74.8153 3.67229 72.9403L1.76453 73.7216L-0.143228 74.5029C0.81606 76.8453 2.13963 78.8727 3.84134 80.5514L5.28912 79.0838ZM1.76453 73.7216L3.67229 72.9403C2.92545 71.1166 2.53071 69.0083 2.53071 66.5821H0.469173H-1.59237C-1.59237 69.4578 -1.12353 72.1091 -0.143228 74.5029L1.76453 73.7216ZM0.469173 66.5821H2.53071C2.53071 64.4018 2.91691 62.4123 3.66965 60.5917L1.76453 59.804L-0.140586 59.0163C-1.11499 61.373 -1.59237 63.9023 -1.59237 66.5821H0.469173ZM1.76453 59.804L3.66965 60.5917C4.43932 58.7302 5.47366 57.1472 6.76615 55.8197L5.28912 54.3816L3.81209 52.9434C2.13227 54.6686 0.816894 56.7006 -0.140586 59.0163L1.76453 59.804ZM5.28912 54.3816L6.75647 55.8296C8.07558 54.4929 9.60285 53.4474 11.3521 52.6876L10.5308 50.7967L9.70952 48.9059C7.48231 49.8732 5.51513 51.2176 3.82177 52.9335L5.28912 54.3816ZM10.5308 50.7967L11.3452 52.6906C13.0864 51.9419 14.9471 51.5629 16.9474 51.5629V49.5014V47.4398C14.4088 47.4398 11.9918 47.9245 9.71644 48.9029L10.5308 50.7967ZM16.9474 49.5014V51.5629C17.8179 51.5629 18.6811 51.6715 19.541 51.8907L20.0502 49.893L20.5594 47.8953C19.3708 47.5924 18.1655 47.4398 16.9474 47.4398V49.5014ZM20.0502 49.893L19.541 51.8907C20.4323 52.1179 21.2987 52.4327 22.1417 52.8366L23.0325 50.9775L23.9234 49.1184C22.8384 48.5985 21.7166 48.1903 20.5594 47.8953L20.0502 49.893ZM23.0325 50.9775L22.1417 52.8366C22.9959 53.2459 23.8043 53.7257 24.5683 54.2765L25.7739 52.6042L26.9795 50.9319C26.0163 50.2376 24.9972 49.6329 23.9234 49.1184L23.0325 50.9775ZM25.7739 52.6042L24.5865 54.2895C25.3912 54.8564 26.1373 55.4664 26.8263 56.1192L28.2441 54.6226L29.6619 53.126C28.8246 52.3327 27.9239 51.5972 26.9612 50.9189L25.7739 52.6042ZM28.2441 54.6226L29.8268 55.9436L33.02 52.1177L31.4373 50.7967L29.8546 49.4757L26.6614 53.3016L28.2441 54.6226ZM31.4373 50.7967V52.8583H33.4255V50.7967V48.7352H31.4373V50.7967ZM33.4255 50.7967H31.364V78.9332H33.4255H35.4871V50.7967H33.4255ZM70.9609 83V85.0615H73.0224V83H70.9609ZM68.9726 83L67.3005 84.2058L67.9176 85.0615H68.9726V83ZM65.7794 78.5717L67.4516 77.3659L66.1098 75.5052L64.4025 77.0374L65.7794 78.5717ZM63.2791 80.5599L64.4587 82.2506L64.4664 82.2452L63.2791 80.5599ZM60.5377 82.1565L61.3967 84.0306L61.4127 84.0232L61.4286 84.0156L60.5377 82.1565ZM57.5554 83.2109L57.0462 81.2132L57.0366 81.2157L57.5554 83.2109ZM48.0661 82.4578L47.3274 84.3824L47.3338 84.3848L48.0661 82.4578ZM42.8244 79.144L41.3767 80.6117L41.3866 80.6215L41.3968 80.6312L42.8244 79.144ZM39.2999 59.6835L41.205 60.4712L41.2076 60.4648L39.2999 59.6835ZM42.8244 54.2611L41.3667 52.8033L41.357 52.8132L42.8244 54.2611ZM48.0661 50.7666L48.8549 52.6713L48.8644 52.6673L48.0661 50.7666ZM63.3092 52.6042L62.1036 54.2765L62.1127 54.283L62.1219 54.2895L63.3092 52.6042ZM65.7794 54.6226L64.3616 56.1192L65.9554 57.629L67.3621 55.9436L65.7794 54.6226ZM68.9726 50.7967V48.7352H68.008L67.3899 49.4757L68.9726 50.7967ZM70.9609 50.7967H73.0224V48.7352H70.9609V50.7967ZM62.0138 63.3286L60.0973 64.088L60.106 64.11L60.1152 64.1319L62.0138 63.3286ZM60.2666 60.527L58.7361 61.9082L58.7446 61.9176L58.7532 61.9269L60.2666 60.527ZM57.6458 58.5689L56.7089 60.4052L56.7311 60.4166L56.7537 60.4274L57.6458 58.5689ZM51.2895 58.3882L50.5572 56.461L50.5442 56.4661L51.2895 58.3882ZM48.6987 60.0751L47.241 58.6174L47.231 58.6274L47.2212 58.6375L48.6987 60.0751ZM46.9816 62.8466L48.903 63.5938L48.9076 63.582L46.9816 62.8466ZM46.9816 70.3476L45.0557 71.083L45.0603 71.0948L46.9816 70.3476ZM48.6987 73.089L47.2212 74.5266L47.231 74.5367L47.241 74.5467L48.6987 73.089ZM51.2895 74.776L50.5442 76.6981L50.5572 76.7031L51.2895 74.776ZM57.6458 74.6253L58.5526 76.4767L58.5602 76.473L58.5677 76.4692L57.6458 74.6253ZM60.2666 72.6672L61.78 74.0671L61.7886 74.0578L61.7971 74.0484L60.2666 72.6672ZM62.0138 69.8656L60.1098 69.0753L60.106 69.0845L60.1023 69.0937L62.0138 69.8656ZM70.9609 83V80.9385H68.9726V83V85.0615H70.9609V83ZM68.9726 83L70.6448 81.7942L67.4516 77.3659L65.7794 78.5717L64.1073 79.7774L67.3005 84.2058L68.9726 83ZM65.7794 78.5717L64.4025 77.0374C63.681 77.6849 62.9111 78.2974 62.0917 78.8746L63.2791 80.5599L64.4664 82.2452C65.4144 81.5773 66.3113 80.8643 67.1563 80.106L65.7794 78.5717ZM63.2791 80.5599L62.0995 78.8692C61.3288 79.4069 60.5118 79.883 59.6469 80.2974L60.5377 82.1565L61.4286 84.0156C62.4917 83.5062 63.5022 82.9179 64.4587 82.2506L63.2791 80.5599ZM60.5377 82.1565L59.6788 80.2824C58.8271 80.6728 57.95 80.9828 57.0462 81.2132L57.5554 83.2109L58.0646 85.2085C59.2093 84.9167 60.3204 84.5239 61.3967 84.0306L60.5377 82.1565ZM57.5554 83.2109L57.0366 81.2157C56.203 81.4324 55.3531 81.541 54.4827 81.541V83.6025V85.664C55.7009 85.664 56.8995 85.5115 58.0742 85.2061L57.5554 83.2109ZM54.4827 83.6025V81.541C52.4493 81.541 50.5599 81.2 48.7984 80.5307L48.0661 82.4578L47.3338 84.3848C49.589 85.2418 51.9773 85.664 54.4827 85.664V83.6025ZM48.0661 82.4578L48.8049 80.5331C47.0679 79.8664 45.5561 78.9087 44.2521 77.6569L42.8244 79.144L41.3968 80.6312C43.1052 82.2713 45.0879 83.5228 47.3274 84.3824L48.0661 82.4578ZM42.8244 79.144L44.2722 77.6764C43.0016 76.423 41.9755 74.8756 41.2076 73.0006L39.2999 73.7819L37.3921 74.5631C38.3514 76.9056 39.675 78.9329 41.3767 80.6117L42.8244 79.144ZM39.2999 73.7819L41.2076 73.0006C40.4622 71.1804 40.066 69.0529 40.066 66.5821H38.0045H35.943C35.943 69.4935 36.4104 72.1659 37.3921 74.5631L39.2999 73.7819ZM38.0045 66.5821H40.066C40.066 64.312 40.4555 62.2838 41.205 60.4712L39.2999 59.6835L37.3947 58.8958C36.417 61.2605 35.943 63.8314 35.943 66.5821H38.0045ZM39.2999 59.6835L41.2076 60.4648C41.9772 58.5855 43.0087 57.0095 44.2919 55.709L42.8244 54.2611L41.357 52.8132C39.6679 54.5251 38.3496 56.564 37.3921 58.9022L39.2999 59.6835ZM42.8244 54.2611L44.2822 55.7188C45.5949 54.406 47.1142 53.3922 48.8549 52.6713L48.0661 50.7666L47.2773 48.862C45.0416 49.7879 43.0664 51.1036 41.3667 52.8033L42.8244 54.2611ZM48.0661 50.7666L48.8644 52.6673C50.6094 51.9344 52.4757 51.5629 54.4827 51.5629V49.5014V47.4398C51.9508 47.4398 49.5395 47.9118 47.2678 48.8659L48.0661 50.7666ZM54.4827 49.5014V51.5629C55.3532 51.5629 56.2165 51.6715 57.0763 51.8907L57.5855 49.893L58.0947 47.8953C56.9061 47.5924 55.7008 47.4398 54.4827 47.4398V49.5014ZM57.5855 49.893L57.0763 51.8907C57.9676 52.1179 58.834 52.4327 59.677 52.8366L60.5679 50.9775L61.4587 49.1184C60.3738 48.5985 59.2519 48.1903 58.0947 47.8953L57.5855 49.893ZM60.5679 50.9775L59.677 52.8366C60.5312 53.2459 61.3396 53.7257 62.1036 54.2765L63.3092 52.6042L64.5148 50.9319C63.5517 50.2376 62.5325 49.6329 61.4587 49.1184L60.5679 50.9775ZM63.3092 52.6042L62.1219 54.2895C62.9265 54.8564 63.6726 55.4664 64.3616 56.1192L65.7794 54.6226L67.1972 53.126C66.3599 52.3327 65.4592 51.5972 64.4966 50.9189L63.3092 52.6042ZM65.7794 54.6226L67.3621 55.9436L70.5553 52.1177L68.9726 50.7967L67.3899 49.4757L64.1967 53.3016L65.7794 54.6226ZM68.9726 50.7967V52.8583H70.9609V50.7967V48.7352H68.9726V50.7967ZM70.9609 50.7967H68.8993V83H70.9609H73.0224V50.7967H70.9609ZM62.6766 66.5821H64.7381C64.7381 65.1791 64.4609 63.8217 63.9125 62.5253L62.0138 63.3286L60.1152 64.1319C60.4505 64.9242 60.6151 65.7357 60.6151 66.5821H62.6766ZM62.0138 63.3286L63.9304 62.5692C63.4193 61.2794 62.7038 60.1258 61.78 59.1271L60.2666 60.527L58.7532 61.9269C59.3156 62.5349 59.7649 63.249 60.0973 64.088L62.0138 63.3286ZM60.2666 60.527L61.7971 59.1458C60.8735 58.1224 59.7828 57.3079 58.5379 56.7104L57.6458 58.5689L56.7537 60.4274C57.5171 60.7939 58.1736 61.2848 58.7361 61.9082L60.2666 60.527ZM57.6458 58.5689L58.5827 56.7326C57.3031 56.0797 55.927 55.7542 54.4827 55.7542V57.8158V59.8773C55.2877 59.8773 56.0203 60.0539 56.7089 60.4052L57.6458 58.5689ZM54.4827 57.8158V55.7542C53.1197 55.7542 51.8061 55.9865 50.5572 56.4611L51.2895 58.3882L52.0218 60.3152C52.7811 60.0267 53.5964 59.8773 54.4827 59.8773V57.8158ZM51.2895 58.3882L50.5442 56.4661C49.2941 56.9508 48.1876 57.6708 47.241 58.6174L48.6987 60.0751L50.1565 61.5329C50.696 60.9933 51.3167 60.5887 52.0348 60.3103L51.2895 58.3882ZM48.6987 60.0751L47.2212 58.6375C46.2769 59.6081 45.5636 60.7812 45.0557 62.1113L46.9816 62.8466L48.9076 63.582C49.2432 62.7029 49.6746 62.0284 50.1763 61.5128L48.6987 60.0751ZM46.9816 62.8466L45.0603 62.0994C44.5288 63.466 44.2875 64.9724 44.2875 66.5821H46.349H48.4106C48.4106 65.3801 48.591 64.3962 48.903 63.5938L46.9816 62.8466ZM46.349 66.5821H44.2875C44.2875 68.1928 44.5291 69.7038 45.0557 71.083L46.9816 70.3476L48.9076 69.6123C48.5907 68.7823 48.4106 67.783 48.4106 66.5821H46.349ZM46.9816 70.3476L45.0603 71.0948C45.5699 72.4054 46.2832 73.5626 47.2212 74.5266L48.6987 73.089L50.1763 71.6514C49.6683 71.1292 49.2368 70.4589 48.903 69.6004L46.9816 70.3476ZM48.6987 73.089L47.241 74.5467C48.1876 75.4933 49.2941 76.2134 50.5442 76.6981L51.2895 74.776L52.0348 72.8539C51.3167 72.5754 50.696 72.1708 50.1565 71.6313L48.6987 73.089ZM51.2895 74.776L50.5572 76.7031C51.8061 77.1777 53.1197 77.4099 54.4827 77.4099V75.3483V73.2868C53.5964 73.2868 52.7811 73.1374 52.0218 72.8489L51.2895 74.776ZM54.4827 75.3483V77.4099C55.9131 77.4099 57.2786 77.1007 58.5526 76.4767L57.6458 74.6253L56.739 72.774C56.0448 73.114 55.3016 73.2868 54.4827 73.2868V75.3483ZM57.6458 74.6253L58.5677 76.4692C59.7883 75.8589 60.8638 75.0576 61.78 74.0671L60.2666 72.6672L58.7532 71.2674C58.1833 71.8835 57.5116 72.3876 56.7238 72.7814L57.6458 74.6253ZM60.2666 72.6672L61.7971 74.0484C62.7044 73.043 63.4147 71.9022 63.9254 70.6376L62.0138 69.8656L60.1023 69.0937C59.7695 69.9177 59.315 70.6447 58.7361 71.2861L60.2666 72.6672ZM62.0138 69.8656L63.9179 70.656C64.4611 69.3474 64.7381 67.9847 64.7381 66.5821H62.6766H60.6151C60.6151 67.4287 60.4503 68.2551 60.1098 69.0753L62.0138 69.8656ZM118.287 83V85.0615H120.348V83H118.287ZM110.093 83H108.031V85.0615H110.093V83ZM109.761 60.9186L107.847 61.6843L107.86 61.7168L107.874 61.7489L109.761 60.9186ZM107.562 58.7195L106.732 60.6065L106.764 60.6206L106.797 60.6336L107.562 58.7195ZM104.369 58.7195L105.162 60.6225L105.181 60.6147L105.199 60.6065L104.369 58.7195ZM103.074 59.5931L101.616 58.1354L101.596 58.1551L101.577 58.1753L103.074 59.5931ZM102.2 60.9186L100.313 60.0884L100.299 60.1204L100.286 60.153L102.2 60.9186ZM101.899 83V85.0615H103.96V83H101.899ZM93.6749 83H91.6133V85.0615H93.6749V83ZM93.3435 60.9186L91.4294 61.6843L91.4424 61.7168L91.4565 61.7489L93.3435 60.9186ZM91.1444 58.7195L90.3141 60.6065L90.3462 60.6206L90.3788 60.6336L91.1444 58.7195ZM87.9512 58.7195L88.7441 60.6225L88.7628 60.6147L88.7814 60.6065L87.9512 58.7195ZM86.6558 59.5931L85.1981 58.1354L85.1784 58.1551L85.1592 58.1753L86.6558 59.5931ZM85.7822 60.9186L83.8952 60.0884L83.8811 60.1204L83.8681 60.153L85.7822 60.9186ZM85.481 83V85.0615H87.5425V83H85.481ZM77.2569 83H75.1954V85.0615H77.2569V83ZM77.2569 50.7365V48.675H75.1954V50.7365H77.2569ZM79.2452 50.7365L80.7756 49.3553L80.1616 48.675H79.2452V50.7365ZM81.4744 53.2067L79.9439 54.5879L81.2785 56.0668L82.8023 54.7836L81.4744 53.2067ZM85.24 50.9775L85.9762 52.9031L85.9837 52.9002L85.9912 52.8973L85.24 50.9775ZM93.946 51.0076L93.1897 52.9254L93.1988 52.929L93.946 51.0076ZM97.7417 53.9297L96.1182 55.2002L97.7929 57.3401L99.4026 55.1509L97.7417 53.9297ZM101.477 51.0076L100.684 49.1047L100.675 49.1087L100.665 49.1128L101.477 51.0076ZM103.706 50.375L104.028 52.4113L104.054 52.4072L104.08 52.4024L103.706 50.375ZM110.756 51.1281L109.937 53.0203L109.947 53.0243L110.756 51.1281ZM114.672 53.7791L113.201 55.2236L113.214 55.2369L113.227 55.2499L114.672 53.7791ZM118.287 83V80.9385H110.093V83V85.0615H118.287V83ZM110.093 83H112.154V62.5152H110.093H108.031V83H110.093ZM110.093 62.5152H112.154C112.154 61.6744 111.987 60.8588 111.648 60.0884L109.761 60.9186L107.874 61.7489C107.977 61.9826 108.031 62.2314 108.031 62.5152H110.093ZM109.761 60.9186L111.676 60.153C111.371 59.3923 110.925 58.7148 110.346 58.1354L108.888 59.5931L107.43 61.0509C107.614 61.2346 107.75 61.4408 107.847 61.6843L109.761 60.9186ZM108.888 59.5931L110.346 58.1354C109.766 57.556 109.089 57.1097 108.328 56.8054L107.562 58.7195L106.797 60.6336C107.04 60.731 107.246 60.8671 107.43 61.0509L108.888 59.5931ZM107.562 58.7195L108.393 56.8326C107.622 56.4936 106.807 56.3266 105.966 56.3266V58.3882V60.4497C106.25 60.4497 106.498 60.5036 106.732 60.6065L107.562 58.7195ZM105.966 58.3882V56.3266C105.125 56.3266 104.309 56.4936 103.539 56.8326L104.369 58.7195L105.199 60.6065C105.433 60.5036 105.682 60.4497 105.966 60.4497V58.3882ZM104.369 58.7195L103.576 56.8166C102.837 57.1244 102.182 57.5699 101.616 58.1354L103.074 59.5931L104.531 61.0509C104.729 60.8532 104.937 60.7163 105.162 60.6225L104.369 58.7195ZM103.074 59.5931L101.577 58.1753C101.046 58.7363 100.625 59.379 100.313 60.0884L102.2 60.9186L104.087 61.7489C104.217 61.4541 104.379 61.2131 104.57 61.011L103.074 59.5931ZM102.2 60.9186L100.286 60.153C99.9839 60.9083 99.8374 61.7013 99.8374 62.5152H101.899H103.96C103.96 62.2045 104.015 61.9331 104.114 61.6843L102.2 60.9186ZM101.899 62.5152H99.8374V83H101.899H103.96V62.5152H101.899ZM101.899 83V80.9385H93.6749V83V85.0615H101.899V83ZM93.6749 83H95.7364V62.5152H93.6749H91.6133V83H93.6749ZM93.6749 62.5152H95.7364C95.7364 61.6744 95.5694 60.8588 95.2305 60.0884L93.3435 60.9186L91.4565 61.7489C91.5594 61.9826 91.6133 62.2314 91.6133 62.5152H93.6749ZM93.3435 60.9186L95.2576 60.153C94.9533 59.3923 94.507 58.7148 93.9276 58.1354L92.4699 59.5931L91.0122 61.0509C91.1959 61.2346 91.332 61.4408 91.4294 61.6843L93.3435 60.9186ZM92.4699 59.5931L93.9276 58.1354C93.3482 57.556 92.6708 57.1097 91.91 56.8054L91.1444 58.7195L90.3788 60.6336C90.6222 60.731 90.8284 60.8671 91.0122 61.0509L92.4699 59.5931ZM91.1444 58.7195L91.9747 56.8326C91.2042 56.4936 90.3886 56.3266 89.5478 56.3266V58.3882V60.4497C89.8316 60.4497 90.0804 60.5036 90.3141 60.6065L91.1444 58.7195ZM89.5478 58.3882V56.3266C88.707 56.3266 87.8913 56.4936 87.1209 56.8326L87.9512 58.7195L88.7814 60.6065C89.0152 60.5036 89.2639 60.4497 89.5478 60.4497V58.3882ZM87.9512 58.7195L87.1583 56.8166C86.4194 57.1244 85.7636 57.5699 85.1981 58.1354L86.6558 59.5931L88.1135 61.0509C88.3112 60.8532 88.519 60.7163 88.7441 60.6225L87.9512 58.7195ZM86.6558 59.5931L85.1592 58.1753C84.6278 58.7363 84.2074 59.379 83.8952 60.0884L85.7822 60.9186L87.6692 61.7489C87.7989 61.4541 87.9608 61.2131 88.1524 61.011L86.6558 59.5931ZM85.7822 60.9186L83.8681 60.153C83.566 60.9083 83.4194 61.7013 83.4194 62.5152H85.481H87.5425C87.5425 62.2045 87.5967 61.9331 87.6963 61.6843L85.7822 60.9186ZM85.481 62.5152H83.4194V83H85.481H87.5425V62.5152H85.481ZM85.481 83V80.9385H77.2569V83V85.0615H85.481V83ZM77.2569 83H79.3185V50.7365H77.2569H75.1954V83H77.2569ZM77.2569 50.7365V52.798H79.2452V50.7365V48.675H77.2569V50.7365ZM79.2452 50.7365L77.7147 52.1176L79.9439 54.5879L81.4744 53.2067L83.0049 51.8256L80.7756 49.3553L79.2452 50.7365ZM81.4744 53.2067L82.8023 54.7836C83.7749 53.9646 84.831 53.341 85.9762 52.9031L85.24 50.9775L84.5037 49.0519C82.9176 49.6583 81.4633 50.5209 80.1465 51.6298L81.4744 53.2067ZM85.24 50.9775L85.9912 52.8973C87.1378 52.4486 88.319 52.2257 89.5478 52.2257V50.1641V48.1026C87.8042 48.1026 86.1135 48.4219 84.4887 49.0577L85.24 50.9775ZM89.5478 50.1641V52.2257C90.7905 52.2257 92.0003 52.4563 93.1897 52.9254L93.946 51.0076L94.7023 49.0898C93.0399 48.4342 91.3175 48.1026 89.5478 48.1026V50.1641ZM93.946 51.0076L93.1988 52.929C94.2551 53.3398 95.2308 54.0663 96.1182 55.2002L97.7417 53.9297L99.3652 52.6592C98.0836 51.0217 96.5288 49.8001 94.6932 49.0863L93.946 51.0076ZM97.7417 53.9297L99.4026 55.1509C99.7916 54.6218 100.223 54.1861 100.696 53.8317L99.4588 52.1825L98.2219 50.5332C97.409 51.1429 96.6959 51.872 96.0808 52.7085L97.7417 53.9297ZM99.4588 52.1825L100.696 53.8317C101.214 53.4432 101.745 53.1359 102.289 52.9025L101.477 51.0076L100.665 49.1128C99.8039 49.4819 98.9893 49.9577 98.2219 50.5332L99.4588 52.1825ZM101.477 51.0076L102.27 52.9106C102.844 52.6715 103.429 52.5059 104.028 52.4113L103.706 50.375L103.385 48.3387C102.458 48.4851 101.556 48.7413 100.684 49.1047L101.477 51.0076ZM103.706 50.375L104.08 52.4024C104.725 52.2835 105.353 52.2257 105.966 52.2257V50.1641V48.1026C105.092 48.1026 104.214 48.1853 103.333 48.3476L103.706 50.375ZM105.966 50.1641V52.2257C107.407 52.2257 108.723 52.4954 109.937 53.0203L110.756 51.1281L111.574 49.2359C109.815 48.4755 107.939 48.1026 105.966 48.1026V50.1641ZM110.756 51.1281L109.947 53.0243C111.215 53.5653 112.293 54.2988 113.201 55.2236L114.672 53.7791L116.143 52.3345C114.842 51.01 113.309 49.9762 111.565 49.232L110.756 51.1281ZM114.672 53.7791L113.227 55.2499C114.152 56.1582 114.886 57.2363 115.427 58.5043L117.323 57.6953L119.219 56.8863C118.475 55.1418 117.441 53.6091 116.116 52.3083L114.672 53.7791ZM117.323 57.6953L115.427 58.5043C115.955 59.7439 116.225 61.0742 116.225 62.5152H118.287H120.348C120.348 60.5421 119.975 58.6591 119.219 56.8863L117.323 57.6953ZM118.287 62.5152H116.225V83H118.287H120.348V62.5152H118.287ZM137.145 75.1073L135.558 73.7909L133.594 76.1577L136.53 77.075L137.145 75.1073ZM138.109 75.3182L137.853 77.3638L137.916 77.3717L137.98 77.3757L138.109 75.3182ZM143.471 74.0831L144.564 75.8313L144.571 75.8268L144.578 75.8223L143.471 74.0831ZM145.218 72.5769L143.66 71.2267L143.657 71.2308L145.218 72.5769ZM146.483 70.5886L147.945 69.1346L145.822 67.0011L144.6 69.7514L146.483 70.5886ZM152.508 76.6437L154.194 77.8301L155.19 76.4156L153.97 75.1896L152.508 76.6437ZM149.857 79.5658L148.513 78.0028L148.505 78.0095L148.498 78.0163L149.857 79.5658ZM146.634 81.7649L145.687 79.9338L145.68 79.9372L145.674 79.9406L146.634 81.7649ZM142.989 83.1205L142.519 81.1133L142.5 81.1177L142.481 81.1224L142.989 83.1205ZM132.656 82.3373L131.851 84.2351L131.858 84.238L132.656 82.3373ZM127.414 78.8127L125.947 80.2606L125.957 80.2704L127.414 78.8127ZM123.89 73.4505L121.985 74.2382L121.987 74.2447L123.89 73.4505ZM127.414 54.2008L125.967 52.7333L125.957 52.7431L127.414 54.2008ZM132.656 50.7365L131.874 48.829L131.867 48.8318L132.656 50.7365ZM146.664 51.3691L145.704 53.1934L145.71 53.1968L145.717 53.2002L146.664 51.3691ZM149.918 53.5983L148.556 55.146L148.564 55.1537L148.573 55.1614L149.918 53.5983ZM152.569 56.5204L154.155 57.8369L155.162 56.6235L154.255 55.334L152.569 56.5204ZM141.362 58.1472L143.009 59.3878L144.678 57.1719L142.075 56.2127L141.362 58.1472ZM140.217 57.876L139.99 59.925L140.002 59.9262L140.217 57.876ZM135.88 58.4484L136.659 60.3571L136.668 60.3531L136.678 60.3491L135.88 58.4484ZM133.289 60.1956L131.812 58.7575L131.802 58.7676L131.792 58.7778L133.289 60.1956ZM131.572 62.9671L133.488 63.7265L133.493 63.7143L131.572 62.9671ZM130.969 67.6063L128.911 67.7147L128.913 67.7685L128.919 67.8221L130.969 67.6063ZM131.12 68.7812L129.081 69.087L129.09 69.1467L129.102 69.2059L131.12 68.7812ZM131.783 70.8598L129.993 71.8826L131.545 74.6L133.429 72.1004L131.783 70.8598ZM137.145 75.1073L136.53 77.075C136.964 77.2106 137.405 77.3078 137.853 77.3638L138.109 75.3182L138.364 73.2726C138.17 73.2482 137.968 73.2049 137.76 73.1396L137.145 75.1073ZM138.109 75.3182L137.98 77.3757C138.344 77.3985 138.708 77.4099 139.073 77.4099V75.3483V73.2868C138.794 73.2868 138.516 73.2781 138.237 73.2607L138.109 75.3182ZM139.073 75.3483V77.4099C140.068 77.4099 141.039 77.2727 141.98 76.993L141.392 75.017L140.805 73.0409C140.259 73.2031 139.684 73.2868 139.073 73.2868V75.3483ZM141.392 75.017L141.98 76.993C142.897 76.7205 143.76 76.3335 144.564 75.8313L143.471 74.0831L142.378 72.3349C141.897 72.636 141.374 72.8717 140.805 73.0409L141.392 75.017ZM143.471 74.0831L144.578 75.8223C145.407 75.2948 146.143 74.6612 146.78 73.9229L145.218 72.5769L143.657 71.2308C143.289 71.6574 142.861 72.0279 142.364 72.3439L143.471 74.0831ZM145.218 72.5769L146.776 73.927C147.431 73.1718 147.963 72.3365 148.367 71.4259L146.483 70.5886L144.6 69.7514C144.362 70.2868 144.05 70.7769 143.66 71.2267L145.218 72.5769ZM146.483 70.5886L145.022 72.0427L151.047 78.0978L152.508 76.6437L153.97 75.1896L147.945 69.1346L146.483 70.5886ZM152.508 76.6437L150.822 75.4573C150.157 76.4028 149.388 77.2503 148.513 78.0028L149.857 79.5658L151.202 81.1288C152.335 80.1541 153.333 79.0536 154.194 77.8301L152.508 76.6437ZM149.857 79.5658L148.498 78.0163C147.639 78.7694 146.704 79.408 145.687 79.9338L146.634 81.7649L147.581 83.596C148.894 82.9168 150.107 82.0893 151.217 81.1153L149.857 79.5658ZM146.634 81.7649L145.674 79.9406C144.687 80.4599 143.637 80.8512 142.519 81.1133L142.989 83.1205L143.459 85.1276C144.911 84.7873 146.291 84.2748 147.594 83.5892L146.634 81.7649ZM142.989 83.1205L142.481 81.1224C141.387 81.4003 140.252 81.541 139.073 81.541V83.6025V85.664C140.584 85.664 142.06 85.4833 143.496 85.1186L142.989 83.1205ZM139.073 83.6025V81.541C137.066 81.541 135.199 81.1694 133.454 80.4366L132.656 82.3373L131.858 84.238C134.13 85.192 136.541 85.664 139.073 85.664V83.6025ZM132.656 82.3373L133.461 80.4394C131.713 79.6979 130.189 78.6713 128.872 77.3549L127.414 78.8127L125.957 80.2704C127.653 81.9665 129.623 83.2896 131.851 84.2351L132.656 82.3373ZM127.414 78.8127L128.882 77.3648C127.592 76.0575 126.56 74.4957 125.792 72.6563L123.89 73.4505L121.987 74.2447C122.947 76.5424 124.265 78.5553 125.947 80.2606L127.414 78.8127ZM123.89 73.4505L125.795 72.6628C125.045 70.8482 124.656 68.8297 124.656 66.5821H122.595H120.533C120.533 69.315 121.008 71.8755 121.985 74.2382L123.89 73.4505ZM122.595 66.5821H124.656C124.656 64.2675 125.047 62.2073 125.798 60.3744L123.89 59.5931L121.982 58.8119C121.006 61.1965 120.533 63.7955 120.533 66.5821H122.595ZM123.89 59.5931L125.798 60.3744C126.566 58.4973 127.595 56.9355 128.872 55.6586L127.414 54.2008L125.957 52.7431C124.261 54.4384 122.941 56.4715 121.982 58.8119L123.89 59.5931ZM127.414 54.2008L128.862 55.6683C130.176 54.3723 131.698 53.3645 133.445 52.6412L132.656 50.7365L131.867 48.8318C129.638 49.7553 127.666 51.0571 125.967 52.7333L127.414 54.2008ZM132.656 50.7365L133.438 52.6439C135.187 51.9269 137.059 51.5629 139.073 51.5629V49.5014V47.4398C136.548 47.4398 134.142 47.8993 131.874 48.8291L132.656 50.7365ZM139.073 49.5014V51.5629C140.252 51.5629 141.4 51.7036 142.519 51.9834L143.019 49.9834L143.519 47.9834C142.068 47.6205 140.584 47.4398 139.073 47.4398V49.5014ZM143.019 49.9834L142.519 51.9834C143.648 52.2657 144.709 52.6695 145.704 53.1934L146.664 51.3691L147.624 49.5448C146.33 48.8637 144.96 48.3437 143.519 47.9834L143.019 49.9834ZM146.664 51.3691L145.717 53.2002C146.73 53.7239 147.675 54.3711 148.556 55.146L149.918 53.5983L151.28 52.0507C150.152 51.0582 148.928 50.2193 147.611 49.538L146.664 51.3691ZM149.918 53.5983L148.573 55.1614C149.448 55.9138 150.217 56.7613 150.883 57.7068L152.569 56.5204L154.255 55.334C153.394 54.1105 152.395 53.01 151.262 52.0353L149.918 53.5983ZM152.569 56.5204L150.982 55.204L135.558 73.7909L137.145 75.1073L138.731 76.4238L154.155 57.8369L152.569 56.5204ZM141.362 58.1472L142.075 56.2127C141.543 56.0166 140.994 55.8849 140.433 55.8258L140.217 57.876L140.002 59.9262C140.204 59.9475 140.419 59.9965 140.65 60.0816L141.362 58.1472ZM140.217 57.876L140.445 55.8271C140.001 55.7777 139.543 55.7542 139.073 55.7542V57.8158V59.8773C139.406 59.8773 139.711 59.894 139.99 59.925L140.217 57.876ZM139.073 57.8158V55.7542C137.683 55.7542 136.346 56.0163 135.081 56.5477L135.88 58.4484L136.678 60.3491C137.421 60.037 138.213 59.8773 139.073 59.8773V57.8158ZM135.88 58.4484L135.1 56.5397C133.853 57.0488 132.752 57.7916 131.812 58.7575L133.289 60.1956L134.766 61.6338C135.312 61.0734 135.938 60.6513 136.659 60.3571L135.88 58.4484ZM133.289 60.1956L131.792 58.7778C130.867 59.7546 130.159 60.9131 129.65 62.2199L131.572 62.9671L133.493 63.7143C133.828 62.8521 134.265 62.163 134.785 61.6134L133.289 60.1956ZM131.572 62.9671L129.655 62.2077C129.122 63.5522 128.878 65.0213 128.878 66.5821H130.939H133.001C133.001 65.4517 133.178 64.5108 133.488 63.7265L131.572 62.9671ZM130.939 66.5821H128.878C128.878 66.9275 128.889 67.306 128.911 67.7147L130.969 67.6063L133.028 67.4979C133.009 67.1434 133.001 66.8391 133.001 66.5821H130.939ZM130.969 67.6063L128.919 67.8221C128.962 68.2355 129.017 68.6571 129.081 69.087L131.12 68.7812L133.159 68.4753C133.103 68.1019 133.056 67.7403 133.019 67.3905L130.969 67.6063ZM131.12 68.7812L129.102 69.2059C129.191 69.6284 129.292 70.0424 129.405 70.4475L131.391 69.8958L133.377 69.344C133.289 69.0261 133.209 68.697 133.137 68.3565L131.12 68.7812ZM131.391 69.8958L129.405 70.4475C129.544 70.9482 129.735 71.4319 129.993 71.8826L131.783 70.8598L133.572 69.837C133.509 69.7253 133.439 69.5663 133.377 69.344L131.391 69.8958ZM131.783 70.8598L133.429 72.1004L143.009 59.3878L141.362 58.1472L139.716 56.9065L130.136 69.6191L131.783 70.8598ZM155.641 83H153.58V85.0615H155.641V83ZM155.641 74.8061V72.7446H153.58V74.8061H155.641ZM158.624 68.3293L157.15 69.7713L157.158 69.7792L157.166 69.787L158.624 68.3293ZM156.425 65.0457L154.523 65.843L154.529 65.8559L154.534 65.8688L156.425 65.0457ZM156.425 57.0325L154.534 56.2094L154.529 56.2223L154.523 56.2353L156.425 57.0325ZM161.877 51.6101L162.674 53.5112L162.687 53.5058L162.7 53.5002L161.877 51.6101ZM182.543 50.7967H184.604V48.7352H182.543V50.7967ZM182.543 58.9907V61.0522H184.604V58.9907H182.543ZM164.438 62.5454L162.945 63.9671L162.962 63.9853L162.98 64.0031L164.438 62.5454ZM178.416 63.8708L177.671 65.7934L177.685 65.7986L177.699 65.8037L178.416 63.8708ZM183.868 76.7642L185.753 77.5986L185.758 77.5873L183.868 76.7642ZM181.669 80.0177L183.127 81.4754L183.135 81.4676L183.142 81.4596L181.669 80.0177ZM178.416 82.2168L179.213 84.1179L179.226 84.1125L179.239 84.1068L178.416 82.2168ZM174.439 83V80.9385H155.641V83V85.0615H174.439V83ZM155.641 83H157.703V74.8061H155.641H153.58V83H155.641ZM155.641 74.8061V76.8676H174.439V74.8061V72.7446H155.641V74.8061ZM174.439 74.8061V76.8676C175.554 76.8676 176.559 76.4452 177.343 75.6613L175.885 74.2036L174.427 72.7459C174.412 72.761 174.405 72.7654 174.407 72.7639C174.408 72.7633 174.411 72.7616 174.415 72.7594C174.419 72.7572 174.424 72.7548 174.429 72.7525C174.435 72.7502 174.44 72.7483 174.445 72.7468C174.45 72.7453 174.454 72.7444 174.456 72.744C174.461 72.7431 174.456 72.7446 174.439 72.7446V74.8061ZM175.885 74.2036L177.343 75.6613C178.127 74.8775 178.549 73.8729 178.549 72.7576H176.488H174.426C174.426 72.775 174.424 72.7799 174.425 72.775C174.426 72.7728 174.427 72.769 174.428 72.764C174.43 72.759 174.432 72.7535 174.434 72.748C174.436 72.7424 174.439 72.7375 174.441 72.7334C174.443 72.7294 174.445 72.7269 174.445 72.726C174.447 72.7238 174.442 72.7308 174.427 72.7459L175.885 74.2036ZM176.488 72.7576H178.549C178.549 71.6768 178.121 70.3583 176.731 69.7329L175.885 71.6129L175.039 73.4928C174.948 73.4517 174.843 73.3874 174.742 73.2932C174.641 73.1986 174.565 73.0942 174.513 72.9948C174.412 72.8041 174.426 72.6889 174.426 72.7576H176.488ZM175.885 71.6129L176.731 69.7329C176.001 69.4042 175.215 69.2802 174.439 69.2802V71.3418V73.4033C174.787 73.4033 174.966 73.46 175.039 73.4928L175.885 71.6129ZM174.439 71.3418V69.2802H165.884V71.3418V73.4033H174.439V71.3418ZM165.884 71.3418V69.2802C164.727 69.2802 163.673 69.0618 162.7 68.6383L161.877 70.5284L161.054 72.4185C162.572 73.0794 164.189 73.4033 165.884 73.4033V71.3418ZM161.877 70.5284L162.7 68.6383C161.682 68.195 160.815 67.6056 160.081 66.8716L158.624 68.3293L157.166 69.787C158.28 70.9006 159.582 71.7773 161.054 72.4185L161.877 70.5284ZM158.624 68.3293L160.097 66.8873C159.354 66.1277 158.76 65.2444 158.315 64.2226L156.425 65.0457L154.534 65.8688C155.174 67.3373 156.046 68.643 157.15 69.7713L158.624 68.3293ZM156.425 65.0457L158.326 64.2485C157.915 63.2698 157.703 62.2069 157.703 61.0391H155.641H153.58C153.58 62.7232 153.889 64.3313 154.523 65.843L156.425 65.0457ZM155.641 61.0391H157.703C157.703 59.8714 157.915 58.8085 158.326 57.8298L156.425 57.0325L154.523 56.2353C153.889 57.7469 153.58 59.355 153.58 61.0391H155.641ZM156.425 57.0325L158.315 57.8556C158.758 56.8377 159.347 55.9708 160.081 55.2368L158.624 53.7791L157.166 52.3214C156.052 53.435 155.176 54.737 154.534 56.2094L156.425 57.0325ZM158.624 53.7791L160.081 55.2368C160.81 54.5086 161.668 53.9334 162.674 53.5112L161.877 51.6101L161.08 49.709C159.596 50.3311 158.285 51.2019 157.166 52.3214L158.624 53.7791ZM161.877 51.6101L162.7 53.5002C163.673 53.0767 164.727 52.8583 165.884 52.8583V50.7967V48.7352C164.189 48.7352 162.572 49.0591 161.054 49.72L161.877 51.6101ZM165.884 50.7967V52.8583H182.543V50.7967V48.7352H165.884V50.7967ZM182.543 50.7967H180.481V58.9907H182.543H184.604V50.7967H182.543ZM182.543 58.9907V56.9291H165.884V58.9907V61.0522H182.543V58.9907ZM165.884 58.9907V56.9291C164.768 56.9291 163.764 57.3516 162.98 58.1354L164.438 59.5931L165.895 61.0509C165.911 61.0358 165.917 61.0314 165.915 61.0329C165.914 61.0335 165.912 61.0351 165.908 61.0373C165.904 61.0395 165.899 61.0419 165.893 61.0442C165.888 61.0466 165.882 61.0485 165.877 61.05C165.872 61.0515 165.869 61.0523 165.866 61.0527C165.861 61.0537 165.866 61.0522 165.884 61.0522V58.9907ZM164.438 59.5931L162.98 58.1354C162.196 58.9193 161.774 59.9238 161.774 61.0391H163.835H165.897C165.897 61.0217 165.898 61.0169 165.897 61.0218C165.897 61.024 165.896 61.0278 165.895 61.0328C165.893 61.0378 165.891 61.0432 165.889 61.0488C165.886 61.0543 165.884 61.0593 165.882 61.0633C165.88 61.0674 165.878 61.0699 165.877 61.0708C165.876 61.0729 165.88 61.066 165.895 61.0509L164.438 59.5931ZM163.835 61.0391H161.774C161.774 62.1509 162.178 63.162 162.945 63.9671L164.438 62.5454L165.931 61.1236C165.912 61.1043 165.904 61.0921 165.901 61.0878C165.898 61.0838 165.899 61.0839 165.9 61.0869C165.901 61.0899 165.901 61.0902 165.9 61.0855C165.899 61.0804 165.897 61.0658 165.897 61.0391H163.835ZM164.438 62.5454L162.98 64.0031C163.764 64.7869 164.768 65.2094 165.884 65.2094V63.1479V61.0863C165.866 61.0863 165.861 61.0848 165.866 61.0858C165.869 61.0862 165.872 61.087 165.877 61.0885C165.882 61.09 165.888 61.0919 165.893 61.0943C165.899 61.0966 165.904 61.099 165.908 61.1012C165.912 61.1034 165.914 61.105 165.915 61.1056C165.917 61.1071 165.911 61.1027 165.895 61.0876L164.438 62.5454ZM165.884 63.1479V65.2094H174.439V63.1479V61.0863H165.884V63.1479ZM174.439 63.1479V65.2094C175.604 65.2094 176.676 65.4081 177.671 65.7934L178.416 63.8708L179.16 61.9483C177.665 61.3696 176.086 61.0863 174.439 61.0863V63.1479ZM178.416 63.8708L177.699 65.8037C178.711 66.1791 179.563 66.6975 180.279 67.3514L181.669 65.8289L183.059 64.3065C181.927 63.2734 180.611 62.4864 179.133 61.938L178.416 63.8708ZM181.669 65.8289L180.279 67.3514C180.99 68.0004 181.562 68.7856 181.994 69.7294L183.868 68.8715L185.743 68.0137C185.09 66.5877 184.196 65.3445 183.059 64.3065L181.669 65.8289ZM183.868 68.8715L181.994 69.7294C182.403 70.6243 182.62 71.6242 182.62 72.7576H184.681H186.743C186.743 71.0794 186.418 69.4885 185.743 68.0137L183.868 68.8715ZM184.681 72.7576H182.62C182.62 73.9147 182.402 74.9685 181.978 75.9411L183.868 76.7642L185.758 77.5873C186.419 76.0696 186.743 74.4523 186.743 72.7576H184.681ZM183.868 76.7642L181.983 75.9298C181.539 76.9326 180.944 77.8106 180.196 78.5757L181.669 80.0177L183.142 81.4596C184.241 80.3369 185.113 79.0459 185.753 77.5986L183.868 76.7642ZM181.669 80.0177L180.211 78.5599C179.477 79.294 178.61 79.8834 177.592 80.3267L178.416 82.2168L179.239 84.1068C180.711 83.4656 182.013 82.589 183.127 81.4754L181.669 80.0177ZM178.416 82.2168L177.618 80.3156C176.636 80.7276 175.583 80.9385 174.439 80.9385V83V85.0615C176.107 85.0615 177.705 84.7503 179.213 84.1179L178.416 82.2168Z" fill="#DD00FF" mask="url(#path-1-inside-1_2122_945)"/>
</svg>
