<svg width="1040" height="459" viewBox="0 0 1040 459" fill="none" xmlns="http://www.w3.org/2000/svg">
<path d="M140.5 165L337.5 458" stroke="url(#paint0_linear_2122_845)"/>
<path d="M6.10658 70.886L6.88604 74.8934L10.8934 74.114L10.114 70.1066L6.10658 70.886ZM139 160.5L139.28 160.085L8.77955 72.0854L8.5 72.5L8.22045 72.9146L138.72 160.915L139 160.5Z" fill="url(#paint1_linear_2122_845)"/>
<path d="M698.891 0.254105L695.254 2.10927L697.109 5.74589L700.746 3.89073L698.891 0.254105ZM625.5 226.5L625.976 226.654L698.476 3.15428L698 3L697.524 2.84572L625.024 226.346L625.5 226.5Z" fill="url(#paint2_linear_2122_845)"/>
<path d="M698 3L1037.5 51.5" stroke="url(#paint3_linear_2122_845)"/>
<path d="M977.173 367.09L975.59 363.327L971.827 364.91L973.41 368.673L977.173 367.09ZM625 223.5L624.811 223.963L974.311 366.463L974.5 366L974.689 365.537L625.189 223.037L625 223.5Z" fill="url(#paint4_linear_2122_845)"/>
<path d="M974.5 363L1039.5 53.5" stroke="url(#paint5_linear_2122_845)"/>
<path d="M337.5 455L649 204.5" stroke="url(#paint6_linear_2122_845)"/>
<rect x="0.584478" y="67.1448" width="13.7282" height="13.7282" transform="rotate(-10.7487 0.584478 67.1448)" stroke="#4EF5C3"/>
<defs>
<linearGradient id="paint0_linear_2122_845" x1="239" y1="165" x2="239" y2="458" gradientUnits="userSpaceOnUse">
<stop stop-color="#4EF5C3"/>
<stop offset="1" stop-color="#2E8F72" stop-opacity="0"/>
</linearGradient>
<linearGradient id="paint1_linear_2122_845" x1="73.75" y1="72.5" x2="73.75" y2="160.5" gradientUnits="userSpaceOnUse">
<stop stop-color="#4EF5C3"/>
<stop offset="1" stop-color="#2E8F72" stop-opacity="0"/>
</linearGradient>
<linearGradient id="paint2_linear_2122_845" x1="672.75" y1="3" x2="672.75" y2="200" gradientUnits="userSpaceOnUse">
<stop stop-color="#4EF5C3"/>
<stop offset="1" stop-color="#2E8F72" stop-opacity="0"/>
</linearGradient>
<linearGradient id="paint3_linear_2122_845" x1="867.5" y1="1" x2="867.5" y2="51.5" gradientUnits="userSpaceOnUse">
<stop stop-color="#4EF5C3"/>
<stop offset="1" stop-color="#2E8F72" stop-opacity="0"/>
</linearGradient>
<linearGradient id="paint4_linear_2122_845" x1="975" y1="372.5" x2="644" y2="200" gradientUnits="userSpaceOnUse">
<stop stop-color="#4EF5C3"/>
<stop offset="1" stop-color="#2E8F72" stop-opacity="0"/>
</linearGradient>
<linearGradient id="paint5_linear_2122_845" x1="975" y1="372" x2="1064.5" y2="9" gradientUnits="userSpaceOnUse">
<stop stop-color="#4EF5C3"/>
<stop offset="1" stop-color="#2E8F72" stop-opacity="0"/>
</linearGradient>
<linearGradient id="paint6_linear_2122_845" x1="493.25" y1="204.5" x2="493.25" y2="455" gradientUnits="userSpaceOnUse">
<stop stop-color="#4EF5C3"/>
<stop offset="1" stop-color="#2E8F72" stop-opacity="0"/>
</linearGradient>
</defs>
</svg>
